{
	"patcher" : 	{
		"fileversion" : 1,
		"appversion" : 		{
			"major" : 8,
			"minor" : 1,
			"revision" : 5,
			"architecture" : "x64",
			"modernui" : 1
		}
,
		"classnamespace" : "box",
		"rect" : [ 404.0, 115.0, 667.0, 421.0 ],
		"bglocked" : 0,
		"openinpresentation" : 1,
		"default_fontsize" : 12.0,
		"default_fontface" : 0,
		"default_fontname" : "Arial",
		"gridonopen" : 1,
		"gridsize" : [ 15.0, 15.0 ],
		"gridsnaponopen" : 1,
		"objectsnaponopen" : 1,
		"statusbarvisible" : 2,
		"toolbarvisible" : 1,
		"lefttoolbarpinned" : 0,
		"toptoolbarpinned" : 0,
		"righttoolbarpinned" : 0,
		"bottomtoolbarpinned" : 0,
		"toolbars_unpinned_last_save" : 0,
		"tallnewobj" : 0,
		"boxanimatetime" : 200,
		"enablehscroll" : 1,
		"enablevscroll" : 1,
		"devicewidth" : 0.0,
		"description" : "",
		"digest" : "",
		"tags" : "",
		"style" : "",
		"subpatcher_template" : "",
		"assistshowspatchername" : 0,
		"boxes" : [ 			{
				"box" : 				{
					"id" : "obj-70",
					"linecount" : 2,
					"maxclass" : "comment",
					"numinlets" : 1,
					"numoutlets" : 0,
					"patching_rect" : [ -45.0, 532.5, 150.0, 33.0 ],
					"text" : "give params time to stabilize"
				}

			}
, 			{
				"box" : 				{
					"id" : "obj-68",
					"maxclass" : "newobj",
					"numinlets" : 2,
					"numoutlets" : 1,
					"outlettype" : [ "" ],
					"patching_rect" : [ 24.0, 575.0, 55.0, 22.0 ],
					"text" : "pipe 500"
				}

			}
, 			{
				"box" : 				{
					"id" : "obj-67",
					"maxclass" : "newobj",
					"numinlets" : 1,
					"numoutlets" : 1,
					"outlettype" : [ "" ],
					"patching_rect" : [ 24.0, 551.0, 70.0, 22.0 ],
					"text" : "loadmess 1"
				}

			}
, 			{
				"box" : 				{
					"id" : "obj-66",
					"maxclass" : "newobj",
					"numinlets" : 2,
					"numoutlets" : 1,
					"outlettype" : [ "" ],
					"patching_rect" : [ 113.0, 604.0, 32.0, 22.0 ],
					"text" : "gate"
				}

			}
, 			{
				"box" : 				{
					"id" : "obj-5",
					"maxclass" : "newobj",
					"numinlets" : 1,
					"numoutlets" : 0,
					"patching_rect" : [ -61.0, 188.199973999999997, 71.0, 22.0 ],
					"text" : "s LEDquery"
				}

			}
, 			{
				"box" : 				{
					"id" : "obj-64",
					"maxclass" : "newobj",
					"numinlets" : 2,
					"numoutlets" : 2,
					"outlettype" : [ "", "" ],
					"patching_rect" : [ 126.0, 514.0, 60.0, 22.0 ],
					"text" : "zl change"
				}

			}
, 			{
				"box" : 				{
					"id" : "obj-1",
					"maxclass" : "newobj",
					"numinlets" : 2,
					"numoutlets" : 1,
					"outlettype" : [ "" ],
					"patching_rect" : [ 126.0, 483.5, 32.0, 22.0 ],
					"text" : "gate"
				}

			}
, 			{
				"box" : 				{
					"id" : "obj-65",
					"maxclass" : "newobj",
					"numinlets" : 1,
					"numoutlets" : 3,
					"outlettype" : [ "int", "int", "int" ],
					"patching_rect" : [ 10.0, 336.5, 40.0, 22.0 ],
					"text" : "t i i i"
				}

			}
, 			{
				"box" : 				{
					"id" : "obj-56",
					"maxclass" : "newobj",
					"numinlets" : 3,
					"numoutlets" : 1,
					"outlettype" : [ "" ],
					"patching_rect" : [ 80.0, 155.899947999999995, 47.0, 22.0 ],
					"text" : "clip 0 1"
				}

			}
, 			{
				"box" : 				{
					"comment" : "Enable (0 - 1)",
					"id" : "obj-59",
					"index" : 0,
					"maxclass" : "inlet",
					"numinlets" : 0,
					"numoutlets" : 1,
					"outlettype" : [ "" ],
					"patching_rect" : [ 80.0, 100.100043999999997, 30.0, 30.0 ]
				}

			}
, 			{
				"box" : 				{
					"id" : "obj-60",
					"maxclass" : "comment",
					"numinlets" : 1,
					"numoutlets" : 0,
					"patching_rect" : [ 80.0, 73.100043999999997, 46.0, 20.0 ],
					"text" : "Enable"
				}

			}
, 			{
				"box" : 				{
					"id" : "obj-61",
					"maxclass" : "message",
					"numinlets" : 2,
					"numoutlets" : 1,
					"outlettype" : [ "" ],
					"patching_rect" : [ 10.0, 188.199973999999997, 29.5, 22.0 ],
					"text" : "1"
				}

			}
, 			{
				"box" : 				{
					"id" : "obj-62",
					"maxclass" : "newobj",
					"numinlets" : 1,
					"numoutlets" : 1,
					"outlettype" : [ "bang" ],
					"patching_rect" : [ -31.0, 158.099921999999992, 63.0, 22.0 ],
					"text" : "loadbang"
				}

			}
, 			{
				"box" : 				{
					"bgcolor" : [ 0.239216, 0.254902, 0.278431, 1.0 ],
					"bgoncolor" : [ 0.439216, 0.74902, 0.254902, 1.0 ],
					"blinktime" : 600,
					"id" : "obj-63",
					"maxclass" : "textbutton",
					"mode" : 1,
					"numinlets" : 1,
					"numoutlets" : 3,
					"outlettype" : [ "", "", "int" ],
					"parameter_enable" : 0,
					"patching_rect" : [ 70.458344000000011, 183.099921999999992, 77.25, 20.0 ],
					"presentation" : 1,
					"presentation_rect" : [ 6.0, 5.0, 78.0, 28.0 ],
					"rounded" : 15.0,
					"text" : "hsv",
					"textcolor" : [ 1.0, 1.0, 1.0, 1.0 ],
					"texton" : "HSV",
					"textoncolor" : [ 1.0, 1.0, 1.0, 1.0 ],
					"textovercolor" : [ 0.996078431372549, 0.996078431372549, 0.996078431372549, 1.0 ],
					"usebgoncolor" : 1,
					"usetextovercolor" : 1
				}

			}
, 			{
				"box" : 				{
					"id" : "obj-57",
					"maxclass" : "comment",
					"numinlets" : 1,
					"numoutlets" : 0,
					"patching_rect" : [ 203.0, 492.0, 198.0, 20.0 ],
					"text" : "<< no data send if no vals change!"
				}

			}
, 			{
				"box" : 				{
					"id" : "obj-58",
					"maxclass" : "newobj",
					"numinlets" : 2,
					"numoutlets" : 1,
					"outlettype" : [ "" ],
					"patching_rect" : [ 412.0, 372.0, 54.0, 22.0 ],
					"text" : "pack 1 1"
				}

			}
, 			{
				"box" : 				{
					"id" : "obj-49",
					"maxclass" : "newobj",
					"numinlets" : 1,
					"numoutlets" : 1,
					"outlettype" : [ "bang" ],
					"patching_rect" : [ 342.0, 318.099921999999992, 63.0, 22.0 ],
					"text" : "loadbang"
				}

			}
, 			{
				"box" : 				{
					"id" : "obj-50",
					"linecount" : 2,
					"maxclass" : "message",
					"numinlets" : 2,
					"numoutlets" : 1,
					"outlettype" : [ "" ],
					"patching_rect" : [ 342.0, 345.0, 29.5, 35.0 ],
					"text" : "2 43"
				}

			}
, 			{
				"box" : 				{
					"id" : "obj-37",
					"maxclass" : "newobj",
					"numinlets" : 1,
					"numoutlets" : 1,
					"outlettype" : [ "bang" ],
					"patching_rect" : [ 258.0, 199.099921999999992, 63.0, 22.0 ],
					"text" : "loadbang"
				}

			}
, 			{
				"box" : 				{
					"id" : "obj-41",
					"maxclass" : "message",
					"numinlets" : 2,
					"numoutlets" : 1,
					"outlettype" : [ "" ],
					"patching_rect" : [ 258.0, 226.0, 29.5, 22.0 ],
					"text" : "112"
				}

			}
, 			{
				"box" : 				{
					"id" : "obj-29",
					"maxclass" : "newobj",
					"numinlets" : 1,
					"numoutlets" : 1,
					"outlettype" : [ "bang" ],
					"patching_rect" : [ 342.0, 182.099921999999992, 63.0, 22.0 ],
					"text" : "loadbang"
				}

			}
, 			{
				"box" : 				{
					"id" : "obj-23",
					"maxclass" : "message",
					"numinlets" : 2,
					"numoutlets" : 1,
					"outlettype" : [ "" ],
					"patching_rect" : [ 342.0, 209.0, 29.5, 22.0 ],
					"text" : "128"
				}

			}
, 			{
				"box" : 				{
					"id" : "obj-19",
					"maxclass" : "newobj",
					"numinlets" : 1,
					"numoutlets" : 1,
					"outlettype" : [ "bang" ],
					"patching_rect" : [ 686.0, 157.099921999999992, 63.0, 22.0 ],
					"text" : "loadbang"
				}

			}
, 			{
				"box" : 				{
					"id" : "obj-18",
					"maxclass" : "message",
					"numinlets" : 2,
					"numoutlets" : 1,
					"outlettype" : [ "" ],
					"patching_rect" : [ 686.0, 192.0, 50.0, 22.0 ],
					"text" : "254"
				}

			}
, 			{
				"box" : 				{
					"fontname" : "Arial",
					"fontsize" : 12.0,
					"id" : "obj-52",
					"maxclass" : "message",
					"numinlets" : 2,
					"numoutlets" : 1,
					"outlettype" : [ "" ],
					"patching_rect" : [ 756.0, 53.5, 37.0, 22.0 ],
					"text" : "open"
				}

			}
, 			{
				"box" : 				{
					"fontname" : "Arial",
					"fontsize" : 12.0,
					"id" : "obj-53",
					"maxclass" : "newobj",
					"numinlets" : 1,
					"numoutlets" : 1,
					"outlettype" : [ "" ],
					"patching_rect" : [ 728.5, 84.0, 53.0, 22.0 ],
					"text" : "pcontrol"
				}

			}
, 			{
				"box" : 				{
					"fontname" : "Arial",
					"fontsize" : 12.0,
					"id" : "obj-54",
					"maxclass" : "newobj",
					"numinlets" : 1,
					"numoutlets" : 0,
					"patcher" : 					{
						"fileversion" : 1,
						"appversion" : 						{
							"major" : 8,
							"minor" : 1,
							"revision" : 5,
							"architecture" : "x64",
							"modernui" : 1
						}
,
						"classnamespace" : "box",
						"rect" : [ 717.0, 79.0, 615.0, 527.0 ],
						"bglocked" : 0,
						"openinpresentation" : 1,
						"default_fontsize" : 12.0,
						"default_fontface" : 0,
						"default_fontname" : "Arial",
						"gridonopen" : 1,
						"gridsize" : [ 15.0, 15.0 ],
						"gridsnaponopen" : 1,
						"objectsnaponopen" : 1,
						"statusbarvisible" : 2,
						"toolbarvisible" : 1,
						"lefttoolbarpinned" : 0,
						"toptoolbarpinned" : 0,
						"righttoolbarpinned" : 0,
						"bottomtoolbarpinned" : 0,
						"toolbars_unpinned_last_save" : 0,
						"tallnewobj" : 0,
						"boxanimatetime" : 200,
						"enablehscroll" : 1,
						"enablevscroll" : 1,
						"devicewidth" : 0.0,
						"description" : "",
						"digest" : "",
						"tags" : "",
						"style" : "",
						"subpatcher_template" : "",
						"assistshowspatchername" : 0,
						"boxes" : [ 							{
								"box" : 								{
									"id" : "obj-16",
									"maxclass" : "comment",
									"numinlets" : 1,
									"numoutlets" : 0,
									"patching_rect" : [ 118.0, 19.0, 150.0, 20.0 ],
									"presentation" : 1,
									"presentation_rect" : [ 108.0, 14.0, 60.0, 20.0 ],
									"text" : "<< Close"
								}

							}
, 							{
								"box" : 								{
									"id" : "obj-13",
									"linecount" : 10,
									"maxclass" : "comment",
									"numinlets" : 1,
									"numoutlets" : 0,
									"patching_rect" : [ 272.0, 257.0, 241.0, 141.0 ],
									"presentation" : 1,
									"presentation_linecount" : 10,
									"presentation_rect" : [ 3.0, 354.0, 241.0, 141.0 ],
									"text" : "You can send remote OSC formatted data to a send object with OSCToOptron name\n\n/HSv x x x x x : sets all params\nor set an individual param remotely by:\n/H x\n/S x\n/V x\n/LED_start x\n/len x"
								}

							}
, 							{
								"box" : 								{
									"id" : "obj-14",
									"maxclass" : "message",
									"numinlets" : 2,
									"numoutlets" : 1,
									"outlettype" : [ "" ],
									"patching_rect" : [ 158.0, 262.0, 81.0, 22.0 ],
									"presentation" : 1,
									"presentation_rect" : [ 333.0, 400.0, 81.0, 22.0 ],
									"text" : "/HSv /len 127"
								}

							}
, 							{
								"box" : 								{
									"id" : "obj-28",
									"maxclass" : "message",
									"numinlets" : 2,
									"numoutlets" : 1,
									"outlettype" : [ "" ],
									"patching_rect" : [ 130.0, 228.0, 91.0, 22.0 ],
									"presentation" : 1,
									"presentation_rect" : [ 281.0, 368.0, 91.0, 22.0 ],
									"text" : "/HSv 0 0 0 0 30"
								}

							}
, 							{
								"box" : 								{
									"id" : "obj-75",
									"maxclass" : "newobj",
									"numinlets" : 1,
									"numoutlets" : 0,
									"patching_rect" : [ 130.0, 345.0, 109.0, 22.0 ],
									"presentation" : 1,
									"presentation_rect" : [ 281.0, 448.0, 93.0, 22.0 ],
									"text" : "s OSCToOptron"
								}

							}
, 							{
								"box" : 								{
									"fontname" : "Arial",
									"fontsize" : 13.0,
									"id" : "obj-10",
									"linecount" : 3,
									"maxclass" : "comment",
									"numinlets" : 1,
									"numoutlets" : 0,
									"patching_rect" : [ 3.0, 331.0, 63.0, 50.0 ],
									"presentation" : 1,
									"presentation_rect" : [ 3.0, 331.0, 122.0, 21.0 ],
									"text" : "OSC Commands:"
								}

							}
, 							{
								"box" : 								{
									"fontname" : "Arial",
									"fontsize" : 13.0,
									"id" : "obj-8",
									"maxclass" : "comment",
									"numinlets" : 1,
									"numoutlets" : 0,
									"patching_rect" : [ 3.0, 133.0, 594.0, 21.0 ],
									"presentation" : 1,
									"presentation_rect" : [ 3.0, 133.0, 594.0, 21.0 ],
									"text" : "Length (0 - LED last) - Length of LED pattern",
									"textcolor" : [ 0.426667, 0.426525, 0.430668, 1.0 ]
								}

							}
, 							{
								"box" : 								{
									"fontname" : "Arial",
									"fontsize" : 13.0,
									"id" : "obj-6",
									"maxclass" : "comment",
									"numinlets" : 1,
									"numoutlets" : 0,
									"patching_rect" : [ 4.0, 110.0, 594.0, 21.0 ],
									"presentation" : 1,
									"presentation_rect" : [ 3.0, 110.0, 594.0, 21.0 ],
									"text" : "Start (0 - LED last) - LED number from begining of strand to begin lighting up LEDs",
									"textcolor" : [ 0.426667, 0.426525, 0.430668, 1.0 ]
								}

							}
, 							{
								"box" : 								{
									"fontname" : "Arial",
									"fontsize" : 13.0,
									"id" : "obj-5",
									"maxclass" : "comment",
									"numinlets" : 1,
									"numoutlets" : 0,
									"patching_rect" : [ 3.0, 107.0, 594.0, 21.0 ],
									"presentation" : 1,
									"presentation_rect" : [ 3.0, 85.0, 594.0, 21.0 ],
									"text" : "Volume (0 - 255) - Brightness/Fade, 0 = full dark; 255 = full bright",
									"textcolor" : [ 0.426667, 0.426525, 0.430668, 1.0 ]
								}

							}
, 							{
								"box" : 								{
									"fontname" : "Arial",
									"fontsize" : 13.0,
									"id" : "obj-4",
									"maxclass" : "comment",
									"numinlets" : 1,
									"numoutlets" : 0,
									"patching_rect" : [ 3.0, 84.0, 594.0, 21.0 ],
									"presentation" : 1,
									"presentation_rect" : [ 3.0, 62.0, 594.0, 21.0 ],
									"text" : "Saturation (0 - 255) - 0 = white; 255 = full color saturation",
									"textcolor" : [ 0.426667, 0.426525, 0.430668, 1.0 ]
								}

							}
, 							{
								"box" : 								{
									"fontname" : "Arial",
									"fontsize" : 13.0,
									"id" : "obj-3",
									"maxclass" : "comment",
									"numinlets" : 1,
									"numoutlets" : 0,
									"patching_rect" : [ 1.0, 40.0, 63.0, 21.0 ],
									"presentation" : 1,
									"presentation_rect" : [ 3.0, 11.0, 63.0, 21.0 ],
									"text" : "HSV:"
								}

							}
, 							{
								"box" : 								{
									"fontname" : "Arial",
									"fontsize" : 13.0,
									"id" : "obj-2",
									"maxclass" : "comment",
									"numinlets" : 1,
									"numoutlets" : 0,
									"patching_rect" : [ 1.0, 15.0, 594.0, 21.0 ],
									"presentation" : 1,
									"presentation_rect" : [ 3.0, 39.0, 594.0, 21.0 ],
									"text" : "Hue (0 - 255) - Rainbow color index, determines the color",
									"textcolor" : [ 0.426667, 0.426525, 0.430668, 1.0 ]
								}

							}
, 							{
								"box" : 								{
									"fontname" : "Arial",
									"fontsize" : 13.0,
									"id" : "obj-26",
									"linecount" : 7,
									"maxclass" : "comment",
									"numinlets" : 1,
									"numoutlets" : 0,
									"patching_rect" : [ 24.0, 16.0, 594.0, 108.0 ],
									"presentation" : 1,
									"presentation_linecount" : 7,
									"presentation_rect" : [ 3.0, 216.0, 594.0, 108.0 ],
									"text" : "Shift-click: extend the range instead of replacing it. \n\nCommand-click (Mac) / Control-double-click (Win) & drag: shift the current range values up or down.\n\nOption-click (Mac) / Alt-click (Win) & vertical drag: expand or shrink the currently selected range.\n\nCommand-double-click (Mac) / Control-double-click (Win): select the entire range.",
									"textcolor" : [ 0.426667, 0.426525, 0.430668, 1.0 ]
								}

							}
, 							{
								"box" : 								{
									"fontname" : "Arial",
									"fontsize" : 13.0,
									"id" : "obj-27",
									"maxclass" : "comment",
									"numinlets" : 1,
									"numoutlets" : 0,
									"patching_rect" : [ 0.0, 0.0, 63.0, 21.0 ],
									"presentation" : 1,
									"presentation_rect" : [ 3.0, 189.0, 63.0, 21.0 ],
									"text" : "Mousing:"
								}

							}
, 							{
								"box" : 								{
									"fontname" : "Arial",
									"fontsize" : 12.0,
									"hidden" : 1,
									"id" : "obj-11",
									"maxclass" : "message",
									"numinlets" : 2,
									"numoutlets" : 1,
									"outlettype" : [ "" ],
									"patching_rect" : [ 484.5, 82.0, 47.0, 22.0 ],
									"text" : "wclose"
								}

							}
, 							{
								"box" : 								{
									"id" : "obj-9",
									"legacytextcolor" : 1,
									"maxclass" : "textbutton",
									"numinlets" : 1,
									"numoutlets" : 3,
									"outlettype" : [ "", "", "int" ],
									"parameter_enable" : 0,
									"patching_rect" : [ 385.5, 16.0, 54.0, 30.0 ],
									"presentation" : 1,
									"presentation_rect" : [ 81.0, 11.0, 25.0, 26.0 ],
									"text" : "X",
									"usebgoncolor" : 1,
									"usetextovercolor" : 1
								}

							}
, 							{
								"box" : 								{
									"fontname" : "Arial",
									"fontsize" : 12.0,
									"hidden" : 1,
									"id" : "obj-7",
									"maxclass" : "newobj",
									"numinlets" : 1,
									"numoutlets" : 2,
									"outlettype" : [ "", "" ],
									"patching_rect" : [ 480.5, 207.0, 69.0, 22.0 ],
									"save" : [ "#N", "thispatcher", ";", "#Q", "end", ";" ],
									"text" : "thispatcher"
								}

							}
, 							{
								"box" : 								{
									"comment" : "",
									"hidden" : 1,
									"id" : "obj-1",
									"index" : 1,
									"maxclass" : "inlet",
									"numinlets" : 0,
									"numoutlets" : 1,
									"outlettype" : [ "" ],
									"patching_rect" : [ 425.0, 7.0, 25.0, 25.0 ]
								}

							}
 ],
						"lines" : [ 							{
								"patchline" : 								{
									"destination" : [ "obj-7", 0 ],
									"hidden" : 1,
									"source" : [ "obj-11", 0 ]
								}

							}
, 							{
								"patchline" : 								{
									"destination" : [ "obj-75", 0 ],
									"source" : [ "obj-14", 0 ]
								}

							}
, 							{
								"patchline" : 								{
									"destination" : [ "obj-75", 0 ],
									"source" : [ "obj-28", 0 ]
								}

							}
, 							{
								"patchline" : 								{
									"destination" : [ "obj-11", 0 ],
									"hidden" : 1,
									"source" : [ "obj-9", 0 ]
								}

							}
 ],
						"styles" : [ 							{
								"name" : "AudioStatus_Menu",
								"default" : 								{
									"bgfillcolor" : 									{
										"type" : "color",
										"color" : [ 0.294118, 0.313726, 0.337255, 1 ],
										"color1" : [ 0.454902, 0.462745, 0.482353, 0.0 ],
										"color2" : [ 0.290196, 0.309804, 0.301961, 1.0 ],
										"angle" : 270.0,
										"proportion" : 0.39,
										"autogradient" : 0
									}

								}
,
								"parentstyle" : "",
								"multi" : 0
							}
, 							{
								"name" : "ksliderWhite",
								"default" : 								{
									"color" : [ 1.0, 1.0, 1.0, 1.0 ]
								}
,
								"parentstyle" : "",
								"multi" : 0
							}
, 							{
								"name" : "messageBlue",
								"default" : 								{
									"bgfillcolor" : 									{
										"type" : "gradient",
										"color" : [ 0.290196, 0.309804, 0.301961, 1.0 ],
										"color1" : [ 0.317647, 0.654902, 0.976471, 1.0 ],
										"color2" : [ 0.290196, 0.309804, 0.301961, 1.0 ],
										"angle" : 270.0,
										"proportion" : 0.660494,
										"autogradient" : 0
									}

								}
,
								"parentstyle" : "",
								"multi" : 0
							}
, 							{
								"name" : "messageGreen-1",
								"default" : 								{
									"bgfillcolor" : 									{
										"type" : "gradient",
										"color" : [ 0.290196, 0.309804, 0.301961, 1.0 ],
										"color1" : [ 0.165741, 0.364658, 0.14032, 0.74 ],
										"color2" : [ 0.290196, 0.309804, 0.301961, 1.0 ],
										"angle" : 270.0,
										"proportion" : 0.39,
										"autogradient" : 0
									}

								}
,
								"parentstyle" : "",
								"multi" : 0
							}
, 							{
								"name" : "messagegold",
								"default" : 								{
									"bgfillcolor" : 									{
										"type" : "gradient",
										"color" : [ 0.290196, 0.309804, 0.301961, 1.0 ],
										"color1" : [ 0.764706, 0.592157, 0.101961, 0.74 ],
										"color2" : [ 0.290196, 0.309804, 0.301961, 1.0 ],
										"angle" : 270.0,
										"proportion" : 0.39,
										"autogradient" : 0
									}

								}
,
								"parentstyle" : "",
								"multi" : 0
							}
, 							{
								"name" : "newobjBlue-1",
								"default" : 								{
									"accentcolor" : [ 0.317647, 0.654902, 0.976471, 1.0 ]
								}
,
								"parentstyle" : "",
								"multi" : 0
							}
, 							{
								"name" : "newobjBrown-1",
								"default" : 								{
									"accentcolor" : [ 0.654902, 0.572549, 0.376471, 1.0 ]
								}
,
								"parentstyle" : "",
								"multi" : 0
							}
, 							{
								"name" : "newobjCyan-1",
								"default" : 								{
									"accentcolor" : [ 0.029546, 0.773327, 0.821113, 1.0 ]
								}
,
								"parentstyle" : "",
								"multi" : 0
							}
, 							{
								"name" : "newobjGreen-1",
								"default" : 								{
									"accentcolor" : [ 0.0, 0.533333, 0.168627, 1.0 ]
								}
,
								"parentstyle" : "",
								"multi" : 0
							}
, 							{
								"name" : "newobjMagenta-1",
								"default" : 								{
									"accentcolor" : [ 0.840663, 0.060168, 0.769195, 1.0 ]
								}
,
								"parentstyle" : "",
								"multi" : 0
							}
, 							{
								"name" : "newobjRed-1",
								"default" : 								{
									"accentcolor" : [ 0.784314, 0.145098, 0.023529, 1.0 ]
								}
,
								"parentstyle" : "",
								"multi" : 0
							}
, 							{
								"name" : "newobjYellow-1",
								"default" : 								{
									"accentcolor" : [ 0.82517, 0.78181, 0.059545, 1.0 ],
									"fontsize" : [ 12.059008 ]
								}
,
								"parentstyle" : "",
								"multi" : 0
							}
, 							{
								"name" : "numberGold-1",
								"default" : 								{
									"accentcolor" : [ 0.764706, 0.592157, 0.101961, 1.0 ]
								}
,
								"parentstyle" : "",
								"multi" : 0
							}
 ]
					}
,
					"patching_rect" : [ 728.5, 111.0, 43.0, 22.0 ],
					"saved_object_attributes" : 					{
						"description" : "",
						"digest" : "",
						"globalpatchername" : "",
						"tags" : ""
					}
,
					"text" : "p help"
				}

			}
, 			{
				"box" : 				{
					"bubble" : 1,
					"bubbleside" : 3,
					"fontname" : "Arial",
					"fontsize" : 12.0,
					"id" : "obj-10",
					"maxclass" : "comment",
					"numinlets" : 1,
					"numoutlets" : 0,
					"patching_rect" : [ 628.5, 48.0, 100.0, 24.0 ],
					"presentation" : 1,
					"presentation_rect" : [ 111.0, 5.0, 54.0, 24.0 ],
					"text" : "Help"
				}

			}
, 			{
				"box" : 				{
					"id" : "obj-55",
					"maxclass" : "button",
					"numinlets" : 1,
					"numoutlets" : 1,
					"outlettype" : [ "bang" ],
					"parameter_enable" : 0,
					"patching_rect" : [ 728.5, 50.0, 20.0, 20.0 ],
					"presentation" : 1,
					"presentation_rect" : [ 165.0, 7.0, 20.0, 20.0 ]
				}

			}
, 			{
				"box" : 				{
					"id" : "obj-51",
					"maxclass" : "newobj",
					"numinlets" : 2,
					"numoutlets" : 1,
					"outlettype" : [ "int" ],
					"patching_rect" : [ 521.0, 278.0, 29.5, 22.0 ],
					"text" : "+ 0"
				}

			}
, 			{
				"box" : 				{
					"id" : "obj-48",
					"maxclass" : "newobj",
					"numinlets" : 2,
					"numoutlets" : 1,
					"outlettype" : [ "int" ],
					"patching_rect" : [ 532.0, 118.5, 29.5, 22.0 ],
					"text" : "- 1"
				}

			}
, 			{
				"box" : 				{
					"id" : "obj-47",
					"maxclass" : "newobj",
					"numinlets" : 0,
					"numoutlets" : 1,
					"outlettype" : [ "" ],
					"patching_rect" : [ 532.0, 89.300017999999994, 69.0, 22.0 ],
					"text" : "r numLEDs"
				}

			}
, 			{
				"box" : 				{
					"id" : "obj-46",
					"maxclass" : "newobj",
					"numinlets" : 3,
					"numoutlets" : 1,
					"outlettype" : [ "" ],
					"patching_rect" : [ 460.75, 158.099921999999992, 60.0, 22.0 ],
					"text" : "clip 0 169"
				}

			}
, 			{
				"box" : 				{
					"id" : "obj-45",
					"maxclass" : "newobj",
					"numinlets" : 3,
					"numoutlets" : 1,
					"outlettype" : [ "" ],
					"patching_rect" : [ 377.75, 158.099921999999992, 60.0, 22.0 ],
					"text" : "clip 0 169"
				}

			}
, 			{
				"box" : 				{
					"id" : "obj-43",
					"maxclass" : "comment",
					"numinlets" : 1,
					"numoutlets" : 0,
					"patching_rect" : [ 460.75, 75.199965999999989, 61.800049000000001, 20.0 ],
					"text" : "Len"
				}

			}
, 			{
				"box" : 				{
					"comment" : "LED Length",
					"id" : "obj-44",
					"index" : 0,
					"maxclass" : "inlet",
					"numinlets" : 0,
					"numoutlets" : 1,
					"outlettype" : [ "" ],
					"patching_rect" : [ 460.75, 102.300017999999994, 30.0, 30.0 ]
				}

			}
, 			{
				"box" : 				{
					"id" : "obj-42",
					"maxclass" : "comment",
					"numinlets" : 1,
					"numoutlets" : 0,
					"patching_rect" : [ 528.0, 158.099921999999992, 150.0, 20.0 ],
					"text" : "<< Constrain Vals"
				}

			}
, 			{
				"box" : 				{
					"id" : "obj-40",
					"maxclass" : "newobj",
					"numinlets" : 3,
					"numoutlets" : 1,
					"outlettype" : [ "" ],
					"patching_rect" : [ 287.0, 158.099921999999992, 60.0, 22.0 ],
					"text" : "clip 0 255"
				}

			}
, 			{
				"box" : 				{
					"id" : "obj-39",
					"maxclass" : "newobj",
					"numinlets" : 3,
					"numoutlets" : 1,
					"outlettype" : [ "" ],
					"patching_rect" : [ 215.0, 158.099921999999992, 60.0, 22.0 ],
					"text" : "clip 0 255"
				}

			}
, 			{
				"box" : 				{
					"id" : "obj-38",
					"maxclass" : "newobj",
					"numinlets" : 3,
					"numoutlets" : 1,
					"outlettype" : [ "" ],
					"patching_rect" : [ 143.0, 158.099921999999992, 60.0, 22.0 ],
					"text" : "clip 0 255"
				}

			}
, 			{
				"box" : 				{
					"id" : "obj-9",
					"maxclass" : "newobj",
					"numinlets" : 1,
					"numoutlets" : 1,
					"outlettype" : [ "" ],
					"patching_rect" : [ 619.0, 305.0, 77.0, 22.0 ],
					"text" : "prepend size"
				}

			}
, 			{
				"box" : 				{
					"id" : "obj-203",
					"maxclass" : "newobj",
					"numinlets" : 0,
					"numoutlets" : 1,
					"outlettype" : [ "" ],
					"patching_rect" : [ 619.0, 278.0, 69.0, 22.0 ],
					"text" : "r numLEDs"
				}

			}
, 			{
				"box" : 				{
					"id" : "obj-35",
					"maxclass" : "message",
					"numinlets" : 2,
					"numoutlets" : 1,
					"outlettype" : [ "" ],
					"patching_rect" : [ 13.0, 483.5, 88.0, 22.0 ],
					"text" : "0 214 11 30 30"
				}

			}
, 			{
				"box" : 				{
					"id" : "obj-13",
					"maxclass" : "newobj",
					"numinlets" : 2,
					"numoutlets" : 1,
					"outlettype" : [ "int" ],
					"patching_rect" : [ 483.0, 350.0, 29.5, 22.0 ],
					"text" : "!-"
				}

			}
, 			{
				"box" : 				{
					"id" : "obj-32",
					"maxclass" : "message",
					"numinlets" : 2,
					"numoutlets" : 1,
					"outlettype" : [ "" ],
					"patching_rect" : [ 238.0, 538.0, 140.0, 22.0 ],
					"text" : "1 128 254 112 2 41"
				}

			}
, 			{
				"box" : 				{
					"fontname" : "Arial",
					"fontsize" : 13.0,
					"id" : "obj-26",
					"linecount" : 7,
					"maxclass" : "comment",
					"numinlets" : 1,
					"numoutlets" : 0,
					"patching_rect" : [ 521.0, 364.0, 594.0, 108.0 ],
					"text" : "Shift-click: extend the range instead of replacing it. \n\nCommand-click (Mac) / Control-double-click (Win) & drag: shift the current range values up or down.\n\nOption-click (Mac) / Alt-click (Win) & vertical drag: expand or shrink the currently selected range.\n\nCommand-double-click (Mac) / Control-double-click (Win): select the entire range.",
					"textcolor" : [ 0.426667, 0.426525, 0.430668, 1.0 ]
				}

			}
, 			{
				"box" : 				{
					"id" : "obj-24",
					"maxclass" : "comment",
					"numinlets" : 1,
					"numoutlets" : 0,
					"patching_rect" : [ 613.0, 249.0, 180.0, 20.0 ],
					"text" : "convert 0.0 - 1.0 to 255 range"
				}

			}
, 			{
				"box" : 				{
					"id" : "obj-14",
					"maxclass" : "message",
					"numinlets" : 2,
					"numoutlets" : 1,
					"outlettype" : [ "" ],
					"patching_rect" : [ 143.0, 239.0, 81.0, 22.0 ],
					"text" : "/HSv /len 127"
				}

			}
, 			{
				"box" : 				{
					"id" : "obj-21",
					"maxclass" : "newobj",
					"numinlets" : 6,
					"numoutlets" : 1,
					"outlettype" : [ "" ],
					"patching_rect" : [ 139.0, 450.0, 101.0, 22.0 ],
					"text" : "pak 1 0 255 0 0 0"
				}

			}
, 			{
				"box" : 				{
					"id" : "obj-28",
					"maxclass" : "message",
					"numinlets" : 2,
					"numoutlets" : 1,
					"outlettype" : [ "" ],
					"patching_rect" : [ 124.0, 207.0, 91.0, 22.0 ],
					"text" : "/HSv 0 0 0 0 30"
				}

			}
, 			{
				"box" : 				{
					"id" : "obj-30",
					"maxclass" : "newobj",
					"numinlets" : 7,
					"numoutlets" : 7,
					"outlettype" : [ "", "", "", "", "", "", "" ],
					"patching_rect" : [ 10.0, 290.0, 187.0, 22.0 ],
					"text" : "route /EN /H /S /V /LED_start /len"
				}

			}
, 			{
				"box" : 				{
					"id" : "obj-31",
					"maxclass" : "newobj",
					"numinlets" : 2,
					"numoutlets" : 2,
					"outlettype" : [ "", "" ],
					"patching_rect" : [ 10.0, 259.0, 65.0, 22.0 ],
					"text" : "route /HSv"
				}

			}
, 			{
				"box" : 				{
					"id" : "obj-75",
					"maxclass" : "newobj",
					"numinlets" : 0,
					"numoutlets" : 1,
					"outlettype" : [ "" ],
					"patching_rect" : [ 10.0, 222.0, 91.0, 22.0 ],
					"text" : "r OSCToOptron"
				}

			}
, 			{
				"box" : 				{
					"id" : "obj-33",
					"maxclass" : "newobj",
					"numinlets" : 1,
					"numoutlets" : 1,
					"outlettype" : [ "" ],
					"patching_rect" : [ 126.0, 549.0, 79.0, 22.0 ],
					"text" : "prepend HSv"
				}

			}
, 			{
				"box" : 				{
					"id" : "obj-36",
					"maxclass" : "comment",
					"numinlets" : 1,
					"numoutlets" : 0,
					"patching_rect" : [ 143.0, 24.5, 204.0, 20.0 ],
					"text" : "HSv H, S, V, LED_start, len"
				}

			}
, 			{
				"box" : 				{
					"id" : "obj-233",
					"maxclass" : "newobj",
					"numinlets" : 1,
					"numoutlets" : 0,
					"patching_rect" : [ 113.0, 638.0, 65.0, 22.0 ],
					"text" : "s toOptron"
				}

			}
, 			{
				"box" : 				{
					"angle" : 0.0,
					"bgcolor" : [ 0.32549, 0.345098, 0.372549, 0.0 ],
					"border" : 5,
					"bordercolor" : [ 0.32549, 0.345098, 0.372549, 1.0 ],
					"id" : "obj-12",
					"maxclass" : "panel",
					"mode" : 0,
					"numinlets" : 1,
					"numoutlets" : 0,
					"patching_rect" : [ 16.583343999999997, 155.899947999999995, 49.5, 26.399947999999998 ],
					"presentation" : 1,
					"presentation_rect" : [ 2.0, 37.9848365, 197.25, 58.030327 ],
					"proportion" : 0.39,
					"rounded" : 12
				}

			}
, 			{
				"box" : 				{
					"comment" : "Saturation (0 - 255)",
					"id" : "obj-22",
					"index" : 0,
					"maxclass" : "inlet",
					"numinlets" : 0,
					"numoutlets" : 1,
					"outlettype" : [ "" ],
					"patching_rect" : [ 215.0, 102.300017999999994, 30.0, 30.0 ]
				}

			}
, 			{
				"box" : 				{
					"id" : "obj-15",
					"maxclass" : "comment",
					"numinlets" : 1,
					"numoutlets" : 0,
					"patching_rect" : [ 215.0, 75.300017999999994, 64.0, 20.0 ],
					"text" : "Saturation"
				}

			}
, 			{
				"box" : 				{
					"comment" : "Hue (0 - 255)",
					"id" : "obj-2",
					"index" : 0,
					"maxclass" : "inlet",
					"numinlets" : 0,
					"numoutlets" : 1,
					"outlettype" : [ "" ],
					"patching_rect" : [ 143.0, 102.300017999999994, 30.0, 30.0 ]
				}

			}
, 			{
				"box" : 				{
					"id" : "obj-4",
					"maxclass" : "comment",
					"numinlets" : 1,
					"numoutlets" : 0,
					"patching_rect" : [ 143.0, 75.300017999999994, 35.0, 20.0 ],
					"text" : "Hue"
				}

			}
, 			{
				"box" : 				{
					"id" : "obj-20",
					"maxclass" : "comment",
					"numinlets" : 1,
					"numoutlets" : 0,
					"patching_rect" : [ 377.75, 75.199965999999989, 61.800049000000001, 20.0 ],
					"text" : "Start"
				}

			}
, 			{
				"box" : 				{
					"id" : "obj-16",
					"maxclass" : "comment",
					"numinlets" : 1,
					"numoutlets" : 0,
					"patching_rect" : [ 287.0, 75.199965999999989, 60.0, 20.0 ],
					"text" : "Volume"
				}

			}
, 			{
				"box" : 				{
					"comment" : "Brightness (0 - 255)",
					"id" : "obj-11",
					"index" : 0,
					"maxclass" : "inlet",
					"numinlets" : 0,
					"numoutlets" : 1,
					"outlettype" : [ "" ],
					"patching_rect" : [ 287.0, 102.300017999999994, 30.0, 30.0 ]
				}

			}
, 			{
				"box" : 				{
					"comment" : "LED # Start",
					"id" : "obj-3",
					"index" : 0,
					"maxclass" : "inlet",
					"numinlets" : 0,
					"numoutlets" : 1,
					"outlettype" : [ "" ],
					"patching_rect" : [ 377.75, 102.300017999999994, 30.0, 30.0 ]
				}

			}
, 			{
				"box" : 				{
					"angle" : 0.0,
					"bgcolor" : [ 0.32549, 0.345098, 0.372549, 0.0 ],
					"border" : 5,
					"bordercolor" : [ 0.32549, 0.345098, 0.372549, 1.0 ],
					"id" : "obj-8",
					"maxclass" : "panel",
					"mode" : 0,
					"numinlets" : 1,
					"numoutlets" : 0,
					"patching_rect" : [ 16.583344, 93.5, 49.5, 26.399947999999998 ],
					"presentation" : 1,
					"presentation_rect" : [ 6.0, 133.106041000000005, 193.5, 28.893958999999995 ],
					"proportion" : 0.39,
					"rounded" : 12
				}

			}
, 			{
				"box" : 				{
					"angle" : 0.0,
					"bgcolor" : [ 0.32549, 0.345098, 0.372549, 0.0 ],
					"border" : 5,
					"bordercolor" : [ 0.32549, 0.345098, 0.372549, 1.0 ],
					"id" : "obj-7",
					"maxclass" : "panel",
					"mode" : 0,
					"numinlets" : 1,
					"numoutlets" : 0,
					"patching_rect" : [ 16.583344, 124.5, 49.5, 26.399947999999998 ],
					"presentation" : 1,
					"presentation_rect" : [ 2.0, 100.0, 197.5, 30.893958999999995 ],
					"proportion" : 0.39,
					"rounded" : 12
				}

			}
, 			{
				"box" : 				{
					"id" : "obj-6",
					"maxclass" : "message",
					"numinlets" : 2,
					"numoutlets" : 1,
					"outlettype" : [ "" ],
					"patching_rect" : [ 153.0, 672.0, 160.0, 22.0 ],
					"presentation" : 1,
					"presentation_rect" : [ 6.0, 163.0, 190.0, 22.0 ],
					"text" : "HSv 1 128 254 112 2 41"
				}

			}
, 			{
				"box" : 				{
					"id" : "obj-251",
					"maxclass" : "slider",
					"numinlets" : 1,
					"numoutlets" : 1,
					"outlettype" : [ "" ],
					"parameter_enable" : 0,
					"patching_rect" : [ 417.0, 243.0, 190.0, 26.0 ],
					"presentation" : 1,
					"presentation_rect" : [ 6.0, 100.0, 190.0, 26.0 ],
					"size" : 255.0
				}

			}
, 			{
				"box" : 				{
					"id" : "obj-249",
					"maxclass" : "slider",
					"numinlets" : 1,
					"numoutlets" : 1,
					"outlettype" : [ "" ],
					"parameter_enable" : 0,
					"patching_rect" : [ 609.0, 192.0, 14.0, 50.0 ],
					"presentation" : 1,
					"presentation_rect" : [ 212.0, 42.0, 14.0, 115.0 ],
					"size" : 255.0
				}

			}
, 			{
				"box" : 				{
					"bgcolor" : [ 0.2, 0.2, 0.2, 0.0 ],
					"elementcolor" : [ 0.34902, 0.34902, 0.34902, 0.0 ],
					"id" : "obj-248",
					"knobcolor" : [ 0.0, 0.0, 0.0, 0.639216 ],
					"knobshape" : 5,
					"maxclass" : "slider",
					"numinlets" : 1,
					"numoutlets" : 1,
					"outlettype" : [ "" ],
					"parameter_enable" : 0,
					"patching_rect" : [ 416.0, 190.0, 190.0, 50.0 ],
					"presentation" : 1,
					"presentation_rect" : [ 6.0, 42.0, 190.0, 50.0 ],
					"size" : 255.0
				}

			}
, 			{
				"box" : 				{
					"fontname" : "Arial",
					"fontsize" : 13.0,
					"id" : "obj-27",
					"maxclass" : "comment",
					"numinlets" : 1,
					"numoutlets" : 0,
					"patching_rect" : [ 515.0, 345.0, 63.0, 21.0 ],
					"text" : "Mousing:"
				}

			}
, 			{
				"box" : 				{
					"id" : "obj-25",
					"maxclass" : "rslider",
					"numinlets" : 2,
					"numoutlets" : 2,
					"outlettype" : [ "", "" ],
					"parameter_enable" : 0,
					"patching_rect" : [ 417.0, 311.0, 190.0, 23.0 ],
					"presentation" : 1,
					"presentation_rect" : [ 6.0, 134.0, 190.0, 23.0 ],
					"size" : 169.0
				}

			}
, 			{
				"box" : 				{
					"id" : "obj-17",
					"maxclass" : "swatch",
					"numinlets" : 3,
					"numoutlets" : 2,
					"outlettype" : [ "", "float" ],
					"parameter_enable" : 0,
					"patching_rect" : [ 312.75, 255.0, 190.0, 50.0 ],
					"presentation" : 1,
					"presentation_rect" : [ 6.0, 42.0, 190.0, 50.0 ],
					"saturation" : 1.0
				}

			}
, 			{
				"box" : 				{
					"angle" : 0.0,
					"bgcolor" : [ 0.32549, 0.345098, 0.372549, 1.0 ],
					"border" : 2,
					"bordercolor" : [ 0.239216, 0.254902, 0.278431, 0.0 ],
					"id" : "obj-34",
					"maxclass" : "panel",
					"mode" : 0,
					"numinlets" : 1,
					"numoutlets" : 0,
					"patching_rect" : [ 16.583344, 55.900069999999999, 49.5, 26.399947999999998 ],
					"presentation" : 1,
					"presentation_rect" : [ -2.0, -1.0, 239.0, 192.0 ],
					"proportion" : 0.39,
					"varname" : "background"
				}

			}
 ],
		"lines" : [ 			{
				"patchline" : 				{
					"destination" : [ "obj-64", 0 ],
					"source" : [ "obj-1", 0 ]
				}

			}
, 			{
				"patchline" : 				{
					"destination" : [ "obj-40", 0 ],
					"source" : [ "obj-11", 0 ]
				}

			}
, 			{
				"patchline" : 				{
					"destination" : [ "obj-21", 5 ],
					"source" : [ "obj-13", 0 ]
				}

			}
, 			{
				"patchline" : 				{
					"destination" : [ "obj-31", 0 ],
					"source" : [ "obj-14", 0 ]
				}

			}
, 			{
				"patchline" : 				{
					"destination" : [ "obj-249", 0 ],
					"source" : [ "obj-18", 0 ]
				}

			}
, 			{
				"patchline" : 				{
					"destination" : [ "obj-18", 0 ],
					"source" : [ "obj-19", 0 ]
				}

			}
, 			{
				"patchline" : 				{
					"destination" : [ "obj-38", 0 ],
					"source" : [ "obj-2", 0 ]
				}

			}
, 			{
				"patchline" : 				{
					"destination" : [ "obj-9", 0 ],
					"source" : [ "obj-203", 0 ]
				}

			}
, 			{
				"patchline" : 				{
					"destination" : [ "obj-1", 1 ],
					"order" : 1,
					"source" : [ "obj-21", 0 ]
				}

			}
, 			{
				"patchline" : 				{
					"destination" : [ "obj-32", 1 ],
					"order" : 0,
					"source" : [ "obj-21", 0 ]
				}

			}
, 			{
				"patchline" : 				{
					"destination" : [ "obj-39", 0 ],
					"source" : [ "obj-22", 0 ]
				}

			}
, 			{
				"patchline" : 				{
					"destination" : [ "obj-248", 0 ],
					"source" : [ "obj-23", 0 ]
				}

			}
, 			{
				"patchline" : 				{
					"destination" : [ "obj-21", 1 ],
					"order" : 1,
					"source" : [ "obj-248", 0 ]
				}

			}
, 			{
				"patchline" : 				{
					"destination" : [ "obj-23", 1 ],
					"order" : 0,
					"source" : [ "obj-248", 0 ]
				}

			}
, 			{
				"patchline" : 				{
					"destination" : [ "obj-18", 1 ],
					"order" : 0,
					"source" : [ "obj-249", 0 ]
				}

			}
, 			{
				"patchline" : 				{
					"destination" : [ "obj-21", 2 ],
					"order" : 1,
					"source" : [ "obj-249", 0 ]
				}

			}
, 			{
				"patchline" : 				{
					"destination" : [ "obj-13", 1 ],
					"order" : 0,
					"source" : [ "obj-25", 1 ]
				}

			}
, 			{
				"patchline" : 				{
					"destination" : [ "obj-13", 0 ],
					"order" : 0,
					"source" : [ "obj-25", 0 ]
				}

			}
, 			{
				"patchline" : 				{
					"destination" : [ "obj-21", 4 ],
					"order" : 2,
					"source" : [ "obj-25", 0 ]
				}

			}
, 			{
				"patchline" : 				{
					"destination" : [ "obj-58", 1 ],
					"order" : 1,
					"source" : [ "obj-25", 1 ]
				}

			}
, 			{
				"patchline" : 				{
					"destination" : [ "obj-58", 0 ],
					"order" : 1,
					"source" : [ "obj-25", 0 ]
				}

			}
, 			{
				"patchline" : 				{
					"destination" : [ "obj-21", 3 ],
					"order" : 1,
					"source" : [ "obj-251", 0 ]
				}

			}
, 			{
				"patchline" : 				{
					"destination" : [ "obj-41", 1 ],
					"order" : 0,
					"source" : [ "obj-251", 0 ]
				}

			}
, 			{
				"patchline" : 				{
					"destination" : [ "obj-31", 0 ],
					"source" : [ "obj-28", 0 ]
				}

			}
, 			{
				"patchline" : 				{
					"destination" : [ "obj-23", 0 ],
					"source" : [ "obj-29", 0 ]
				}

			}
, 			{
				"patchline" : 				{
					"destination" : [ "obj-45", 0 ],
					"source" : [ "obj-3", 0 ]
				}

			}
, 			{
				"patchline" : 				{
					"destination" : [ "obj-21", 0 ],
					"source" : [ "obj-30", 6 ]
				}

			}
, 			{
				"patchline" : 				{
					"destination" : [ "obj-21", 5 ],
					"source" : [ "obj-30", 5 ]
				}

			}
, 			{
				"patchline" : 				{
					"destination" : [ "obj-21", 4 ],
					"source" : [ "obj-30", 4 ]
				}

			}
, 			{
				"patchline" : 				{
					"destination" : [ "obj-21", 3 ],
					"source" : [ "obj-30", 3 ]
				}

			}
, 			{
				"patchline" : 				{
					"destination" : [ "obj-21", 2 ],
					"source" : [ "obj-30", 2 ]
				}

			}
, 			{
				"patchline" : 				{
					"destination" : [ "obj-21", 1 ],
					"source" : [ "obj-30", 1 ]
				}

			}
, 			{
				"patchline" : 				{
					"destination" : [ "obj-65", 0 ],
					"source" : [ "obj-30", 0 ]
				}

			}
, 			{
				"patchline" : 				{
					"destination" : [ "obj-30", 0 ],
					"source" : [ "obj-31", 0 ]
				}

			}
, 			{
				"patchline" : 				{
					"destination" : [ "obj-6", 1 ],
					"order" : 0,
					"source" : [ "obj-33", 0 ]
				}

			}
, 			{
				"patchline" : 				{
					"destination" : [ "obj-66", 1 ],
					"order" : 1,
					"source" : [ "obj-33", 0 ]
				}

			}
, 			{
				"patchline" : 				{
					"destination" : [ "obj-33", 0 ],
					"source" : [ "obj-35", 0 ]
				}

			}
, 			{
				"patchline" : 				{
					"destination" : [ "obj-41", 0 ],
					"source" : [ "obj-37", 0 ]
				}

			}
, 			{
				"patchline" : 				{
					"destination" : [ "obj-248", 0 ],
					"source" : [ "obj-38", 0 ]
				}

			}
, 			{
				"patchline" : 				{
					"destination" : [ "obj-249", 0 ],
					"source" : [ "obj-39", 0 ]
				}

			}
, 			{
				"patchline" : 				{
					"destination" : [ "obj-251", 0 ],
					"source" : [ "obj-40", 0 ]
				}

			}
, 			{
				"patchline" : 				{
					"destination" : [ "obj-251", 0 ],
					"source" : [ "obj-41", 0 ]
				}

			}
, 			{
				"patchline" : 				{
					"destination" : [ "obj-46", 0 ],
					"source" : [ "obj-44", 0 ]
				}

			}
, 			{
				"patchline" : 				{
					"destination" : [ "obj-25", 0 ],
					"order" : 1,
					"source" : [ "obj-45", 0 ]
				}

			}
, 			{
				"patchline" : 				{
					"destination" : [ "obj-51", 0 ],
					"order" : 0,
					"source" : [ "obj-45", 0 ]
				}

			}
, 			{
				"patchline" : 				{
					"destination" : [ "obj-51", 1 ],
					"source" : [ "obj-46", 0 ]
				}

			}
, 			{
				"patchline" : 				{
					"destination" : [ "obj-48", 0 ],
					"source" : [ "obj-47", 0 ]
				}

			}
, 			{
				"patchline" : 				{
					"destination" : [ "obj-45", 2 ],
					"order" : 1,
					"source" : [ "obj-48", 0 ]
				}

			}
, 			{
				"patchline" : 				{
					"destination" : [ "obj-46", 2 ],
					"order" : 0,
					"source" : [ "obj-48", 0 ]
				}

			}
, 			{
				"patchline" : 				{
					"destination" : [ "obj-50", 0 ],
					"source" : [ "obj-49", 0 ]
				}

			}
, 			{
				"patchline" : 				{
					"destination" : [ "obj-25", 0 ],
					"source" : [ "obj-50", 0 ]
				}

			}
, 			{
				"patchline" : 				{
					"destination" : [ "obj-25", 1 ],
					"source" : [ "obj-51", 0 ]
				}

			}
, 			{
				"patchline" : 				{
					"destination" : [ "obj-53", 0 ],
					"source" : [ "obj-52", 0 ]
				}

			}
, 			{
				"patchline" : 				{
					"destination" : [ "obj-54", 0 ],
					"source" : [ "obj-53", 0 ]
				}

			}
, 			{
				"patchline" : 				{
					"destination" : [ "obj-52", 0 ],
					"source" : [ "obj-55", 0 ]
				}

			}
, 			{
				"patchline" : 				{
					"destination" : [ "obj-63", 0 ],
					"source" : [ "obj-56", 0 ]
				}

			}
, 			{
				"patchline" : 				{
					"destination" : [ "obj-50", 1 ],
					"source" : [ "obj-58", 0 ]
				}

			}
, 			{
				"patchline" : 				{
					"destination" : [ "obj-56", 0 ],
					"source" : [ "obj-59", 0 ]
				}

			}
, 			{
				"patchline" : 				{
					"destination" : [ "obj-63", 0 ],
					"source" : [ "obj-61", 0 ]
				}

			}
, 			{
				"patchline" : 				{
					"destination" : [ "obj-5", 0 ],
					"order" : 1,
					"source" : [ "obj-62", 0 ]
				}

			}
, 			{
				"patchline" : 				{
					"destination" : [ "obj-61", 0 ],
					"order" : 0,
					"source" : [ "obj-62", 0 ]
				}

			}
, 			{
				"patchline" : 				{
					"destination" : [ "obj-61", 1 ],
					"order" : 0,
					"source" : [ "obj-63", 0 ]
				}

			}
, 			{
				"patchline" : 				{
					"destination" : [ "obj-65", 0 ],
					"order" : 1,
					"source" : [ "obj-63", 0 ]
				}

			}
, 			{
				"patchline" : 				{
					"destination" : [ "obj-33", 0 ],
					"source" : [ "obj-64", 0 ]
				}

			}
, 			{
				"patchline" : 				{
					"destination" : [ "obj-1", 0 ],
					"source" : [ "obj-65", 1 ]
				}

			}
, 			{
				"patchline" : 				{
					"destination" : [ "obj-21", 0 ],
					"source" : [ "obj-65", 2 ]
				}

			}
, 			{
				"patchline" : 				{
					"destination" : [ "obj-21", 0 ],
					"source" : [ "obj-65", 0 ]
				}

			}
, 			{
				"patchline" : 				{
					"destination" : [ "obj-233", 0 ],
					"source" : [ "obj-66", 0 ]
				}

			}
, 			{
				"patchline" : 				{
					"destination" : [ "obj-68", 0 ],
					"source" : [ "obj-67", 0 ]
				}

			}
, 			{
				"patchline" : 				{
					"destination" : [ "obj-66", 0 ],
					"source" : [ "obj-68", 0 ]
				}

			}
, 			{
				"patchline" : 				{
					"destination" : [ "obj-31", 0 ],
					"source" : [ "obj-75", 0 ]
				}

			}
, 			{
				"patchline" : 				{
					"destination" : [ "obj-25", 0 ],
					"source" : [ "obj-9", 0 ]
				}

			}
 ],
		"dependency_cache" : [  ],
		"autosave" : 0,
		"styles" : [ 			{
				"name" : "AudioStatus_Menu",
				"default" : 				{
					"bgfillcolor" : 					{
						"type" : "color",
						"color" : [ 0.294118, 0.313726, 0.337255, 1 ],
						"color1" : [ 0.454902, 0.462745, 0.482353, 0.0 ],
						"color2" : [ 0.290196, 0.309804, 0.301961, 1.0 ],
						"angle" : 270.0,
						"proportion" : 0.39,
						"autogradient" : 0
					}

				}
,
				"parentstyle" : "",
				"multi" : 0
			}
, 			{
				"name" : "Audiomix",
				"default" : 				{
					"bgfillcolor" : 					{
						"type" : "gradient",
						"color1" : [ 0.376471, 0.384314, 0.4, 1.0 ],
						"color2" : [ 0.290196, 0.309804, 0.301961, 1.0 ],
						"color" : [ 0.290196, 0.309804, 0.301961, 1.0 ],
						"angle" : 270.0,
						"proportion" : 0.39
					}

				}
,
				"parentstyle" : "",
				"multi" : 0
			}
, 			{
				"name" : "Default M4L",
				"default" : 				{
					"fontsize" : [ 11.0 ],
					"fontname" : [ "Arial Bold" ],
					"patchlinecolor" : [ 0.290196, 0.309804, 0.301961, 0.85 ]
				}
,
				"parentstyle" : "",
				"multi" : 0
			}
, 			{
				"name" : "Default M4L Poletti",
				"default" : 				{
					"fontsize" : [ 10.0 ],
					"fontname" : [ "Arial Bold" ],
					"patchlinecolor" : [ 0.290196, 0.309804, 0.301961, 0.85 ]
				}
,
				"parentstyle" : "",
				"multi" : 0
			}
, 			{
				"name" : "Default M4L-1",
				"default" : 				{
					"fontsize" : [ 11.0 ],
					"fontname" : [ "Arial" ],
					"bgfillcolor" : 					{
						"type" : "gradient",
						"color1" : [ 0.376471, 0.384314, 0.4, 1.0 ],
						"color2" : [ 0.290196, 0.309804, 0.301961, 1.0 ],
						"color" : [ 0.290196, 0.309804, 0.301961, 1.0 ],
						"angle" : 270.0,
						"proportion" : 0.39
					}
,
					"fontface" : [ 1 ]
				}
,
				"parentstyle" : "",
				"multi" : 0
			}
, 			{
				"name" : "Default Max7 Poletti",
				"default" : 				{
					"bgfillcolor" : 					{
						"type" : "gradient",
						"color1" : [ 0.376471, 0.384314, 0.4, 1.0 ],
						"color2" : [ 0.290196, 0.309804, 0.301961, 1.0 ],
						"color" : [ 0.290196, 0.309804, 0.301961, 1.0 ],
						"angle" : 270.0,
						"proportion" : 0.39
					}

				}
,
				"parentstyle" : "",
				"multi" : 0
			}
, 			{
				"name" : "Luca",
				"default" : 				{
					"accentcolor" : [ 0.32549, 0.345098, 0.372549, 1.0 ],
					"elementcolor" : [ 0.786675, 0.801885, 0.845022, 1.0 ],
					"selectioncolor" : [ 0.720698, 0.16723, 0.080014, 1.0 ],
					"fontname" : [ "Open Sans Semibold" ],
					"textcolor_inverse" : [ 0.239216, 0.254902, 0.278431, 1.0 ],
					"bgfillcolor" : 					{
						"type" : "gradient",
						"color" : [ 0.290196, 0.309804, 0.301961, 1.0 ],
						"color1" : [ 0.862745, 0.870588, 0.878431, 1.0 ],
						"color2" : [ 0.65098, 0.666667, 0.662745, 1.0 ],
						"angle" : 270.0,
						"proportion" : 0.39,
						"autogradient" : 0
					}
,
					"color" : [ 0.475135, 0.293895, 0.251069, 1.0 ],
					"bgcolor" : [ 0.904179, 0.895477, 0.842975, 0.56 ]
				}
,
				"parentstyle" : "",
				"multi" : 0
			}
, 			{
				"name" : "M4L 10 Bold",
				"default" : 				{
					"fontsize" : [ 10.0 ],
					"patchlinecolor" : [ 0.0, 0.0, 0.0, 0.25 ],
					"fontface" : [ 1 ]
				}
,
				"parentstyle" : "",
				"multi" : 0
			}
, 			{
				"name" : "M4L10",
				"parentstyle" : "",
				"multi" : 0
			}
, 			{
				"name" : "MP Default",
				"parentstyle" : "",
				"multi" : 0
			}
, 			{
				"name" : "Matt",
				"default" : 				{
					"fontsize" : [ 10.0 ],
					"fontface" : [ 1 ]
				}
,
				"parentstyle" : "",
				"multi" : 0
			}
, 			{
				"name" : "Max 12 Regular",
				"parentstyle" : "",
				"multi" : 0
			}
, 			{
				"name" : "Max 12 Regular-1",
				"default" : 				{
					"bgfillcolor" : 					{
						"type" : "gradient",
						"color1" : [ 0.376471, 0.384314, 0.4, 1.0 ],
						"color2" : [ 0.290196, 0.309804, 0.301961, 1.0 ],
						"color" : [ 0.290196, 0.309804, 0.301961, 1.0 ],
						"angle" : 270.0,
						"proportion" : 0.39
					}

				}
,
				"parentstyle" : "",
				"multi" : 0
			}
, 			{
				"name" : "Max 12 Regular-1-1",
				"parentstyle" : "",
				"multi" : 0
			}
, 			{
				"name" : "Max 12 Regular-1-1-1",
				"default" : 				{
					"bgfillcolor" : 					{
						"type" : "gradient",
						"color1" : [ 0.376471, 0.384314, 0.4, 1.0 ],
						"color2" : [ 0.290196, 0.309804, 0.301961, 1.0 ],
						"color" : [ 0.290196, 0.309804, 0.301961, 1.0 ],
						"angle" : 270.0,
						"proportion" : 0.39
					}

				}
,
				"parentstyle" : "",
				"multi" : 0
			}
, 			{
				"name" : "Max 12 Regular-1-1-1-1",
				"parentstyle" : "",
				"multi" : 0
			}
, 			{
				"name" : "Max 12 Regular-1-1-1-1-1",
				"default" : 				{
					"bgfillcolor" : 					{
						"type" : "gradient",
						"color1" : [ 0.376471, 0.384314, 0.4, 1.0 ],
						"color2" : [ 0.290196, 0.309804, 0.301961, 1.0 ],
						"color" : [ 0.290196, 0.309804, 0.301961, 1.0 ],
						"angle" : 270.0,
						"proportion" : 0.39
					}

				}
,
				"parentstyle" : "",
				"multi" : 0
			}
, 			{
				"name" : "Max 12 Regular-1-1-1-2",
				"default" : 				{
					"bgfillcolor" : 					{
						"type" : "gradient",
						"color1" : [ 0.376471, 0.384314, 0.4, 1.0 ],
						"color2" : [ 0.290196, 0.309804, 0.301961, 1.0 ],
						"color" : [ 0.290196, 0.309804, 0.301961, 1.0 ],
						"angle" : 270.0,
						"proportion" : 0.39
					}

				}
,
				"parentstyle" : "",
				"multi" : 0
			}
, 			{
				"name" : "Max 12 Regular-1-1-2",
				"default" : 				{
					"bgfillcolor" : 					{
						"type" : "gradient",
						"color1" : [ 0.376471, 0.384314, 0.4, 1.0 ],
						"color2" : [ 0.290196, 0.309804, 0.301961, 1.0 ],
						"color" : [ 0.290196, 0.309804, 0.301961, 1.0 ],
						"angle" : 270.0,
						"proportion" : 0.39
					}

				}
,
				"parentstyle" : "",
				"multi" : 0
			}
, 			{
				"name" : "Max 12 Regular-1-1-3",
				"default" : 				{
					"bgfillcolor" : 					{
						"type" : "gradient",
						"color1" : [ 0.376471, 0.384314, 0.4, 1.0 ],
						"color2" : [ 0.290196, 0.309804, 0.301961, 1.0 ],
						"color" : [ 0.290196, 0.309804, 0.301961, 1.0 ],
						"angle" : 270.0,
						"proportion" : 0.39
					}

				}
,
				"parentstyle" : "",
				"multi" : 0
			}
, 			{
				"name" : "Max 12 Regular-1-1-4",
				"parentstyle" : "",
				"multi" : 0
			}
, 			{
				"name" : "Max 12 Regular-1-2",
				"default" : 				{
					"bgfillcolor" : 					{
						"type" : "gradient",
						"color1" : [ 0.376471, 0.384314, 0.4, 1.0 ],
						"color2" : [ 0.290196, 0.309804, 0.301961, 1.0 ],
						"color" : [ 0.290196, 0.309804, 0.301961, 1.0 ],
						"angle" : 270.0,
						"proportion" : 0.39
					}

				}
,
				"parentstyle" : "",
				"multi" : 0
			}
, 			{
				"name" : "Max 12 Regular-1-2-1",
				"parentstyle" : "",
				"multi" : 0
			}
, 			{
				"name" : "Max 12 Regular-1-2-2",
				"parentstyle" : "",
				"multi" : 0
			}
, 			{
				"name" : "Max 12 Regular-1-3",
				"parentstyle" : "",
				"multi" : 0
			}
, 			{
				"name" : "Max 12 Regular-1-4",
				"default" : 				{
					"bgfillcolor" : 					{
						"type" : "gradient",
						"color1" : [ 0.376471, 0.384314, 0.4, 1.0 ],
						"color2" : [ 0.290196, 0.309804, 0.301961, 1.0 ],
						"color" : [ 0.290196, 0.309804, 0.301961, 1.0 ],
						"angle" : 270.0,
						"proportion" : 0.39
					}

				}
,
				"parentstyle" : "",
				"multi" : 0
			}
, 			{
				"name" : "Max 12 Regular-2",
				"default" : 				{
					"bgfillcolor" : 					{
						"type" : "gradient",
						"color1" : [ 0.376471, 0.384314, 0.4, 1.0 ],
						"color2" : [ 0.290196, 0.309804, 0.301961, 1.0 ],
						"color" : [ 0.290196, 0.309804, 0.301961, 1.0 ],
						"angle" : 270.0,
						"proportion" : 0.39
					}

				}
,
				"parentstyle" : "",
				"multi" : 0
			}
, 			{
				"name" : "Max 12 Regular-3",
				"default" : 				{
					"bgfillcolor" : 					{
						"type" : "gradient",
						"color1" : [ 0.376471, 0.384314, 0.4, 1.0 ],
						"color2" : [ 0.290196, 0.309804, 0.301961, 1.0 ],
						"color" : [ 0.290196, 0.309804, 0.301961, 1.0 ],
						"angle" : 270.0,
						"proportion" : 0.39
					}

				}
,
				"parentstyle" : "",
				"multi" : 0
			}
, 			{
				"name" : "Max 12 Regular-4",
				"parentstyle" : "",
				"multi" : 0
			}
, 			{
				"name" : "Max 12 Regular-4-1",
				"default" : 				{
					"bgfillcolor" : 					{
						"type" : "gradient",
						"color1" : [ 0.376471, 0.384314, 0.4, 1.0 ],
						"color2" : [ 0.290196, 0.309804, 0.301961, 1.0 ],
						"color" : [ 0.290196, 0.309804, 0.301961, 1.0 ],
						"angle" : 270.0,
						"proportion" : 0.39
					}

				}
,
				"parentstyle" : "",
				"multi" : 0
			}
, 			{
				"name" : "Max 12 Regular-4-2",
				"default" : 				{
					"bgfillcolor" : 					{
						"type" : "gradient",
						"color1" : [ 0.376471, 0.384314, 0.4, 1.0 ],
						"color2" : [ 0.290196, 0.309804, 0.301961, 1.0 ],
						"color" : [ 0.290196, 0.309804, 0.301961, 1.0 ],
						"angle" : 270.0,
						"proportion" : 0.39
					}

				}
,
				"parentstyle" : "",
				"multi" : 0
			}
, 			{
				"name" : "Max 12 Regular-5",
				"default" : 				{
					"bgfillcolor" : 					{
						"type" : "gradient",
						"color1" : [ 0.376471, 0.384314, 0.4, 1.0 ],
						"color2" : [ 0.290196, 0.309804, 0.301961, 1.0 ],
						"color" : [ 0.290196, 0.309804, 0.301961, 1.0 ],
						"angle" : 270.0,
						"proportion" : 0.39
					}

				}
,
				"parentstyle" : "",
				"multi" : 0
			}
, 			{
				"name" : "Max 12 Regular-6",
				"parentstyle" : "",
				"multi" : 0
			}
, 			{
				"name" : "Max For Live",
				"default" : 				{
					"patchlinecolor" : [ 0.290196, 0.290196, 0.290196, 0.74 ]
				}
,
				"parentstyle" : "",
				"multi" : 0
			}
, 			{
				"name" : "WTF",
				"default" : 				{
					"accentcolor" : [ 0.50764, 0.065317, 0.112129, 1.0 ],
					"fontsize" : [ 18.0 ],
					"elementcolor" : [ 0.461105, 0.492646, 0.591878, 1.0 ],
					"fontname" : [ "HydrogenType" ],
					"patchlinecolor" : [ 0.231373, 0.121569, 0.305882, 0.9 ],
					"bgfillcolor" : 					{
						"type" : "gradient",
						"color" : [ 0.290196, 0.309804, 0.301961, 1.0 ],
						"color1" : [ 0.32549, 0.345098, 0.372549, 1.0 ],
						"color2" : [ 0.290196, 0.309804, 0.301961, 1.0 ],
						"angle" : 270.0,
						"proportion" : 0.39,
						"autogradient" : 0
					}
,
					"color" : [ 0.113725, 0.580392, 0.737255, 1.0 ],
					"bgcolor" : [ 0.163647, 0.174699, 0.17409, 1.0 ]
				}
,
				"parentstyle" : "",
				"multi" : 0
			}
, 			{
				"name" : "classic",
				"default" : 				{
					"accentcolor" : [ 0.498039, 0.498039, 0.498039, 1.0 ],
					"fontsize" : [ 9.0 ],
					"fontname" : [ "Geneva" ],
					"textcolor_inverse" : [ 0.0, 0.0, 0.0, 1.0 ],
					"patchlinecolor" : [ 0.0, 0.0, 0.0, 1.0 ],
					"bgfillcolor" : 					{
						"type" : "color",
						"color1" : [ 0.83978, 0.839941, 0.839753, 1.0 ],
						"color2" : [ 0.290196, 0.309804, 0.301961, 1.0 ],
						"color" : [ 0.839216, 0.839216, 0.839216, 1.0 ],
						"angle" : 270.0,
						"proportion" : 0.39
					}
,
					"color" : [ 0.498039, 0.498039, 0.498039, 1.0 ],
					"bgcolor" : [ 0.83978, 0.839941, 0.839753, 1.0 ]
				}
,
				"parentstyle" : "",
				"multi" : 0
			}
, 			{
				"name" : "classicButton",
				"default" : 				{
					"color" : [ 1.0, 0.890196, 0.090196, 1.0 ]
				}
,
				"parentstyle" : "",
				"multi" : 0
			}
, 			{
				"name" : "classicDial",
				"default" : 				{
					"color" : [ 1.0, 0.890196, 0.090196, 1.0 ]
				}
,
				"parentstyle" : "",
				"multi" : 0
			}
, 			{
				"name" : "classicGain~",
				"default" : 				{
					"color" : [ 0.380392, 0.380392, 0.380392, 1.0 ]
				}
,
				"parentstyle" : "",
				"multi" : 0
			}
, 			{
				"name" : "classicGswitch",
				"default" : 				{
					"accentcolor" : [ 1.0, 1.0, 1.0, 1.0 ]
				}
,
				"parentstyle" : "",
				"multi" : 0
			}
, 			{
				"name" : "classicGswitch2",
				"default" : 				{
					"accentcolor" : [ 1.0, 1.0, 1.0, 1.0 ]
				}
,
				"parentstyle" : "",
				"multi" : 0
			}
, 			{
				"name" : "classicKslider",
				"default" : 				{
					"elementcolor" : [ 0.498039, 0.498039, 0.498039, 1.0 ],
					"selectioncolor" : [ 0.498039, 0.498039, 0.498039, 1.0 ],
					"color" : [ 1.0, 1.0, 1.0, 1.0 ],
					"bgcolor" : [ 0.0, 0.0, 0.0, 1.0 ]
				}
,
				"parentstyle" : "",
				"multi" : 0
			}
, 			{
				"name" : "classicLed",
				"default" : 				{
					"elementcolor" : [ 0.6, 0.0, 0.0, 1.0 ],
					"color" : [ 1.0, 0.0, 0.0, 1.0 ]
				}
,
				"parentstyle" : "",
				"multi" : 0
			}
, 			{
				"name" : "classicMatrixctrl",
				"default" : 				{
					"color" : [ 1.0, 0.0, 0.0, 1.0 ]
				}
,
				"parentstyle" : "",
				"multi" : 0
			}
, 			{
				"name" : "classicMeter~",
				"default" : 				{
					"elementcolor" : [ 0.498039, 0.498039, 0.498039, 1.0 ],
					"bgcolor" : [ 0.380392, 0.380392, 0.380392, 1.0 ]
				}
,
				"parentstyle" : "",
				"multi" : 0
			}
, 			{
				"name" : "classicNodes",
				"default" : 				{
					"fontsize" : [ 9.0 ],
					"elementcolor" : [ 0.498039, 0.498039, 0.498039, 1.0 ],
					"color" : [ 0.839216, 0.839216, 0.839216, 1.0 ]
				}
,
				"parentstyle" : "",
				"multi" : 0
			}
, 			{
				"name" : "classicNslider",
				"default" : 				{
					"color" : [ 0.0, 0.0, 0.0, 1.0 ]
				}
,
				"parentstyle" : "",
				"multi" : 0
			}
, 			{
				"name" : "classicNumber",
				"default" : 				{
					"selectioncolor" : [ 1.0, 0.890196, 0.0, 1.0 ]
				}
,
				"parentstyle" : "",
				"multi" : 0
			}
, 			{
				"name" : "classicPictslider",
				"default" : 				{
					"elementcolor" : [ 0.498039, 0.498039, 0.498039, 1.0 ]
				}
,
				"parentstyle" : "",
				"multi" : 0
			}
, 			{
				"name" : "classicPreset",
				"default" : 				{
					"color" : [ 1.0, 0.890196, 0.090196, 1.0 ]
				}
,
				"parentstyle" : "",
				"multi" : 0
			}
, 			{
				"name" : "classicScope~",
				"default" : 				{
					"color" : [ 0.462745, 0.933333, 0.0, 1.0 ],
					"bgcolor" : [ 0.498039, 0.498039, 0.498039, 1.0 ]
				}
,
				"parentstyle" : "",
				"multi" : 0
			}
, 			{
				"name" : "classicTab",
				"default" : 				{
					"elementcolor" : [ 0.839216, 0.839216, 0.839216, 1.0 ],
					"color" : [ 0.498039, 0.498039, 0.498039, 1.0 ]
				}
,
				"parentstyle" : "",
				"multi" : 0
			}
, 			{
				"name" : "classicTextbutton",
				"default" : 				{
					"accentcolor" : [ 0.0, 0.0, 0.0, 1.0 ],
					"color" : [ 1.0, 1.0, 1.0, 1.0 ]
				}
,
				"parentstyle" : "",
				"multi" : 0
			}
, 			{
				"name" : "classicToggle",
				"default" : 				{
					"elementcolor" : [ 0.376471, 0.384314, 0.4, 0.0 ],
					"color" : [ 0.380392, 0.380392, 0.380392, 1.0 ]
				}
,
				"parentstyle" : "",
				"multi" : 0
			}
, 			{
				"name" : "classicUmenu",
				"default" : 				{
					"color" : [ 1.0, 1.0, 1.0, 1.0 ]
				}
,
				"parentstyle" : "",
				"multi" : 0
			}
, 			{
				"name" : "classicWaveform~",
				"default" : 				{
					"selectioncolor" : [ 0.498039, 0.498039, 0.498039, 0.5 ],
					"color" : [ 0.380392, 0.380392, 0.380392, 1.0 ]
				}
,
				"parentstyle" : "",
				"multi" : 0
			}
, 			{
				"name" : "dark-night-patch",
				"default" : 				{
					"accentcolor" : [ 0.952941, 0.564706, 0.098039, 1.0 ],
					"patchlinecolor" : [ 0.439216, 0.74902, 0.254902, 0.898039 ],
					"bgfillcolor" : 					{
						"type" : "gradient",
						"color1" : [ 0.376471, 0.384314, 0.4, 1.0 ],
						"color2" : [ 0.290196, 0.309804, 0.301961, 1.0 ],
						"color" : [ 0.290196, 0.309804, 0.301961, 1.0 ],
						"angle" : 270.0,
						"proportion" : 0.39
					}
,
					"textcolor" : [ 0.862745, 0.870588, 0.878431, 1.0 ]
				}
,
				"parentstyle" : "",
				"multi" : 0
			}
, 			{
				"name" : "jpatcher001",
				"parentstyle" : "",
				"multi" : 0
			}
, 			{
				"name" : "jpatcher002",
				"default" : 				{
					"fontsize" : [ 9.5 ],
					"clearcolor" : [ 0.32549, 0.345098, 0.372549, 0.0 ],
					"fontname" : [ "Ableton Sans Book" ],
					"patchlinecolor" : [ 0.65098, 0.65098, 0.65098, 0.0 ],
					"bgfillcolor" : 					{
						"type" : "color",
						"color1" : [ 0.32549, 0.345098, 0.372549, 0.0 ],
						"color2" : [ 0.290196, 0.309804, 0.301961, 1.0 ],
						"color" : [ 0.290196, 0.309804, 0.301961, 1.0 ],
						"angle" : 270.0,
						"proportion" : 0.39
					}

				}
,
				"parentstyle" : "",
				"multi" : 0
			}
, 			{
				"name" : "jpink",
				"default" : 				{
					"accentcolor" : [ 0.619608, 0.0, 0.360784, 1.0 ],
					"elementcolor" : [ 0.619608, 0.0, 0.360784, 1.0 ],
					"clearcolor" : [ 0.113725, 0.607843, 0.607843, 1.0 ],
					"selectioncolor" : [ 0.619608, 0.0, 0.360784, 1.0 ],
					"patchlinecolor" : [ 0.65, 0.65, 0.65, 1.0 ],
					"bgfillcolor" : 					{
						"type" : "color",
						"color" : [ 0.619608, 0.0, 0.360784, 1.0 ],
						"color1" : [ 0.376471, 0.384314, 0.4, 1.0 ],
						"color2" : [ 0.290196, 0.309804, 0.301961, 1.0 ],
						"angle" : 270.0,
						"proportion" : 0.39,
						"autogradient" : 0
					}
,
					"textcolor" : [ 0.619608, 0.0, 0.360784, 1.0 ],
					"color" : [ 0.619608, 0.0, 0.360784, 1.0 ],
					"bgcolor" : [ 0.862745, 0.870588, 0.878431, 1.0 ]
				}
,
				"parentstyle" : "",
				"multi" : 0
			}
, 			{
				"name" : "ksliderWhite",
				"default" : 				{
					"color" : [ 1.0, 1.0, 1.0, 1.0 ]
				}
,
				"parentstyle" : "",
				"multi" : 0
			}
, 			{
				"name" : "lightbutton",
				"default" : 				{
					"elementcolor" : [ 0.654902, 0.572549, 0.376471, 1.0 ],
					"bgcolor" : [ 0.309495, 0.299387, 0.299789, 1.0 ]
				}
,
				"parentstyle" : "",
				"multi" : 0
			}
, 			{
				"name" : "messageBlue",
				"default" : 				{
					"bgfillcolor" : 					{
						"type" : "gradient",
						"color" : [ 0.290196, 0.309804, 0.301961, 1.0 ],
						"color1" : [ 0.317647, 0.654902, 0.976471, 1.0 ],
						"color2" : [ 0.290196, 0.309804, 0.301961, 1.0 ],
						"angle" : 270.0,
						"proportion" : 0.660494,
						"autogradient" : 0
					}

				}
,
				"parentstyle" : "",
				"multi" : 0
			}
, 			{
				"name" : "messageGreen-1",
				"default" : 				{
					"bgfillcolor" : 					{
						"type" : "gradient",
						"color" : [ 0.290196, 0.309804, 0.301961, 1.0 ],
						"color1" : [ 0.165741, 0.364658, 0.14032, 0.74 ],
						"color2" : [ 0.290196, 0.309804, 0.301961, 1.0 ],
						"angle" : 270.0,
						"proportion" : 0.39,
						"autogradient" : 0
					}

				}
,
				"parentstyle" : "",
				"multi" : 0
			}
, 			{
				"name" : "messagegold",
				"default" : 				{
					"bgfillcolor" : 					{
						"type" : "gradient",
						"color" : [ 0.290196, 0.309804, 0.301961, 1.0 ],
						"color1" : [ 0.764706, 0.592157, 0.101961, 0.74 ],
						"color2" : [ 0.290196, 0.309804, 0.301961, 1.0 ],
						"angle" : 270.0,
						"proportion" : 0.39,
						"autogradient" : 0
					}

				}
,
				"parentstyle" : "",
				"multi" : 0
			}
, 			{
				"name" : "newobjBlue-1",
				"default" : 				{
					"accentcolor" : [ 0.317647, 0.654902, 0.976471, 1.0 ]
				}
,
				"parentstyle" : "",
				"multi" : 0
			}
, 			{
				"name" : "newobjBrown-1",
				"default" : 				{
					"accentcolor" : [ 0.654902, 0.572549, 0.376471, 1.0 ]
				}
,
				"parentstyle" : "",
				"multi" : 0
			}
, 			{
				"name" : "newobjCyan-1",
				"default" : 				{
					"accentcolor" : [ 0.029546, 0.773327, 0.821113, 1.0 ]
				}
,
				"parentstyle" : "",
				"multi" : 0
			}
, 			{
				"name" : "newobjGreen-1",
				"default" : 				{
					"accentcolor" : [ 0.0, 0.533333, 0.168627, 1.0 ]
				}
,
				"parentstyle" : "",
				"multi" : 0
			}
, 			{
				"name" : "newobjMagenta-1",
				"default" : 				{
					"accentcolor" : [ 0.840663, 0.060168, 0.769195, 1.0 ]
				}
,
				"parentstyle" : "",
				"multi" : 0
			}
, 			{
				"name" : "newobjRed-1",
				"default" : 				{
					"accentcolor" : [ 0.784314, 0.145098, 0.023529, 1.0 ]
				}
,
				"parentstyle" : "",
				"multi" : 0
			}
, 			{
				"name" : "newobjYellow-1",
				"default" : 				{
					"accentcolor" : [ 0.82517, 0.78181, 0.059545, 1.0 ],
					"fontsize" : [ 12.059008 ]
				}
,
				"parentstyle" : "",
				"multi" : 0
			}
, 			{
				"name" : "newobjYellow-2",
				"default" : 				{
					"accentcolor" : [ 0.82517, 0.78181, 0.059545, 1.0 ],
					"fontsize" : [ 12.059008 ]
				}
,
				"parentstyle" : "",
				"multi" : 0
			}
, 			{
				"name" : "numberGold-1",
				"default" : 				{
					"accentcolor" : [ 0.764706, 0.592157, 0.101961, 1.0 ]
				}
,
				"parentstyle" : "",
				"multi" : 0
			}
, 			{
				"name" : "purple",
				"default" : 				{
					"textcolor_inverse" : [ 0.701961, 0.415686, 0.886275, 1.0 ],
					"bgcolor" : [ 0.304029, 0.250694, 0.285628, 1.0 ]
				}
,
				"parentstyle" : "",
				"multi" : 0
			}
, 			{
				"name" : "receives",
				"default" : 				{
					"accentcolor" : [ 0.870588, 0.415686, 0.062745, 1.0 ]
				}
,
				"parentstyle" : "",
				"multi" : 0
			}
, 			{
				"name" : "rsliderGold",
				"default" : 				{
					"color" : [ 0.646639, 0.821777, 0.854593, 1.0 ],
					"bgcolor" : [ 0.764706, 0.592157, 0.101961, 1.0 ]
				}
,
				"parentstyle" : "",
				"multi" : 0
			}
, 			{
				"name" : "sends",
				"default" : 				{
					"accentcolor" : [ 0.0, 0.533333, 0.168627, 1.0 ]
				}
,
				"parentstyle" : "",
				"multi" : 0
			}
, 			{
				"name" : "stb001",
				"default" : 				{
					"fontsize" : [ 10.0 ],
					"fontname" : [ "Arial Bold" ],
					"fontface" : [ 1 ]
				}
,
				"parentstyle" : "",
				"multi" : 0
			}
, 			{
				"name" : "tap",
				"default" : 				{
					"fontname" : [ "Lato Light" ]
				}
,
				"parentstyle" : "",
				"multi" : 0
			}
, 			{
				"name" : "tastefulltoggle",
				"default" : 				{
					"color" : [ 0.941176, 0.690196, 0.196078, 1.0 ],
					"bgcolor" : [ 0.185512, 0.263736, 0.260626, 1.0 ]
				}
,
				"parentstyle" : "",
				"multi" : 0
			}
, 			{
				"name" : "tastefultoggle",
				"default" : 				{
					"elementcolor" : [ 0.654902, 0.572549, 0.376471, 1.0 ],
					"color" : [ 0.941176, 0.690196, 0.196078, 1.0 ],
					"bgcolor" : [ 0.287863, 0.333333, 0.329398, 1.0 ]
				}
,
				"parentstyle" : "",
				"multi" : 0
			}
, 			{
				"name" : "test",
				"default" : 				{
					"fontsize" : [ 10.0 ],
					"fontface" : [ 1 ]
				}
,
				"parentstyle" : "",
				"multi" : 0
			}
, 			{
				"name" : "whitey",
				"default" : 				{
					"fontsize" : [ 36.0 ],
					"selectioncolor" : [ 0.011765, 0.396078, 0.752941, 1.0 ],
					"fontname" : [ "Dirty Ego" ],
					"textcolor_inverse" : [ 0.65098, 0.666667, 0.662745, 1.0 ],
					"patchlinecolor" : [ 0.199068, 0.062496, 0.060031, 0.9 ]
				}
,
				"parentstyle" : "",
				"multi" : 0
			}
 ]
	}

}
