{
	"patcher" : 	{
		"fileversion" : 1,
		"rect" : [ 93.0, 44.0, 514.0, 496.0 ],
		"bglocked" : 0,
		"defrect" : [ 93.0, 44.0, 514.0, 496.0 ],
		"openrect" : [ 0.0, 0.0, 0.0, 0.0 ],
		"openinpresentation" : 0,
		"default_fontsize" : 12.0,
		"default_fontface" : 0,
		"default_fontname" : "Arial",
		"gridonopen" : 0,
		"gridsize" : [ 15.0, 15.0 ],
		"gridsnaponopen" : 0,
		"toolbarvisible" : 1,
		"boxanimatetime" : 200,
		"imprint" : 0,
		"enablehscroll" : 1,
		"enablevscroll" : 1,
		"devicewidth" : 0.0,
		"boxes" : [ 			{
				"box" : 				{
					"maxclass" : "button",
					"outlettype" : [ "bang" ],
					"patching_rect" : [ 60.0, 300.0, 20.0, 20.0 ],
					"id" : "obj-43",
					"numinlets" : 1,
					"numoutlets" : 1
				}

			}
, 			{
				"box" : 				{
					"maxclass" : "number",
					"outlettype" : [ "int", "bang" ],
					"patching_rect" : [ 60.0, 255.0, 50.0, 20.0 ],
					"id" : "obj-39",
					"fontname" : "Arial",
					"fontsize" : 12.0,
					"numinlets" : 1,
					"numoutlets" : 2
				}

			}
, 			{
				"box" : 				{
					"maxclass" : "number",
					"outlettype" : [ "int", "bang" ],
					"patching_rect" : [ 270.0, 315.0, 50.0, 20.0 ],
					"id" : "obj-37",
					"fontname" : "Arial",
					"fontsize" : 12.0,
					"numinlets" : 1,
					"numoutlets" : 2
				}

			}
, 			{
				"box" : 				{
					"maxclass" : "number",
					"outlettype" : [ "int", "bang" ],
					"patching_rect" : [ 60.0, 195.0, 50.0, 20.0 ],
					"id" : "obj-35",
					"fontname" : "Arial",
					"fontsize" : 12.0,
					"numinlets" : 1,
					"numoutlets" : 2
				}

			}
, 			{
				"box" : 				{
					"maxclass" : "button",
					"outlettype" : [ "bang" ],
					"patching_rect" : [ 300.0, 210.0, 20.0, 20.0 ],
					"id" : "obj-33",
					"numinlets" : 1,
					"numoutlets" : 1
				}

			}
, 			{
				"box" : 				{
					"maxclass" : "comment",
					"text" : "You can control the same semaphore with multiple instances of the object!",
					"linecount" : 3,
					"patching_rect" : [ 315.0, 195.0, 150.0, 48.0 ],
					"id" : "obj-31",
					"fontname" : "Arial",
					"fontsize" : 12.0,
					"numinlets" : 1,
					"numoutlets" : 0
				}

			}
, 			{
				"box" : 				{
					"maxclass" : "newobj",
					"text" : "sadam.mutex foo 1",
					"outlettype" : [ "" ],
					"patching_rect" : [ 300.0, 240.0, 113.0, 20.0 ],
					"id" : "obj-29",
					"fontname" : "Arial",
					"fontsize" : 12.0,
					"numinlets" : 1,
					"numoutlets" : 1
				}

			}
, 			{
				"box" : 				{
					"maxclass" : "comment",
					"text" : "Filtered data",
					"patching_rect" : [ 285.0, 300.0, 77.0, 20.0 ],
					"id" : "obj-28",
					"fontname" : "Arial",
					"fontsize" : 12.0,
					"numinlets" : 1,
					"numoutlets" : 0
				}

			}
, 			{
				"box" : 				{
					"maxclass" : "comment",
					"text" : "Bang when the system is ready for new incoming messages",
					"patching_rect" : [ 75.0, 405.0, 329.0, 20.0 ],
					"id" : "obj-25",
					"fontname" : "Arial",
					"fontsize" : 12.0,
					"numinlets" : 1,
					"numoutlets" : 0
				}

			}
, 			{
				"box" : 				{
					"maxclass" : "comment",
					"text" : "Some operation needing a long time to execute",
					"linecount" : 3,
					"patching_rect" : [ 120.0, 300.0, 97.0, 48.0 ],
					"id" : "obj-24",
					"fontname" : "Arial",
					"fontsize" : 12.0,
					"numinlets" : 1,
					"numoutlets" : 0
				}

			}
, 			{
				"box" : 				{
					"maxclass" : "comment",
					"text" : "Messages triggering operation",
					"patching_rect" : [ 105.0, 255.0, 172.0, 20.0 ],
					"id" : "obj-23",
					"fontname" : "Arial",
					"fontsize" : 12.0,
					"numinlets" : 1,
					"numoutlets" : 0
				}

			}
, 			{
				"box" : 				{
					"maxclass" : "comment",
					"text" : "Source",
					"patching_rect" : [ 105.0, 195.0, 49.0, 20.0 ],
					"id" : "obj-22",
					"fontname" : "Arial",
					"fontsize" : 12.0,
					"numinlets" : 1,
					"numoutlets" : 0
				}

			}
, 			{
				"box" : 				{
					"maxclass" : "button",
					"outlettype" : [ "bang" ],
					"patching_rect" : [ 60.0, 405.0, 20.0, 20.0 ],
					"id" : "obj-20",
					"numinlets" : 1,
					"numoutlets" : 1
				}

			}
, 			{
				"box" : 				{
					"maxclass" : "newobj",
					"text" : "del 5000",
					"outlettype" : [ "bang" ],
					"patching_rect" : [ 60.0, 330.0, 57.0, 20.0 ],
					"id" : "obj-17",
					"fontname" : "Arial",
					"fontsize" : 12.0,
					"numinlets" : 2,
					"numoutlets" : 1
				}

			}
, 			{
				"box" : 				{
					"maxclass" : "newobj",
					"text" : "sadam.mutex foo",
					"outlettype" : [ "", "" ],
					"patching_rect" : [ 60.0, 225.0, 103.0, 20.0 ],
					"id" : "obj-3",
					"fontname" : "Arial",
					"fontsize" : 12.0,
					"numinlets" : 1,
					"numoutlets" : 2
				}

			}
, 			{
				"box" : 				{
					"maxclass" : "newobj",
					"text" : "sadam.mutex foo 1",
					"outlettype" : [ "" ],
					"patching_rect" : [ 60.0, 375.0, 113.0, 20.0 ],
					"id" : "obj-1",
					"fontname" : "Arial",
					"fontsize" : 12.0,
					"numinlets" : 1,
					"numoutlets" : 1
				}

			}
, 			{
				"box" : 				{
					"maxclass" : "newobj",
					"text" : "autohelp",
					"patching_rect" : [ 300.0, 435.0, 57.0, 20.0 ],
					"id" : "obj-19",
					"fontname" : "Arial",
					"hidden" : 1,
					"fontsize" : 12.0,
					"numinlets" : 1,
					"numoutlets" : 0
				}

			}
, 			{
				"box" : 				{
					"maxclass" : "umenu",
					"varname" : "autohelp_see_menu",
					"outlettype" : [ "int", "", "" ],
					"patching_rect" : [ 305.0, 459.0, 130.0, 20.0 ],
					"id" : "obj-10",
					"fontname" : "Arial",
					"types" : [  ],
					"fontsize" : 11.595187,
					"numinlets" : 1,
					"items" : [ "(Objects:)", ",", "gate", ",", "onebang", ",", "<separator>" ],
					"numoutlets" : 3
				}

			}
, 			{
				"box" : 				{
					"maxclass" : "comment",
					"varname" : "autohelp_see_title",
					"text" : "See Also:",
					"patching_rect" : [ 305.0, 439.0, 100.0, 20.0 ],
					"id" : "obj-9",
					"fontname" : "Arial",
					"fontface" : 1,
					"fontsize" : 11.595187,
					"numinlets" : 1,
					"numoutlets" : 0
				}

			}
, 			{
				"box" : 				{
					"maxclass" : "comment",
					"varname" : "autohelp_top_description",
					"text" : "sadam.mutex will help you managing the access of shared resources in your patch using semaphores. A semaphore can be locked and released, and while locked, it will prevent messages from passing through. Each semaphore must have an unique name, and instances of sadam.mutex with the same name will access the same semaphore. Each mutex has two modes, they can be either locker or releaser instances to the same semaphore. A locker object will test for each incoming message whether the semaphore is locked and if not, it will lock the semaphore and pass the message to the appropriate outlet. Releaser objects will release the semaphore each time a message arrives to their inlet.",
					"linecount" : 8,
					"patching_rect" : [ 10.0, 57.0, 497.0, 113.0 ],
					"id" : "obj-8",
					"fontname" : "Arial",
					"fontsize" : 11.595187,
					"numinlets" : 1,
					"numoutlets" : 0
				}

			}
, 			{
				"box" : 				{
					"maxclass" : "comment",
					"varname" : "autohelp_top_digest",
					"text" : "Mutual exclusion (semaphore) object.",
					"patching_rect" : [ 10.0, 36.0, 485.0, 21.0 ],
					"id" : "obj-11",
					"fontname" : "Arial",
					"textcolor" : [ 0.93, 0.93, 0.97, 1.0 ],
					"frgb" : [ 0.93, 0.93, 0.97, 1.0 ],
					"fontsize" : 12.754705,
					"numinlets" : 1,
					"numoutlets" : 0
				}

			}
, 			{
				"box" : 				{
					"maxclass" : "comment",
					"varname" : "autohelp_top_title",
					"text" : "sadam.mutex",
					"patching_rect" : [ 10.0, 8.0, 485.0, 30.0 ],
					"id" : "obj-12",
					"fontname" : "Arial",
					"textcolor" : [ 0.93, 0.93, 0.97, 1.0 ],
					"fontface" : 3,
					"frgb" : [ 0.93, 0.93, 0.97, 1.0 ],
					"fontsize" : 20.871338,
					"numinlets" : 1,
					"numoutlets" : 0
				}

			}
, 			{
				"box" : 				{
					"maxclass" : "textbutton",
					"varname" : "autohelp_top_ref",
					"outlettype" : [ "", "", "int" ],
					"patching_rect" : [ 315.489563, 22.0, 184.510437, 14.666666 ],
					"spacing_y" : 0.0,
					"textoncolor" : [ 0.27, 0.35, 0.47, 1.0 ],
					"id" : "obj-14",
					"fontname" : "Arial",
					"fontlink" : 1,
					"textovercolor" : [ 0.4, 0.5, 0.65, 1.0 ],
					"bordercolor" : [ 0.0, 0.0, 0.0, 0.0 ],
					"underline" : 1,
					"textcolor" : [ 0.296, 0.38, 0.506, 1.0 ],
					"bgcolor" : [ 0.0, 0.0, 0.0, 0.0 ],
					"bgovercolor" : [ 0.0, 0.0, 0.0, 0.0 ],
					"fontface" : 3,
					"fontsize" : 12.754705,
					"numinlets" : 1,
					"bgoveroncolor" : [ 0.0, 0.0, 0.0, 0.0 ],
					"presentation_rect" : [ 15.0, 15.0, 184.510437, 14.666666 ],
					"text" : "open sadam.mutex reference",
					"numoutlets" : 3,
					"spacing_x" : 0.0,
					"bgoncolor" : [ 0.0, 0.0, 0.0, 0.0 ]
				}

			}
, 			{
				"box" : 				{
					"maxclass" : "panel",
					"patching_rect" : [ 45.0, 285.0, 180.0, 75.0 ],
					"id" : "obj-26",
					"rounded" : 15,
					"numinlets" : 1,
					"numoutlets" : 0
				}

			}
, 			{
				"box" : 				{
					"maxclass" : "panel",
					"varname" : "autohelp_top_panel",
					"patching_rect" : [ 5.0, 5.0, 495.0, 52.0 ],
					"id" : "obj-15",
					"grad1" : [ 0.27, 0.35, 0.47, 1.0 ],
					"mode" : 1,
					"numinlets" : 1,
					"grad2" : [ 0.85, 0.85, 0.85, 1.0 ],
					"numoutlets" : 0,
					"background" : 1
				}

			}
, 			{
				"box" : 				{
					"maxclass" : "panel",
					"varname" : "autohelp_see_panel",
					"patching_rect" : [ 300.0, 435.0, 140.0, 50.0 ],
					"id" : "obj-16",
					"bordercolor" : [ 0.5, 0.5, 0.5, 0.75 ],
					"bgcolor" : [ 0.85, 0.85, 0.85, 0.75 ],
					"numinlets" : 1,
					"border" : 2,
					"numoutlets" : 0,
					"background" : 1
				}

			}
 ],
		"lines" : [ 			{
				"patchline" : 				{
					"source" : [ "obj-1", 0 ],
					"destination" : [ "obj-20", 0 ],
					"hidden" : 0,
					"midpoints" : [  ]
				}

			}
, 			{
				"patchline" : 				{
					"source" : [ "obj-33", 0 ],
					"destination" : [ "obj-29", 0 ],
					"hidden" : 0,
					"midpoints" : [  ]
				}

			}
, 			{
				"patchline" : 				{
					"source" : [ "obj-35", 0 ],
					"destination" : [ "obj-3", 0 ],
					"hidden" : 0,
					"midpoints" : [  ]
				}

			}
, 			{
				"patchline" : 				{
					"source" : [ "obj-3", 1 ],
					"destination" : [ "obj-37", 0 ],
					"hidden" : 0,
					"midpoints" : [ 153.5, 249.5, 279.5, 249.5 ]
				}

			}
, 			{
				"patchline" : 				{
					"source" : [ "obj-3", 0 ],
					"destination" : [ "obj-39", 0 ],
					"hidden" : 0,
					"midpoints" : [  ]
				}

			}
, 			{
				"patchline" : 				{
					"source" : [ "obj-39", 0 ],
					"destination" : [ "obj-43", 0 ],
					"hidden" : 0,
					"midpoints" : [  ]
				}

			}
, 			{
				"patchline" : 				{
					"source" : [ "obj-43", 0 ],
					"destination" : [ "obj-17", 0 ],
					"hidden" : 0,
					"midpoints" : [  ]
				}

			}
, 			{
				"patchline" : 				{
					"source" : [ "obj-17", 0 ],
					"destination" : [ "obj-1", 0 ],
					"hidden" : 0,
					"midpoints" : [  ]
				}

			}
 ]
	}

}
