{
	"patcher" : 	{
		"fileversion" : 1,
		"appversion" : 		{
			"major" : 5,
			"minor" : 1,
			"revision" : 9
		}
,
		"rect" : [ 93.0, 44.0, 508.0, 651.0 ],
		"bglocked" : 0,
		"defrect" : [ 93.0, 44.0, 508.0, 651.0 ],
		"openrect" : [ 0.0, 0.0, 0.0, 0.0 ],
		"openinpresentation" : 0,
		"default_fontsize" : 12.0,
		"default_fontface" : 0,
		"default_fontname" : "Arial",
		"gridonopen" : 0,
		"gridsize" : [ 15.0, 15.0 ],
		"gridsnaponopen" : 0,
		"toolbarvisible" : 1,
		"boxanimatetime" : 200,
		"imprint" : 0,
		"enablehscroll" : 1,
		"enablevscroll" : 1,
		"devicewidth" : 0.0,
		"boxes" : [ 			{
				"box" : 				{
					"maxclass" : "newobj",
					"text" : "p \"Broadcast & Multicast\"",
					"id" : "obj-21",
					"fontname" : "Arial",
					"patching_rect" : [ 345.0, 555.0, 145.0, 20.0 ],
					"numinlets" : 0,
					"numoutlets" : 0,
					"fontsize" : 12.0,
					"patcher" : 					{
						"fileversion" : 1,
						"appversion" : 						{
							"major" : 5,
							"minor" : 1,
							"revision" : 9
						}
,
						"rect" : [ 601.0, 344.0, 624.0, 345.0 ],
						"bglocked" : 0,
						"defrect" : [ 601.0, 344.0, 624.0, 345.0 ],
						"openrect" : [ 0.0, 0.0, 0.0, 0.0 ],
						"openinpresentation" : 0,
						"default_fontsize" : 12.0,
						"default_fontface" : 0,
						"default_fontname" : "Arial",
						"gridonopen" : 0,
						"gridsize" : [ 15.0, 15.0 ],
						"gridsnaponopen" : 0,
						"toolbarvisible" : 1,
						"boxanimatetime" : 200,
						"imprint" : 0,
						"enablehscroll" : 1,
						"enablevscroll" : 1,
						"devicewidth" : 0.0,
						"boxes" : [ 							{
								"box" : 								{
									"maxclass" : "newobj",
									"text" : "p Multicast",
									"id" : "obj-34",
									"fontname" : "Arial",
									"patching_rect" : [ 285.0, 120.0, 68.0, 20.0 ],
									"numinlets" : 0,
									"numoutlets" : 0,
									"fontsize" : 12.0,
									"patcher" : 									{
										"fileversion" : 1,
										"appversion" : 										{
											"major" : 5,
											"minor" : 1,
											"revision" : 9
										}
,
										"rect" : [ 92.0, 44.0, 554.0, 597.0 ],
										"bglocked" : 0,
										"defrect" : [ 92.0, 44.0, 554.0, 597.0 ],
										"openrect" : [ 0.0, 0.0, 0.0, 0.0 ],
										"openinpresentation" : 0,
										"default_fontsize" : 12.0,
										"default_fontface" : 0,
										"default_fontname" : "Arial",
										"gridonopen" : 0,
										"gridsize" : [ 15.0, 15.0 ],
										"gridsnaponopen" : 0,
										"toolbarvisible" : 1,
										"boxanimatetime" : 200,
										"imprint" : 0,
										"enablehscroll" : 1,
										"enablevscroll" : 1,
										"devicewidth" : 0.0,
										"boxes" : [ 											{
												"box" : 												{
													"maxclass" : "newobj",
													"text" : "loadbang",
													"outlettype" : [ "bang" ],
													"id" : "obj-23",
													"fontname" : "Arial",
													"patching_rect" : [ 30.0, 360.0, 60.0, 20.0 ],
													"numinlets" : 1,
													"hidden" : 1,
													"numoutlets" : 1,
													"fontsize" : 12.0
												}

											}
, 											{
												"box" : 												{
													"maxclass" : "comment",
													"text" : "Note that the message is arriving from the IP address of your computer instead of 'localhost' (which is 127.0.0.1). This proves that the message has travelled through your local router!",
													"linecount" : 3,
													"id" : "obj-33",
													"fontname" : "Arial",
													"patching_rect" : [ 195.0, 510.0, 348.0, 48.0 ],
													"numinlets" : 1,
													"numoutlets" : 0,
													"fontsize" : 12.0
												}

											}
, 											{
												"box" : 												{
													"maxclass" : "comment",
													"text" : "Listen to both senders simultaneously.",
													"id" : "obj-32",
													"fontname" : "Arial",
													"patching_rect" : [ 225.0, 450.0, 214.0, 20.0 ],
													"numinlets" : 1,
													"numoutlets" : 0,
													"fontsize" : 12.0
												}

											}
, 											{
												"box" : 												{
													"maxclass" : "comment",
													"text" : "Listen only to the sender on the right.",
													"id" : "obj-31",
													"fontname" : "Arial",
													"patching_rect" : [ 135.0, 420.0, 208.0, 20.0 ],
													"numinlets" : 1,
													"numoutlets" : 0,
													"fontsize" : 12.0
												}

											}
, 											{
												"box" : 												{
													"maxclass" : "comment",
													"text" : "Listen only to the sender on the left.",
													"id" : "obj-30",
													"fontname" : "Arial",
													"patching_rect" : [ 135.0, 390.0, 201.0, 20.0 ],
													"numinlets" : 1,
													"numoutlets" : 0,
													"fontsize" : 12.0
												}

											}
, 											{
												"box" : 												{
													"maxclass" : "message",
													"text" : "group $1",
													"outlettype" : [ "" ],
													"id" : "obj-28",
													"fontname" : "Arial",
													"patching_rect" : [ 30.0, 480.0, 58.0, 18.0 ],
													"numinlets" : 2,
													"numoutlets" : 1,
													"fontsize" : 12.0
												}

											}
, 											{
												"box" : 												{
													"maxclass" : "newobj",
													"text" : "loadmess 1",
													"outlettype" : [ "" ],
													"id" : "obj-25",
													"fontname" : "Arial",
													"patching_rect" : [ 105.0, 225.0, 72.0, 20.0 ],
													"numinlets" : 1,
													"hidden" : 1,
													"numoutlets" : 1,
													"fontsize" : 12.0
												}

											}
, 											{
												"box" : 												{
													"maxclass" : "comment",
													"text" : "These senders send messages on two different UDP multicast groups.",
													"id" : "obj-24",
													"fontname" : "Arial",
													"patching_rect" : [ 84.5, 335.0, 385.0, 20.0 ],
													"numinlets" : 1,
													"numoutlets" : 0,
													"fontsize" : 12.0
												}

											}
, 											{
												"box" : 												{
													"maxclass" : "comment",
													"text" : "Multicasting allows to set the loopback bit and Time-To-Live (TTL) of the messages. The former has different meaning on Mac/Unix and Windows -- on the Mac, the option applies to the send path, whereas on Windows, to the receive path. The latter defines the maximum number of routers a package may travel before being dropped. If this setting is too low, packages might not arrive to the destination (specially if they are far from each other); if it is too high, packages may flood the network.",
													"linecount" : 6,
													"id" : "obj-22",
													"fontname" : "Arial",
													"patching_rect" : [ 15.0, 135.0, 523.0, 89.0 ],
													"numinlets" : 1,
													"numoutlets" : 0,
													"fontsize" : 12.0
												}

											}
, 											{
												"box" : 												{
													"maxclass" : "comment",
													"text" : "Multicast addresses are assigned to by IANA, however, the range 239.0.0.0-239.255.255.255 (also called 'Organization-Local Scope') may be freely used for custom multicast addresses. Of course, your network administrator or ISP may block outgoing messages from these groups.",
													"linecount" : 3,
													"id" : "obj-19",
													"fontname" : "Arial",
													"patching_rect" : [ 15.0, 75.0, 523.0, 48.0 ],
													"numinlets" : 1,
													"numoutlets" : 0,
													"fontsize" : 12.0
												}

											}
, 											{
												"box" : 												{
													"maxclass" : "comment",
													"text" : "To multicast a message on a subnetwork, you just need to send it to a proper multicast address. However, in order to receive the messages, the receiver needs to 'subscribe' to the messages arriving from that address. Note that multicast addresses are usually referred to as 'groups'.",
													"linecount" : 3,
													"id" : "obj-21",
													"fontname" : "Arial",
													"patching_rect" : [ 15.0, 15.0, 523.0, 48.0 ],
													"numinlets" : 1,
													"numoutlets" : 0,
													"fontsize" : 12.0
												}

											}
, 											{
												"box" : 												{
													"maxclass" : "message",
													"text" : "\"239.255.0.55 239.255.55.0\"",
													"outlettype" : [ "" ],
													"id" : "obj-18",
													"fontname" : "Arial",
													"patching_rect" : [ 60.0, 450.0, 162.0, 18.0 ],
													"numinlets" : 2,
													"numoutlets" : 1,
													"fontsize" : 12.0
												}

											}
, 											{
												"box" : 												{
													"maxclass" : "message",
													"text" : "239.255.55.0",
													"outlettype" : [ "" ],
													"id" : "obj-16",
													"fontname" : "Arial",
													"patching_rect" : [ 45.0, 420.0, 81.0, 18.0 ],
													"numinlets" : 2,
													"numoutlets" : 1,
													"fontsize" : 12.0
												}

											}
, 											{
												"box" : 												{
													"maxclass" : "toggle",
													"outlettype" : [ "int" ],
													"id" : "obj-2",
													"patching_rect" : [ 345.0, 255.0, 20.0, 20.0 ],
													"numinlets" : 1,
													"numoutlets" : 1
												}

											}
, 											{
												"box" : 												{
													"maxclass" : "message",
													"text" : "loopback $1",
													"outlettype" : [ "" ],
													"id" : "obj-4",
													"fontname" : "Arial",
													"patching_rect" : [ 345.0, 285.0, 75.0, 18.0 ],
													"numinlets" : 2,
													"numoutlets" : 1,
													"fontsize" : 12.0
												}

											}
, 											{
												"box" : 												{
													"maxclass" : "message",
													"text" : "ttl $1",
													"outlettype" : [ "" ],
													"id" : "obj-11",
													"fontname" : "Arial",
													"patching_rect" : [ 435.0, 285.0, 37.0, 18.0 ],
													"numinlets" : 2,
													"numoutlets" : 1,
													"fontsize" : 12.0
												}

											}
, 											{
												"box" : 												{
													"maxclass" : "number",
													"outlettype" : [ "int", "bang" ],
													"minimum" : 0,
													"id" : "obj-12",
													"maximum" : 255,
													"fontname" : "Arial",
													"patching_rect" : [ 435.0, 255.0, 40.0, 20.0 ],
													"numinlets" : 1,
													"numoutlets" : 2,
													"fontsize" : 12.0
												}

											}
, 											{
												"box" : 												{
													"maxclass" : "number",
													"outlettype" : [ "int", "bang" ],
													"minimum" : 0,
													"id" : "obj-14",
													"maximum" : 255,
													"fontname" : "Arial",
													"patching_rect" : [ 285.0, 255.0, 40.0, 20.0 ],
													"numinlets" : 1,
													"numoutlets" : 2,
													"fontsize" : 12.0
												}

											}
, 											{
												"box" : 												{
													"maxclass" : "newobj",
													"text" : "sadam.udpSender 239.255.55.0 44444",
													"outlettype" : [ "int" ],
													"id" : "obj-15",
													"fontname" : "Arial",
													"patching_rect" : [ 285.0, 315.0, 219.0, 20.0 ],
													"numinlets" : 1,
													"numoutlets" : 1,
													"fontsize" : 12.0
												}

											}
, 											{
												"box" : 												{
													"maxclass" : "message",
													"text" : "239.255.0.55",
													"outlettype" : [ "" ],
													"id" : "obj-10",
													"fontname" : "Arial",
													"patching_rect" : [ 30.0, 390.0, 81.0, 18.0 ],
													"numinlets" : 2,
													"numoutlets" : 1,
													"fontsize" : 12.0
												}

											}
, 											{
												"box" : 												{
													"maxclass" : "toggle",
													"outlettype" : [ "int" ],
													"id" : "obj-5",
													"patching_rect" : [ 105.0, 255.0, 20.0, 20.0 ],
													"numinlets" : 1,
													"numoutlets" : 1
												}

											}
, 											{
												"box" : 												{
													"maxclass" : "message",
													"text" : "loopback $1",
													"outlettype" : [ "" ],
													"id" : "obj-6",
													"fontname" : "Arial",
													"patching_rect" : [ 105.0, 285.0, 75.0, 18.0 ],
													"numinlets" : 2,
													"numoutlets" : 1,
													"fontsize" : 12.0
												}

											}
, 											{
												"box" : 												{
													"maxclass" : "message",
													"text" : "ttl $1",
													"outlettype" : [ "" ],
													"id" : "obj-3",
													"fontname" : "Arial",
													"patching_rect" : [ 195.0, 285.0, 37.0, 18.0 ],
													"numinlets" : 2,
													"numoutlets" : 1,
													"fontsize" : 12.0
												}

											}
, 											{
												"box" : 												{
													"maxclass" : "number",
													"outlettype" : [ "int", "bang" ],
													"minimum" : 0,
													"id" : "obj-1",
													"maximum" : 255,
													"fontname" : "Arial",
													"patching_rect" : [ 195.0, 255.0, 40.0, 20.0 ],
													"numinlets" : 1,
													"numoutlets" : 2,
													"fontsize" : 12.0
												}

											}
, 											{
												"box" : 												{
													"maxclass" : "number",
													"outlettype" : [ "int", "bang" ],
													"minimum" : 0,
													"id" : "obj-13",
													"maximum" : 255,
													"fontname" : "Arial",
													"patching_rect" : [ 45.0, 255.0, 40.0, 20.0 ],
													"numinlets" : 1,
													"numoutlets" : 2,
													"fontsize" : 12.0
												}

											}
, 											{
												"box" : 												{
													"maxclass" : "newobj",
													"text" : "print \"Error code\"",
													"id" : "obj-27",
													"fontname" : "Arial",
													"patching_rect" : [ 270.0, 570.0, 102.0, 20.0 ],
													"numinlets" : 1,
													"numoutlets" : 0,
													"fontsize" : 12.0
												}

											}
, 											{
												"box" : 												{
													"maxclass" : "newobj",
													"text" : "print \"Sender IP & port\"",
													"id" : "obj-20",
													"fontname" : "Arial",
													"patching_rect" : [ 120.0, 570.0, 134.0, 20.0 ],
													"numinlets" : 1,
													"numoutlets" : 0,
													"fontsize" : 12.0
												}

											}
, 											{
												"box" : 												{
													"maxclass" : "newobj",
													"text" : "route 0",
													"outlettype" : [ "", "" ],
													"id" : "obj-17",
													"fontname" : "Arial",
													"patching_rect" : [ 120.0, 540.0, 48.0, 20.0 ],
													"numinlets" : 1,
													"numoutlets" : 2,
													"fontsize" : 12.0
												}

											}
, 											{
												"box" : 												{
													"maxclass" : "newobj",
													"text" : "print received",
													"id" : "obj-9",
													"fontname" : "Arial",
													"patching_rect" : [ 30.0, 540.0, 83.0, 20.0 ],
													"numinlets" : 1,
													"numoutlets" : 0,
													"fontsize" : 12.0
												}

											}
, 											{
												"box" : 												{
													"maxclass" : "newobj",
													"text" : "sadam.udpReceiver 44444",
													"outlettype" : [ "list", "int" ],
													"id" : "obj-8",
													"fontname" : "Arial",
													"patching_rect" : [ 30.0, 510.0, 154.0, 20.0 ],
													"numinlets" : 1,
													"numoutlets" : 2,
													"fontsize" : 12.0
												}

											}
, 											{
												"box" : 												{
													"maxclass" : "newobj",
													"text" : "sadam.udpSender 239.255.0.55 44444",
													"outlettype" : [ "int" ],
													"id" : "obj-7",
													"fontname" : "Arial",
													"patching_rect" : [ 45.0, 315.0, 219.0, 20.0 ],
													"numinlets" : 1,
													"numoutlets" : 1,
													"fontsize" : 12.0
												}

											}
 ],
										"lines" : [ 											{
												"patchline" : 												{
													"source" : [ "obj-8", 0 ],
													"destination" : [ "obj-9", 0 ],
													"hidden" : 0,
													"midpoints" : [  ]
												}

											}
, 											{
												"patchline" : 												{
													"source" : [ "obj-8", 1 ],
													"destination" : [ "obj-17", 0 ],
													"hidden" : 0,
													"midpoints" : [ 174.5, 534.5, 129.5, 534.5 ]
												}

											}
, 											{
												"patchline" : 												{
													"source" : [ "obj-6", 0 ],
													"destination" : [ "obj-7", 0 ],
													"hidden" : 0,
													"midpoints" : [ 114.5, 308.5, 54.5, 308.5 ]
												}

											}
, 											{
												"patchline" : 												{
													"source" : [ "obj-5", 0 ],
													"destination" : [ "obj-6", 0 ],
													"hidden" : 0,
													"midpoints" : [  ]
												}

											}
, 											{
												"patchline" : 												{
													"source" : [ "obj-4", 0 ],
													"destination" : [ "obj-15", 0 ],
													"hidden" : 0,
													"midpoints" : [ 354.5, 308.5, 294.5, 308.5 ]
												}

											}
, 											{
												"patchline" : 												{
													"source" : [ "obj-3", 0 ],
													"destination" : [ "obj-7", 0 ],
													"hidden" : 0,
													"midpoints" : [ 204.5, 308.5, 54.5, 308.5 ]
												}

											}
, 											{
												"patchline" : 												{
													"source" : [ "obj-28", 0 ],
													"destination" : [ "obj-8", 0 ],
													"hidden" : 0,
													"midpoints" : [  ]
												}

											}
, 											{
												"patchline" : 												{
													"source" : [ "obj-25", 0 ],
													"destination" : [ "obj-5", 0 ],
													"hidden" : 1,
													"midpoints" : [  ]
												}

											}
, 											{
												"patchline" : 												{
													"source" : [ "obj-25", 0 ],
													"destination" : [ "obj-2", 0 ],
													"hidden" : 1,
													"midpoints" : [ 114.5, 249.5, 354.5, 249.5 ]
												}

											}
, 											{
												"patchline" : 												{
													"source" : [ "obj-25", 0 ],
													"destination" : [ "obj-12", 0 ],
													"hidden" : 1,
													"midpoints" : [ 114.5, 249.5, 444.5, 249.5 ]
												}

											}
, 											{
												"patchline" : 												{
													"source" : [ "obj-25", 0 ],
													"destination" : [ "obj-1", 0 ],
													"hidden" : 1,
													"midpoints" : [ 114.5, 249.5, 204.5, 249.5 ]
												}

											}
, 											{
												"patchline" : 												{
													"source" : [ "obj-23", 0 ],
													"destination" : [ "obj-10", 0 ],
													"hidden" : 1,
													"midpoints" : [  ]
												}

											}
, 											{
												"patchline" : 												{
													"source" : [ "obj-2", 0 ],
													"destination" : [ "obj-4", 0 ],
													"hidden" : 0,
													"midpoints" : [  ]
												}

											}
, 											{
												"patchline" : 												{
													"source" : [ "obj-18", 0 ],
													"destination" : [ "obj-28", 0 ],
													"hidden" : 0,
													"midpoints" : [ 69.5, 473.5, 39.5, 473.5 ]
												}

											}
, 											{
												"patchline" : 												{
													"source" : [ "obj-17", 1 ],
													"destination" : [ "obj-27", 0 ],
													"hidden" : 0,
													"midpoints" : [ 158.5, 564.5, 279.5, 564.5 ]
												}

											}
, 											{
												"patchline" : 												{
													"source" : [ "obj-17", 0 ],
													"destination" : [ "obj-20", 0 ],
													"hidden" : 0,
													"midpoints" : [  ]
												}

											}
, 											{
												"patchline" : 												{
													"source" : [ "obj-16", 0 ],
													"destination" : [ "obj-28", 0 ],
													"hidden" : 0,
													"midpoints" : [ 54.5, 458.5, 39.5, 458.5 ]
												}

											}
, 											{
												"patchline" : 												{
													"source" : [ "obj-14", 0 ],
													"destination" : [ "obj-15", 0 ],
													"hidden" : 0,
													"midpoints" : [  ]
												}

											}
, 											{
												"patchline" : 												{
													"source" : [ "obj-13", 0 ],
													"destination" : [ "obj-7", 0 ],
													"hidden" : 0,
													"midpoints" : [  ]
												}

											}
, 											{
												"patchline" : 												{
													"source" : [ "obj-12", 0 ],
													"destination" : [ "obj-11", 0 ],
													"hidden" : 0,
													"midpoints" : [  ]
												}

											}
, 											{
												"patchline" : 												{
													"source" : [ "obj-11", 0 ],
													"destination" : [ "obj-15", 0 ],
													"hidden" : 0,
													"midpoints" : [ 444.5, 308.5, 294.5, 308.5 ]
												}

											}
, 											{
												"patchline" : 												{
													"source" : [ "obj-10", 0 ],
													"destination" : [ "obj-28", 0 ],
													"hidden" : 0,
													"midpoints" : [  ]
												}

											}
, 											{
												"patchline" : 												{
													"source" : [ "obj-1", 0 ],
													"destination" : [ "obj-3", 0 ],
													"hidden" : 0,
													"midpoints" : [  ]
												}

											}
 ]
									}
,
									"saved_object_attributes" : 									{
										"default_fontsize" : 12.0,
										"fontname" : "Arial",
										"default_fontface" : 0,
										"globalpatchername" : "",
										"default_fontname" : "Arial",
										"fontface" : 0,
										"fontsize" : 12.0
									}

								}

							}
, 							{
								"box" : 								{
									"maxclass" : "newobj",
									"text" : "p Broadcast",
									"id" : "obj-33",
									"fontname" : "Arial",
									"patching_rect" : [ 285.0, 255.0, 75.0, 20.0 ],
									"numinlets" : 0,
									"numoutlets" : 0,
									"fontsize" : 12.0,
									"patcher" : 									{
										"fileversion" : 1,
										"appversion" : 										{
											"major" : 5,
											"minor" : 1,
											"revision" : 9
										}
,
										"rect" : [ 92.0, 44.0, 533.0, 335.0 ],
										"bglocked" : 0,
										"defrect" : [ 92.0, 44.0, 533.0, 335.0 ],
										"openrect" : [ 0.0, 0.0, 0.0, 0.0 ],
										"openinpresentation" : 0,
										"default_fontsize" : 12.0,
										"default_fontface" : 0,
										"default_fontname" : "Arial",
										"gridonopen" : 0,
										"gridsize" : [ 15.0, 15.0 ],
										"gridsnaponopen" : 0,
										"toolbarvisible" : 1,
										"boxanimatetime" : 200,
										"imprint" : 0,
										"enablehscroll" : 1,
										"enablevscroll" : 1,
										"devicewidth" : 0.0,
										"boxes" : [ 											{
												"box" : 												{
													"maxclass" : "comment",
													"text" : "Note that the message is arriving from the IP address of your computer instead of 'localhost' (which is 127.0.0.1). This proves that the message has travelled through your local router!",
													"linecount" : 3,
													"id" : "obj-10",
													"fontname" : "Arial",
													"patching_rect" : [ 180.0, 240.0, 348.0, 48.0 ],
													"numinlets" : 1,
													"numoutlets" : 0,
													"fontsize" : 12.0
												}

											}
, 											{
												"box" : 												{
													"maxclass" : "comment",
													"text" : "With this example, you can send integers on port 55555 to all of the machines on your local network.",
													"linecount" : 2,
													"id" : "obj-5",
													"fontname" : "Arial",
													"patching_rect" : [ 150.0, 158.5, 282.0, 34.0 ],
													"numinlets" : 1,
													"numoutlets" : 0,
													"fontsize" : 12.0
												}

											}
, 											{
												"box" : 												{
													"maxclass" : "comment",
													"text" : "There are several broadcast addresses, depending on your destination subnetwork - your local network, the network of the venue hosting your local netowrk, the ISP of the venue, the whole Internet etc. However, for security and performance reasons, [sadam.udpSender] will only send broadcast messages to the local network. The broadcast address of any local network is, by definition, 255.255.255.255",
													"linecount" : 5,
													"id" : "obj-3",
													"fontname" : "Arial",
													"patching_rect" : [ 15.0, 45.0, 501.0, 75.0 ],
													"numinlets" : 1,
													"numoutlets" : 0,
													"fontsize" : 12.0
												}

											}
, 											{
												"box" : 												{
													"maxclass" : "comment",
													"text" : "To broadcast a message on a subnetwork, you just need to send it to a broadcast address.",
													"id" : "obj-2",
													"fontname" : "Arial",
													"patching_rect" : [ 15.0, 15.0, 495.0, 20.0 ],
													"numinlets" : 1,
													"numoutlets" : 0,
													"fontsize" : 12.0
												}

											}
, 											{
												"box" : 												{
													"maxclass" : "number",
													"outlettype" : [ "int", "bang" ],
													"minimum" : 0,
													"id" : "obj-13",
													"maximum" : 255,
													"fontname" : "Arial",
													"patching_rect" : [ 90.0, 165.0, 40.0, 20.0 ],
													"numinlets" : 1,
													"numoutlets" : 2,
													"fontsize" : 12.0
												}

											}
, 											{
												"box" : 												{
													"maxclass" : "newobj",
													"text" : "print \"Error code\"",
													"id" : "obj-27",
													"fontname" : "Arial",
													"patching_rect" : [ 255.0, 300.0, 102.0, 20.0 ],
													"numinlets" : 1,
													"numoutlets" : 0,
													"fontsize" : 12.0
												}

											}
, 											{
												"box" : 												{
													"maxclass" : "newobj",
													"text" : "print \"Sender IP & port\"",
													"id" : "obj-20",
													"fontname" : "Arial",
													"patching_rect" : [ 105.0, 300.0, 134.0, 20.0 ],
													"numinlets" : 1,
													"numoutlets" : 0,
													"fontsize" : 12.0
												}

											}
, 											{
												"box" : 												{
													"maxclass" : "newobj",
													"text" : "route 0",
													"outlettype" : [ "", "" ],
													"id" : "obj-17",
													"fontname" : "Arial",
													"patching_rect" : [ 105.0, 270.0, 48.0, 20.0 ],
													"numinlets" : 1,
													"numoutlets" : 2,
													"fontsize" : 12.0
												}

											}
, 											{
												"box" : 												{
													"maxclass" : "newobj",
													"text" : "print received",
													"id" : "obj-9",
													"fontname" : "Arial",
													"patching_rect" : [ 15.0, 270.0, 83.0, 20.0 ],
													"numinlets" : 1,
													"numoutlets" : 0,
													"fontsize" : 12.0
												}

											}
, 											{
												"box" : 												{
													"maxclass" : "newobj",
													"text" : "sadam.udpReceiver 55555",
													"outlettype" : [ "list", "int" ],
													"id" : "obj-8",
													"fontname" : "Arial",
													"patching_rect" : [ 15.0, 240.0, 154.0, 20.0 ],
													"numinlets" : 1,
													"numoutlets" : 2,
													"fontsize" : 12.0
												}

											}
, 											{
												"box" : 												{
													"maxclass" : "newobj",
													"text" : "sadam.udpSender 255.255.255.255 55555",
													"outlettype" : [ "int" ],
													"id" : "obj-7",
													"fontname" : "Arial",
													"patching_rect" : [ 90.0, 195.0, 239.0, 20.0 ],
													"numinlets" : 1,
													"numoutlets" : 1,
													"fontsize" : 12.0
												}

											}
 ],
										"lines" : [ 											{
												"patchline" : 												{
													"source" : [ "obj-8", 0 ],
													"destination" : [ "obj-9", 0 ],
													"hidden" : 0,
													"midpoints" : [  ]
												}

											}
, 											{
												"patchline" : 												{
													"source" : [ "obj-8", 1 ],
													"destination" : [ "obj-17", 0 ],
													"hidden" : 0,
													"midpoints" : [ 159.5, 264.5, 114.5, 264.5 ]
												}

											}
, 											{
												"patchline" : 												{
													"source" : [ "obj-17", 1 ],
													"destination" : [ "obj-27", 0 ],
													"hidden" : 0,
													"midpoints" : [ 143.5, 294.5, 264.5, 294.5 ]
												}

											}
, 											{
												"patchline" : 												{
													"source" : [ "obj-17", 0 ],
													"destination" : [ "obj-20", 0 ],
													"hidden" : 0,
													"midpoints" : [  ]
												}

											}
, 											{
												"patchline" : 												{
													"source" : [ "obj-13", 0 ],
													"destination" : [ "obj-7", 0 ],
													"hidden" : 0,
													"midpoints" : [  ]
												}

											}
 ]
									}
,
									"saved_object_attributes" : 									{
										"default_fontsize" : 12.0,
										"fontname" : "Arial",
										"default_fontface" : 0,
										"globalpatchername" : "",
										"default_fontname" : "Arial",
										"fontface" : 0,
										"fontsize" : 12.0
									}

								}

							}
, 							{
								"box" : 								{
									"maxclass" : "comment",
									"text" : "- Basically, none; unless you're forced to use broadcast, go multicast instead.",
									"id" : "obj-32",
									"fontname" : "Arial",
									"patching_rect" : [ 75.0, 305.0, 419.0, 20.0 ],
									"numinlets" : 1,
									"numoutlets" : 0,
									"fontsize" : 12.0
								}

							}
, 							{
								"box" : 								{
									"maxclass" : "comment",
									"text" : "- Easier to understand and use the concept than multicast.",
									"id" : "obj-31",
									"fontname" : "Arial",
									"patching_rect" : [ 75.0, 285.0, 321.0, 20.0 ],
									"numinlets" : 1,
									"numoutlets" : 0,
									"fontsize" : 12.0
								}

							}
, 							{
								"box" : 								{
									"maxclass" : "comment",
									"text" : "- Broadcast is an obsolete technology which will disappear sooner or later.",
									"id" : "obj-30",
									"fontname" : "Arial",
									"patching_rect" : [ 75.0, 210.0, 404.0, 20.0 ],
									"numinlets" : 1,
									"numoutlets" : 0,
									"fontsize" : 12.0
								}

							}
, 							{
								"box" : 								{
									"maxclass" : "comment",
									"text" : "Advantages of broadcast over multicast:",
									"id" : "obj-29",
									"fontname" : "Arial",
									"patching_rect" : [ 60.0, 255.0, 224.0, 20.0 ],
									"numinlets" : 1,
									"numoutlets" : 0,
									"fontsize" : 12.0
								}

							}
, 							{
								"box" : 								{
									"maxclass" : "comment",
									"text" : "- Many system administrators block broadcast. This is less likely to happen with multicast.",
									"id" : "obj-28",
									"fontname" : "Arial",
									"patching_rect" : [ 75.0, 190.0, 486.0, 20.0 ],
									"numinlets" : 1,
									"numoutlets" : 0,
									"fontsize" : 12.0
								}

							}
, 							{
								"box" : 								{
									"maxclass" : "comment",
									"text" : "- Multicast allows an intelligent set-up of the network topology.",
									"id" : "obj-26",
									"fontname" : "Arial",
									"patching_rect" : [ 75.0, 170.0, 339.0, 20.0 ],
									"numinlets" : 1,
									"numoutlets" : 0,
									"fontsize" : 12.0
								}

							}
, 							{
								"box" : 								{
									"maxclass" : "comment",
									"text" : "- Multicast is supported by both IPv4 and IPv6.",
									"id" : "obj-25",
									"fontname" : "Arial",
									"patching_rect" : [ 75.0, 150.0, 258.0, 20.0 ],
									"numinlets" : 1,
									"numoutlets" : 0,
									"fontsize" : 12.0
								}

							}
, 							{
								"box" : 								{
									"maxclass" : "comment",
									"text" : "Advantages of multicast over broadcast:",
									"id" : "obj-23",
									"fontname" : "Arial",
									"patching_rect" : [ 60.0, 120.0, 224.0, 20.0 ],
									"numinlets" : 1,
									"numoutlets" : 0,
									"fontsize" : 12.0
								}

							}
, 							{
								"box" : 								{
									"maxclass" : "comment",
									"text" : "UDP multicast and broadcast are examples of routing schemes on computer networks where a single message from the source is routed to several destinations simultaneously. Broadcast, an obsolete technology which only works on IPv4 will transmit all messages to all devices on a given subnetwork; with multicast, it is possible to define 'multicast groups' -- instead of flooding all devices, multicast messages sent to a specific group are delivered only to those devices which are subscribed to that group.",
									"linecount" : 5,
									"id" : "obj-18",
									"fontname" : "Arial",
									"patching_rect" : [ 15.0, 15.0, 615.0, 75.0 ],
									"numinlets" : 1,
									"numoutlets" : 0,
									"fontsize" : 12.0
								}

							}
 ],
						"lines" : [  ]
					}
,
					"saved_object_attributes" : 					{
						"default_fontsize" : 12.0,
						"fontname" : "Arial",
						"default_fontface" : 0,
						"globalpatchername" : "",
						"default_fontname" : "Arial",
						"fontface" : 0,
						"fontsize" : 12.0
					}

				}

			}
, 			{
				"box" : 				{
					"maxclass" : "comment",
					"text" : "Listen on IPv6 instead of IPv4.",
					"linecount" : 2,
					"id" : "obj-46",
					"fontname" : "Arial",
					"patching_rect" : [ 165.0, 150.0, 91.0, 34.0 ],
					"numinlets" : 1,
					"numoutlets" : 0,
					"fontsize" : 12.0
				}

			}
, 			{
				"box" : 				{
					"maxclass" : "toggle",
					"outlettype" : [ "int" ],
					"id" : "obj-44",
					"patching_rect" : [ 195.0, 180.0, 20.0, 20.0 ],
					"numinlets" : 1,
					"numoutlets" : 1
				}

			}
, 			{
				"box" : 				{
					"maxclass" : "message",
					"text" : "ipv6 $1",
					"outlettype" : [ "" ],
					"id" : "obj-33",
					"fontname" : "Arial",
					"patching_rect" : [ 195.0, 210.0, 49.0, 18.0 ],
					"numinlets" : 2,
					"numoutlets" : 1,
					"fontsize" : 12.0
				}

			}
, 			{
				"box" : 				{
					"maxclass" : "newobj",
					"text" : "print \"Error code\"",
					"id" : "obj-27",
					"fontname" : "Arial",
					"patching_rect" : [ 330.0, 300.0, 102.0, 20.0 ],
					"numinlets" : 1,
					"numoutlets" : 0,
					"fontsize" : 12.0
				}

			}
, 			{
				"box" : 				{
					"maxclass" : "newobj",
					"text" : "print \"Sender IP & port\"",
					"id" : "obj-20",
					"fontname" : "Arial",
					"patching_rect" : [ 180.0, 300.0, 134.0, 20.0 ],
					"numinlets" : 1,
					"numoutlets" : 0,
					"fontsize" : 12.0
				}

			}
, 			{
				"box" : 				{
					"maxclass" : "newobj",
					"text" : "route 0",
					"outlettype" : [ "", "" ],
					"id" : "obj-17",
					"fontname" : "Arial",
					"patching_rect" : [ 180.0, 270.0, 48.0, 20.0 ],
					"numinlets" : 1,
					"numoutlets" : 2,
					"fontsize" : 12.0
				}

			}
, 			{
				"box" : 				{
					"maxclass" : "newobj",
					"text" : "print foo",
					"id" : "obj-25",
					"fontname" : "Arial",
					"patching_rect" : [ 105.0, 585.0, 54.0, 20.0 ],
					"numinlets" : 1,
					"numoutlets" : 0,
					"fontsize" : 12.0
				}

			}
, 			{
				"box" : 				{
					"maxclass" : "newobj",
					"text" : "sadam.stream foo",
					"outlettype" : [ "list", "bang", "list" ],
					"id" : "obj-26",
					"fontname" : "Arial",
					"patching_rect" : [ 60.0, 555.0, 107.0, 20.0 ],
					"numinlets" : 1,
					"numoutlets" : 3,
					"fontsize" : 12.0
				}

			}
, 			{
				"box" : 				{
					"maxclass" : "newobj",
					"text" : "print foo3",
					"id" : "obj-24",
					"fontname" : "Arial",
					"patching_rect" : [ 345.0, 405.0, 61.0, 20.0 ],
					"numinlets" : 1,
					"numoutlets" : 0,
					"fontsize" : 12.0
				}

			}
, 			{
				"box" : 				{
					"maxclass" : "newobj",
					"text" : "print foo2",
					"id" : "obj-23",
					"fontname" : "Arial",
					"patching_rect" : [ 225.0, 405.0, 61.0, 20.0 ],
					"numinlets" : 1,
					"numoutlets" : 0,
					"fontsize" : 12.0
				}

			}
, 			{
				"box" : 				{
					"maxclass" : "newobj",
					"text" : "print foo1",
					"id" : "obj-3",
					"fontname" : "Arial",
					"patching_rect" : [ 105.0, 405.0, 61.0, 20.0 ],
					"numinlets" : 1,
					"numoutlets" : 0,
					"fontsize" : 12.0
				}

			}
, 			{
				"box" : 				{
					"maxclass" : "newobj",
					"text" : "print received",
					"id" : "obj-2",
					"fontname" : "Arial",
					"patching_rect" : [ 90.0, 270.0, 83.0, 20.0 ],
					"numinlets" : 1,
					"numoutlets" : 0,
					"fontsize" : 12.0
				}

			}
, 			{
				"box" : 				{
					"maxclass" : "newobj",
					"text" : "loadmess 54321",
					"outlettype" : [ "" ],
					"id" : "obj-18",
					"fontname" : "Arial",
					"patching_rect" : [ 90.0, 150.0, 99.0, 20.0 ],
					"numinlets" : 1,
					"hidden" : 1,
					"numoutlets" : 1,
					"fontsize" : 12.0
				}

			}
, 			{
				"box" : 				{
					"maxclass" : "newobj",
					"text" : "pcontrol",
					"outlettype" : [ "" ],
					"id" : "obj-13",
					"fontname" : "Arial",
					"patching_rect" : [ 255.0, 210.0, 53.0, 20.0 ],
					"numinlets" : 1,
					"hidden" : 1,
					"numoutlets" : 1,
					"fontsize" : 12.0
				}

			}
, 			{
				"box" : 				{
					"maxclass" : "newobj",
					"text" : "loadmess open",
					"outlettype" : [ "" ],
					"id" : "obj-6",
					"fontname" : "Arial",
					"patching_rect" : [ 255.0, 180.0, 92.0, 20.0 ],
					"numinlets" : 1,
					"hidden" : 1,
					"numoutlets" : 1,
					"fontsize" : 12.0
				}

			}
, 			{
				"box" : 				{
					"maxclass" : "newobj",
					"text" : "p Sender",
					"id" : "obj-4",
					"fontname" : "Arial",
					"patching_rect" : [ 225.0, 240.0, 59.0, 20.0 ],
					"numinlets" : 1,
					"numoutlets" : 0,
					"fontsize" : 12.0,
					"patcher" : 					{
						"fileversion" : 1,
						"appversion" : 						{
							"major" : 5,
							"minor" : 1,
							"revision" : 9
						}
,
						"rect" : [ 601.0, 161.0, 408.0, 115.0 ],
						"bglocked" : 0,
						"defrect" : [ 601.0, 161.0, 408.0, 115.0 ],
						"openrect" : [ 0.0, 0.0, 0.0, 0.0 ],
						"openinpresentation" : 0,
						"default_fontsize" : 12.0,
						"default_fontface" : 0,
						"default_fontname" : "Arial",
						"gridonopen" : 0,
						"gridsize" : [ 15.0, 15.0 ],
						"gridsnaponopen" : 0,
						"toolbarvisible" : 1,
						"boxanimatetime" : 200,
						"imprint" : 0,
						"enablehscroll" : 1,
						"enablevscroll" : 1,
						"devicewidth" : 0.0,
						"visible" : 1,
						"boxes" : [ 							{
								"box" : 								{
									"maxclass" : "newobj",
									"text" : "loadmess 54321",
									"outlettype" : [ "" ],
									"id" : "obj-15",
									"fontname" : "Arial",
									"patching_rect" : [ 135.0, 15.0, 99.0, 20.0 ],
									"numinlets" : 1,
									"hidden" : 1,
									"numoutlets" : 1,
									"fontsize" : 12.0
								}

							}
, 							{
								"box" : 								{
									"maxclass" : "comment",
									"text" : "...to a given port",
									"id" : "obj-14",
									"fontname" : "Arial",
									"patching_rect" : [ 300.0, 15.0, 97.0, 20.0 ],
									"numinlets" : 1,
									"numoutlets" : 0,
									"fontsize" : 12.0
								}

							}
, 							{
								"box" : 								{
									"maxclass" : "message",
									"text" : "port $1",
									"outlettype" : [ "" ],
									"id" : "obj-12",
									"fontname" : "Arial",
									"patching_rect" : [ 240.0, 45.0, 48.0, 18.0 ],
									"numinlets" : 2,
									"numoutlets" : 1,
									"fontsize" : 12.0
								}

							}
, 							{
								"box" : 								{
									"maxclass" : "number",
									"outlettype" : [ "int", "bang" ],
									"id" : "obj-10",
									"fontname" : "Arial",
									"patching_rect" : [ 240.0, 15.0, 50.0, 20.0 ],
									"numinlets" : 1,
									"numoutlets" : 2,
									"fontsize" : 12.0
								}

							}
, 							{
								"box" : 								{
									"maxclass" : "comment",
									"text" : "Send some data...",
									"id" : "obj-8",
									"fontname" : "Arial",
									"patching_rect" : [ 15.0, 15.0, 108.0, 20.0 ],
									"numinlets" : 1,
									"numoutlets" : 0,
									"fontsize" : 12.0
								}

							}
, 							{
								"box" : 								{
									"maxclass" : "newobj",
									"text" : "sadam.udpSender localhost",
									"outlettype" : [ "int" ],
									"id" : "obj-6",
									"fontname" : "Arial",
									"patching_rect" : [ 15.0, 75.0, 159.0, 20.0 ],
									"numinlets" : 1,
									"numoutlets" : 1,
									"fontsize" : 12.0
								}

							}
, 							{
								"box" : 								{
									"maxclass" : "message",
									"text" : "3 2 35 7 8 34 52 6 76 54 245 6",
									"outlettype" : [ "" ],
									"id" : "obj-5",
									"fontname" : "Arial",
									"patching_rect" : [ 60.0, 45.0, 174.0, 18.0 ],
									"numinlets" : 2,
									"numoutlets" : 1,
									"fontsize" : 12.0
								}

							}
, 							{
								"box" : 								{
									"maxclass" : "number",
									"outlettype" : [ "int", "bang" ],
									"minimum" : 0,
									"id" : "obj-2",
									"maximum" : 255,
									"fontname" : "Arial",
									"patching_rect" : [ 15.0, 45.0, 36.0, 20.0 ],
									"numinlets" : 1,
									"numoutlets" : 2,
									"fontsize" : 12.0
								}

							}
, 							{
								"box" : 								{
									"maxclass" : "inlet",
									"outlettype" : [ "" ],
									"id" : "obj-3",
									"patching_rect" : [ 180.0, 75.0, 25.0, 25.0 ],
									"numinlets" : 0,
									"hidden" : 1,
									"numoutlets" : 1,
									"comment" : "Dummy"
								}

							}
 ],
						"lines" : [ 							{
								"patchline" : 								{
									"source" : [ "obj-5", 0 ],
									"destination" : [ "obj-6", 0 ],
									"hidden" : 0,
									"midpoints" : [ 69.5, 68.5, 24.5, 68.5 ]
								}

							}
, 							{
								"patchline" : 								{
									"source" : [ "obj-2", 0 ],
									"destination" : [ "obj-6", 0 ],
									"hidden" : 0,
									"midpoints" : [  ]
								}

							}
, 							{
								"patchline" : 								{
									"source" : [ "obj-15", 0 ],
									"destination" : [ "obj-10", 0 ],
									"hidden" : 1,
									"midpoints" : [ 144.5, 40.0, 236.0, 40.0, 236.0, 11.0, 249.5, 11.0 ]
								}

							}
, 							{
								"patchline" : 								{
									"source" : [ "obj-12", 0 ],
									"destination" : [ "obj-6", 0 ],
									"hidden" : 0,
									"midpoints" : [ 249.5, 68.5, 24.5, 68.5 ]
								}

							}
, 							{
								"patchline" : 								{
									"source" : [ "obj-10", 0 ],
									"destination" : [ "obj-12", 0 ],
									"hidden" : 0,
									"midpoints" : [  ]
								}

							}
 ]
					}
,
					"saved_object_attributes" : 					{
						"default_fontsize" : 12.0,
						"fontname" : "Arial",
						"default_fontface" : 0,
						"globalpatchername" : "",
						"default_fontname" : "Arial",
						"fontface" : 0,
						"fontsize" : 12.0
					}

				}

			}
, 			{
				"box" : 				{
					"maxclass" : "comment",
					"text" : "Third argument registers a stream.",
					"linecount" : 2,
					"id" : "obj-62",
					"fontname" : "Arial",
					"patching_rect" : [ 180.0, 570.0, 111.0, 34.0 ],
					"numinlets" : 1,
					"numoutlets" : 0,
					"fontsize" : 12.0
				}

			}
, 			{
				"box" : 				{
					"maxclass" : "newobj",
					"text" : "sadam.udpReceiver 11111 2048 foo",
					"outlettype" : [ "list", "int" ],
					"id" : "obj-57",
					"fontname" : "Arial",
					"patching_rect" : [ 30.0, 615.0, 200.0, 20.0 ],
					"numinlets" : 1,
					"numoutlets" : 2,
					"fontsize" : 12.0
				}

			}
, 			{
				"box" : 				{
					"maxclass" : "comment",
					"text" : "Forward received bytes to one or several sadam.stream objects.",
					"id" : "obj-56",
					"fontname" : "Arial",
					"patching_rect" : [ 60.0, 345.0, 352.0, 20.0 ],
					"numinlets" : 1,
					"numoutlets" : 0,
					"fontsize" : 12.0
				}

			}
, 			{
				"box" : 				{
					"maxclass" : "comment",
					"text" : "You can register/unregister streams to the object (bind will unregister all streams but the given one).",
					"linecount" : 3,
					"id" : "obj-54",
					"fontname" : "Arial",
					"patching_rect" : [ 300.0, 435.0, 201.0, 48.0 ],
					"numinlets" : 1,
					"numoutlets" : 0,
					"fontsize" : 12.0
				}

			}
, 			{
				"box" : 				{
					"maxclass" : "newobj",
					"text" : "sadam.stream foo3",
					"outlettype" : [ "list", "bang", "list" ],
					"id" : "obj-52",
					"fontname" : "Arial",
					"patching_rect" : [ 300.0, 375.0, 113.0, 20.0 ],
					"numinlets" : 1,
					"numoutlets" : 3,
					"fontsize" : 12.0
				}

			}
, 			{
				"box" : 				{
					"maxclass" : "newobj",
					"text" : "sadam.stream foo2",
					"outlettype" : [ "list", "bang", "list" ],
					"id" : "obj-49",
					"fontname" : "Arial",
					"patching_rect" : [ 180.0, 375.0, 113.0, 20.0 ],
					"numinlets" : 1,
					"numoutlets" : 3,
					"fontsize" : 12.0
				}

			}
, 			{
				"box" : 				{
					"maxclass" : "newobj",
					"text" : "sadam.stream foo1",
					"outlettype" : [ "list", "bang", "list" ],
					"id" : "obj-43",
					"fontname" : "Arial",
					"patching_rect" : [ 60.0, 375.0, 113.0, 20.0 ],
					"numinlets" : 1,
					"numoutlets" : 3,
					"fontsize" : 12.0
				}

			}
, 			{
				"box" : 				{
					"maxclass" : "message",
					"text" : "bind",
					"outlettype" : [ "" ],
					"id" : "obj-40",
					"fontname" : "Arial",
					"patching_rect" : [ 240.0, 465.0, 33.0, 18.0 ],
					"numinlets" : 2,
					"numoutlets" : 1,
					"fontsize" : 12.0
				}

			}
, 			{
				"box" : 				{
					"maxclass" : "message",
					"text" : "unregister foo2",
					"outlettype" : [ "" ],
					"id" : "obj-41",
					"fontname" : "Arial",
					"patching_rect" : [ 135.0, 465.0, 91.0, 18.0 ],
					"numinlets" : 2,
					"numoutlets" : 1,
					"fontsize" : 12.0
				}

			}
, 			{
				"box" : 				{
					"maxclass" : "message",
					"text" : "unregister foo1",
					"outlettype" : [ "" ],
					"id" : "obj-42",
					"fontname" : "Arial",
					"patching_rect" : [ 30.0, 465.0, 91.0, 18.0 ],
					"numinlets" : 2,
					"numoutlets" : 1,
					"fontsize" : 12.0
				}

			}
, 			{
				"box" : 				{
					"maxclass" : "message",
					"text" : "bind foo3",
					"outlettype" : [ "" ],
					"id" : "obj-39",
					"fontname" : "Arial",
					"patching_rect" : [ 240.0, 435.0, 60.0, 18.0 ],
					"numinlets" : 2,
					"numoutlets" : 1,
					"fontsize" : 12.0
				}

			}
, 			{
				"box" : 				{
					"maxclass" : "message",
					"text" : "register foo2",
					"outlettype" : [ "" ],
					"id" : "obj-38",
					"fontname" : "Arial",
					"patching_rect" : [ 135.0, 435.0, 77.0, 18.0 ],
					"numinlets" : 2,
					"numoutlets" : 1,
					"fontsize" : 12.0
				}

			}
, 			{
				"box" : 				{
					"maxclass" : "message",
					"text" : "register foo1",
					"outlettype" : [ "" ],
					"id" : "obj-37",
					"fontname" : "Arial",
					"patching_rect" : [ 30.0, 435.0, 77.0, 18.0 ],
					"numinlets" : 2,
					"numoutlets" : 1,
					"fontsize" : 12.0
				}

			}
, 			{
				"box" : 				{
					"maxclass" : "comment",
					"text" : "Second argument is UDP buffer size",
					"id" : "obj-35",
					"fontname" : "Arial",
					"patching_rect" : [ 210.0, 519.0, 204.0, 20.0 ],
					"numinlets" : 1,
					"numoutlets" : 0,
					"fontsize" : 12.0
				}

			}
, 			{
				"box" : 				{
					"maxclass" : "comment",
					"text" : "First argument is port number",
					"id" : "obj-34",
					"fontname" : "Arial",
					"patching_rect" : [ 210.0, 501.0, 168.0, 20.0 ],
					"numinlets" : 1,
					"numoutlets" : 0,
					"fontsize" : 12.0
				}

			}
, 			{
				"box" : 				{
					"maxclass" : "newobj",
					"text" : "sadam.udpReceiver 65535 1024",
					"outlettype" : [ "list", "int" ],
					"id" : "obj-32",
					"fontname" : "Arial",
					"patching_rect" : [ 15.0, 510.0, 184.0, 20.0 ],
					"numinlets" : 1,
					"numoutlets" : 2,
					"fontsize" : 12.0
				}

			}
, 			{
				"box" : 				{
					"maxclass" : "comment",
					"text" : "Set port",
					"id" : "obj-22",
					"fontname" : "Arial",
					"patching_rect" : [ 90.0, 165.0, 53.0, 20.0 ],
					"numinlets" : 1,
					"numoutlets" : 0,
					"fontsize" : 12.0
				}

			}
, 			{
				"box" : 				{
					"maxclass" : "number",
					"outlettype" : [ "int", "bang" ],
					"minimum" : 0,
					"id" : "obj-7",
					"maximum" : 65535,
					"fontname" : "Arial",
					"patching_rect" : [ 90.0, 180.0, 50.0, 20.0 ],
					"numinlets" : 1,
					"numoutlets" : 2,
					"fontsize" : 12.0
				}

			}
, 			{
				"box" : 				{
					"maxclass" : "message",
					"text" : "port $1",
					"outlettype" : [ "" ],
					"id" : "obj-5",
					"fontname" : "Arial",
					"patching_rect" : [ 90.0, 210.0, 48.0, 18.0 ],
					"numinlets" : 2,
					"numoutlets" : 1,
					"fontsize" : 12.0
				}

			}
, 			{
				"box" : 				{
					"maxclass" : "newobj",
					"text" : "sadam.udpReceiver",
					"outlettype" : [ "list", "int" ],
					"id" : "obj-1",
					"fontname" : "Arial",
					"patching_rect" : [ 90.0, 240.0, 117.0, 20.0 ],
					"numinlets" : 1,
					"numoutlets" : 2,
					"fontsize" : 12.0
				}

			}
, 			{
				"box" : 				{
					"maxclass" : "newobj",
					"text" : "autohelp",
					"id" : "obj-19",
					"fontname" : "Arial",
					"patching_rect" : [ 345.0, 585.0, 57.0, 20.0 ],
					"numinlets" : 1,
					"hidden" : 1,
					"numoutlets" : 0,
					"fontsize" : 12.0
				}

			}
, 			{
				"box" : 				{
					"maxclass" : "umenu",
					"varname" : "autohelp_see_menu",
					"outlettype" : [ "int", "", "" ],
					"items" : [ "(Objects:)", ",", "sadam.stream", ",", "sadam.tcpclient", ",", "sadam.tcpreceiver", ",", "sadam.tcpsender", ",", "sadam.udpsender", ",", "<separator>" ],
					"id" : "obj-10",
					"fontname" : "Arial",
					"types" : [  ],
					"patching_rect" : [ 350.0, 609.0, 130.0, 20.0 ],
					"numinlets" : 1,
					"numoutlets" : 3,
					"fontsize" : 11.595187
				}

			}
, 			{
				"box" : 				{
					"maxclass" : "comment",
					"varname" : "autohelp_see_title",
					"text" : "See Also:",
					"id" : "obj-9",
					"fontname" : "Arial",
					"patching_rect" : [ 350.0, 589.0, 100.0, 20.0 ],
					"numinlets" : 1,
					"numoutlets" : 0,
					"fontface" : 1,
					"fontsize" : 11.595187
				}

			}
, 			{
				"box" : 				{
					"maxclass" : "comment",
					"varname" : "autohelp_top_description",
					"text" : "sadam.udpReceiver will listen to a specified port and output incoming data. Currently it will output everything as pure binary data (by sending out the received bytes one-by-one on the leftmost outlet and, optionally, by adding them to the registered binary streams represented by sadam.stream) but a later release will support any arbitrary Max message.\nThis object was commissioned by Andrea Szigetvri and the Hungarian Computer Music Foundation.",
					"linecount" : 6,
					"id" : "obj-8",
					"fontname" : "Arial",
					"patching_rect" : [ 10.0, 57.0, 497.0, 86.0 ],
					"numinlets" : 1,
					"numoutlets" : 0,
					"fontsize" : 11.595187
				}

			}
, 			{
				"box" : 				{
					"maxclass" : "comment",
					"varname" : "autohelp_top_digest",
					"text" : "Receive data from the network using the UDP protocol",
					"frgb" : [ 0.93, 0.93, 0.97, 1.0 ],
					"id" : "obj-11",
					"fontname" : "Arial",
					"patching_rect" : [ 10.0, 36.0, 485.0, 21.0 ],
					"numinlets" : 1,
					"textcolor" : [ 0.93, 0.93, 0.97, 1.0 ],
					"numoutlets" : 0,
					"fontsize" : 12.754705
				}

			}
, 			{
				"box" : 				{
					"maxclass" : "comment",
					"varname" : "autohelp_top_title",
					"text" : "sadam.udpReceiver",
					"frgb" : [ 0.93, 0.93, 0.97, 1.0 ],
					"id" : "obj-12",
					"fontname" : "Arial",
					"patching_rect" : [ 10.0, 8.0, 485.0, 30.0 ],
					"numinlets" : 1,
					"textcolor" : [ 0.93, 0.93, 0.97, 1.0 ],
					"numoutlets" : 0,
					"fontface" : 3,
					"fontsize" : 20.871338
				}

			}
, 			{
				"box" : 				{
					"maxclass" : "textbutton",
					"varname" : "autohelp_top_ref",
					"outlettype" : [ "", "", "int" ],
					"bgcolor" : [ 0.0, 0.0, 0.0, 0.0 ],
					"bgoveroncolor" : [ 0.0, 0.0, 0.0, 0.0 ],
					"text" : "open sadam.udpReceiver reference",
					"spacing_x" : 0.0,
					"bgoncolor" : [ 0.0, 0.0, 0.0, 0.0 ],
					"presentation_rect" : [ 15.0, 15.0, 223.503464, 14.666666 ],
					"id" : "obj-14",
					"fontname" : "Arial",
					"spacing_y" : 0.0,
					"textoncolor" : [ 0.27, 0.35, 0.47, 1.0 ],
					"bordercolor" : [ 0.0, 0.0, 0.0, 0.0 ],
					"patching_rect" : [ 276.496521, 22.0, 223.503464, 14.666666 ],
					"numinlets" : 1,
					"fontlink" : 1,
					"textovercolor" : [ 0.4, 0.5, 0.65, 1.0 ],
					"underline" : 1,
					"textcolor" : [ 0.374, 0.47, 0.614, 1.0 ],
					"numoutlets" : 3,
					"fontface" : 3,
					"bgovercolor" : [ 0.0, 0.0, 0.0, 0.0 ],
					"fontsize" : 12.754705
				}

			}
, 			{
				"box" : 				{
					"maxclass" : "panel",
					"varname" : "autohelp_top_panel",
					"mode" : 1,
					"grad2" : [ 0.85, 0.85, 0.85, 1.0 ],
					"background" : 1,
					"id" : "obj-15",
					"patching_rect" : [ 5.0, 5.0, 495.0, 52.0 ],
					"numinlets" : 1,
					"numoutlets" : 0,
					"grad1" : [ 0.27, 0.35, 0.47, 1.0 ]
				}

			}
, 			{
				"box" : 				{
					"maxclass" : "panel",
					"varname" : "autohelp_see_panel",
					"border" : 2,
					"bgcolor" : [ 0.85, 0.85, 0.85, 0.75 ],
					"background" : 1,
					"id" : "obj-16",
					"bordercolor" : [ 0.5, 0.5, 0.5, 0.75 ],
					"patching_rect" : [ 345.0, 585.0, 140.0, 50.0 ],
					"numinlets" : 1,
					"numoutlets" : 0
				}

			}
 ],
		"lines" : [ 			{
				"patchline" : 				{
					"source" : [ "obj-7", 0 ],
					"destination" : [ "obj-5", 0 ],
					"hidden" : 0,
					"midpoints" : [  ]
				}

			}
, 			{
				"patchline" : 				{
					"source" : [ "obj-6", 0 ],
					"destination" : [ "obj-13", 0 ],
					"hidden" : 1,
					"midpoints" : [  ]
				}

			}
, 			{
				"patchline" : 				{
					"source" : [ "obj-52", 2 ],
					"destination" : [ "obj-24", 0 ],
					"hidden" : 0,
					"midpoints" : [ 403.5, 399.5, 354.5, 399.5 ]
				}

			}
, 			{
				"patchline" : 				{
					"source" : [ "obj-5", 0 ],
					"destination" : [ "obj-1", 0 ],
					"hidden" : 0,
					"midpoints" : [  ]
				}

			}
, 			{
				"patchline" : 				{
					"source" : [ "obj-49", 2 ],
					"destination" : [ "obj-23", 0 ],
					"hidden" : 0,
					"midpoints" : [ 283.5, 399.5, 234.5, 399.5 ]
				}

			}
, 			{
				"patchline" : 				{
					"source" : [ "obj-44", 0 ],
					"destination" : [ "obj-33", 0 ],
					"hidden" : 0,
					"midpoints" : [  ]
				}

			}
, 			{
				"patchline" : 				{
					"source" : [ "obj-43", 2 ],
					"destination" : [ "obj-3", 0 ],
					"hidden" : 0,
					"midpoints" : [ 163.5, 399.5, 114.5, 399.5 ]
				}

			}
, 			{
				"patchline" : 				{
					"source" : [ "obj-42", 0 ],
					"destination" : [ "obj-32", 0 ],
					"hidden" : 0,
					"midpoints" : [ 39.5, 488.5, 24.5, 488.5 ]
				}

			}
, 			{
				"patchline" : 				{
					"source" : [ "obj-41", 0 ],
					"destination" : [ "obj-32", 0 ],
					"hidden" : 0,
					"midpoints" : [ 144.5, 488.5, 24.5, 488.5 ]
				}

			}
, 			{
				"patchline" : 				{
					"source" : [ "obj-40", 0 ],
					"destination" : [ "obj-32", 0 ],
					"hidden" : 0,
					"midpoints" : [ 249.5, 488.5, 24.5, 488.5 ]
				}

			}
, 			{
				"patchline" : 				{
					"source" : [ "obj-39", 0 ],
					"destination" : [ "obj-32", 0 ],
					"hidden" : 0,
					"midpoints" : [ 249.5, 458.5, 24.5, 458.5 ]
				}

			}
, 			{
				"patchline" : 				{
					"source" : [ "obj-38", 0 ],
					"destination" : [ "obj-32", 0 ],
					"hidden" : 0,
					"midpoints" : [ 144.5, 458.5, 24.5, 458.5 ]
				}

			}
, 			{
				"patchline" : 				{
					"source" : [ "obj-37", 0 ],
					"destination" : [ "obj-32", 0 ],
					"hidden" : 0,
					"midpoints" : [ 39.5, 458.5, 24.5, 458.5 ]
				}

			}
, 			{
				"patchline" : 				{
					"source" : [ "obj-33", 0 ],
					"destination" : [ "obj-1", 0 ],
					"hidden" : 0,
					"midpoints" : [ 204.5, 233.5, 99.5, 233.5 ]
				}

			}
, 			{
				"patchline" : 				{
					"source" : [ "obj-26", 2 ],
					"destination" : [ "obj-25", 0 ],
					"hidden" : 0,
					"midpoints" : [ 157.5, 579.5, 114.5, 579.5 ]
				}

			}
, 			{
				"patchline" : 				{
					"source" : [ "obj-18", 0 ],
					"destination" : [ "obj-7", 0 ],
					"hidden" : 1,
					"midpoints" : [  ]
				}

			}
, 			{
				"patchline" : 				{
					"source" : [ "obj-17", 1 ],
					"destination" : [ "obj-27", 0 ],
					"hidden" : 0,
					"midpoints" : [ 218.5, 294.5, 339.5, 294.5 ]
				}

			}
, 			{
				"patchline" : 				{
					"source" : [ "obj-17", 0 ],
					"destination" : [ "obj-20", 0 ],
					"hidden" : 0,
					"midpoints" : [  ]
				}

			}
, 			{
				"patchline" : 				{
					"source" : [ "obj-13", 0 ],
					"destination" : [ "obj-4", 0 ],
					"hidden" : 1,
					"midpoints" : [ 264.5, 234.5, 234.5, 234.5 ]
				}

			}
, 			{
				"patchline" : 				{
					"source" : [ "obj-1", 0 ],
					"destination" : [ "obj-2", 0 ],
					"hidden" : 0,
					"midpoints" : [  ]
				}

			}
, 			{
				"patchline" : 				{
					"source" : [ "obj-1", 1 ],
					"destination" : [ "obj-17", 0 ],
					"hidden" : 0,
					"midpoints" : [ 197.5, 264.5, 189.5, 264.5 ]
				}

			}
 ]
	}

}
