{
	"patcher" : 	{
		"fileversion" : 1,
		"rect" : [ 342.0, 133.0, 593.0, 703.0 ],
		"bglocked" : 1,
		"defrect" : [ 342.0, 133.0, 593.0, 703.0 ],
		"openrect" : [ 0.0, 0.0, 0.0, 0.0 ],
		"openinpresentation" : 0,
		"default_fontsize" : 11.595187,
		"default_fontface" : 0,
		"default_fontname" : "Arial",
		"gridonopen" : 0,
		"gridsize" : [ 15.0, 15.0 ],
		"gridsnaponopen" : 0,
		"toolbarvisible" : 1,
		"boxanimatetime" : 200,
		"imprint" : 0,
		"enablehscroll" : 1,
		"enablevscroll" : 1,
		"devicewidth" : 0.0,
		"boxes" : [ 			{
				"box" : 				{
					"maxclass" : "comment",
					"text" : "Set the frequency of triggering new phase points",
					"linecount" : 2,
					"fontsize" : 11.595187,
					"patching_rect" : [ 285.0, 435.0, 153.0, 33.0 ],
					"numinlets" : 1,
					"id" : "obj-54",
					"fontname" : "Arial",
					"numoutlets" : 0
				}

			}
, 			{
				"box" : 				{
					"maxclass" : "newobj",
					"text" : "adstatus sr",
					"outlettype" : [ "", "int" ],
					"fontsize" : 11.595187,
					"patching_rect" : [ 450.0, 450.0, 67.0, 20.0 ],
					"hidden" : 1,
					"numinlets" : 2,
					"id" : "obj-50",
					"fontname" : "Arial",
					"numoutlets" : 2
				}

			}
, 			{
				"box" : 				{
					"maxclass" : "newobj",
					"text" : "loadbang",
					"outlettype" : [ "bang" ],
					"fontsize" : 11.595187,
					"patching_rect" : [ 450.0, 420.0, 58.0, 20.0 ],
					"hidden" : 1,
					"numinlets" : 1,
					"id" : "obj-49",
					"fontname" : "Arial",
					"numoutlets" : 1
				}

			}
, 			{
				"box" : 				{
					"maxclass" : "flonum",
					"outlettype" : [ "float", "bang" ],
					"fontsize" : 11.595187,
					"patching_rect" : [ 195.0, 420.0, 50.0, 20.0 ],
					"numinlets" : 1,
					"id" : "obj-42",
					"fontname" : "Arial",
					"numoutlets" : 2
				}

			}
, 			{
				"box" : 				{
					"maxclass" : "message",
					"text" : "frequency $1",
					"outlettype" : [ "" ],
					"fontsize" : 11.595187,
					"patching_rect" : [ 195.0, 450.0, 78.0, 18.0 ],
					"numinlets" : 2,
					"id" : "obj-29",
					"fontname" : "Arial",
					"numoutlets" : 1
				}

			}
, 			{
				"box" : 				{
					"maxclass" : "comment",
					"text" : "An example of using the object to create small animations",
					"linecount" : 3,
					"fontsize" : 11.595187,
					"patching_rect" : [ 210.0, 600.0, 117.0, 46.0 ],
					"numinlets" : 1,
					"id" : "obj-17",
					"fontname" : "Arial",
					"numoutlets" : 0
				}

			}
, 			{
				"box" : 				{
					"maxclass" : "newobj",
					"text" : "p visuals",
					"fontsize" : 11.595187,
					"patching_rect" : [ 210.0, 645.0, 56.0, 20.0 ],
					"numinlets" : 0,
					"id" : "obj-48",
					"fontname" : "Arial",
					"numoutlets" : 0,
					"patcher" : 					{
						"fileversion" : 1,
						"rect" : [ 328.0, 179.0, 911.0, 649.0 ],
						"bglocked" : 0,
						"defrect" : [ 328.0, 179.0, 911.0, 649.0 ],
						"openrect" : [ 0.0, 0.0, 0.0, 0.0 ],
						"openinpresentation" : 0,
						"default_fontsize" : 12.0,
						"default_fontface" : 0,
						"default_fontname" : "Arial",
						"gridonopen" : 0,
						"gridsize" : [ 15.0, 15.0 ],
						"gridsnaponopen" : 0,
						"toolbarvisible" : 1,
						"boxanimatetime" : 200,
						"imprint" : 0,
						"enablehscroll" : 1,
						"enablevscroll" : 1,
						"devicewidth" : 0.0,
						"boxes" : [ 							{
								"box" : 								{
									"maxclass" : "comment",
									"text" : "Check out these settings!",
									"fontsize" : 12.0,
									"patching_rect" : [ 360.0, 195.0, 145.0, 20.0 ],
									"numinlets" : 1,
									"id" : "obj-49",
									"fontname" : "Arial",
									"numoutlets" : 0
								}

							}
, 							{
								"box" : 								{
									"maxclass" : "preset",
									"outlettype" : [ "preset", "int", "preset", "int" ],
									"patching_rect" : [ 360.0, 210.0, 103.0, 17.0 ],
									"numinlets" : 1,
									"id" : "obj-47",
									"numoutlets" : 4,
									"preset_data" : [ 										{
											"number" : 1,
											"data" : [ 5, "obj-44", "number", "int", 100, 5, "obj-35", "flonum", "float", 0.97, 6, "obj-19", "pictslider", "list", 64, 64, 5, "obj-23", "flonum", "float", 1.0, 5, "obj-24", "slider", "float", 5.0, 5, "obj-9", "number", "int", 3000 ]
										}
, 										{
											"number" : 2,
											"data" : [ 5, "obj-44", "number", "int", 500, 5, "obj-35", "flonum", "float", 0.07, 6, "obj-19", "pictslider", "list", 500, 4, 5, "obj-23", "flonum", "float", 456.640594, 5, "obj-24", "slider", "float", 7.659575, 5, "obj-9", "number", "int", 3000 ]
										}
, 										{
											"number" : 3,
											"data" : [ 5, "obj-44", "number", "int", 100, 5, "obj-35", "flonum", "float", 4.0, 6, "obj-19", "pictslider", "list", 435, 313, 5, "obj-23", "flonum", "float", 0.782739, 5, "obj-24", "slider", "float", 4.893617, 5, "obj-9", "number", "int", 3000 ]
										}
 ]
								}

							}
, 							{
								"box" : 								{
									"maxclass" : "comment",
									"text" : "An example of using the oscillator to generate fractal-like images",
									"linecount" : 3,
									"fontsize" : 12.0,
									"patching_rect" : [ 15.0, 15.0, 152.0, 48.0 ],
									"numinlets" : 1,
									"id" : "obj-45",
									"fontname" : "Arial",
									"numoutlets" : 0
								}

							}
, 							{
								"box" : 								{
									"maxclass" : "message",
									"text" : "64 64",
									"outlettype" : [ "" ],
									"fontsize" : 12.0,
									"patching_rect" : [ 495.0, 300.0, 41.0, 18.0 ],
									"hidden" : 1,
									"numinlets" : 2,
									"id" : "obj-36",
									"fontname" : "Arial",
									"numoutlets" : 1
								}

							}
, 							{
								"box" : 								{
									"maxclass" : "comment",
									"text" : "Reset Zoom",
									"fontsize" : 12.0,
									"patching_rect" : [ 465.0, 270.0, 76.0, 20.0 ],
									"numinlets" : 1,
									"id" : "obj-34",
									"fontname" : "Arial",
									"numoutlets" : 0
								}

							}
, 							{
								"box" : 								{
									"maxclass" : "button",
									"outlettype" : [ "bang" ],
									"patching_rect" : [ 450.0, 270.0, 20.0, 20.0 ],
									"numinlets" : 1,
									"id" : "obj-30",
									"numoutlets" : 1
								}

							}
, 							{
								"box" : 								{
									"maxclass" : "message",
									"text" : "5",
									"outlettype" : [ "" ],
									"fontsize" : 12.0,
									"patching_rect" : [ 450.0, 300.0, 32.5, 18.0 ],
									"hidden" : 1,
									"numinlets" : 2,
									"id" : "obj-10",
									"fontname" : "Arial",
									"numoutlets" : 1
								}

							}
, 							{
								"box" : 								{
									"maxclass" : "newobj",
									"text" : "jit.poke~ image 2 0",
									"outlettype" : [ "" ],
									"fontsize" : 12.0,
									"patching_rect" : [ 630.0, 615.0, 112.0, 20.0 ],
									"numinlets" : 3,
									"id" : "obj-22",
									"fontname" : "Arial",
									"numoutlets" : 1
								}

							}
, 							{
								"box" : 								{
									"maxclass" : "newobj",
									"text" : "!/~ 1",
									"outlettype" : [ "signal" ],
									"fontsize" : 12.0,
									"patching_rect" : [ 630.0, 585.0, 34.0, 20.0 ],
									"numinlets" : 2,
									"id" : "obj-8",
									"fontname" : "Arial",
									"numoutlets" : 1
								}

							}
, 							{
								"box" : 								{
									"maxclass" : "newobj",
									"text" : "pack 0. 0.",
									"outlettype" : [ "" ],
									"fontsize" : 12.0,
									"patching_rect" : [ 735.0, 525.0, 63.0, 20.0 ],
									"numinlets" : 2,
									"id" : "obj-65",
									"fontname" : "Arial",
									"numoutlets" : 1
								}

							}
, 							{
								"box" : 								{
									"maxclass" : "newobj",
									"text" : "!/ 1.",
									"outlettype" : [ "float" ],
									"fontsize" : 12.0,
									"patching_rect" : [ 390.0, 465.0, 32.5, 20.0 ],
									"numinlets" : 2,
									"id" : "obj-64",
									"fontname" : "Arial",
									"numoutlets" : 1
								}

							}
, 							{
								"box" : 								{
									"maxclass" : "newobj",
									"text" : "p random",
									"outlettype" : [ "" ],
									"fontsize" : 12.0,
									"patching_rect" : [ 810.0, 495.0, 61.0, 20.0 ],
									"numinlets" : 3,
									"id" : "obj-63",
									"fontname" : "Arial",
									"numoutlets" : 1,
									"patcher" : 									{
										"fileversion" : 1,
										"rect" : [ 25.0, 69.0, 207.0, 262.0 ],
										"bglocked" : 0,
										"defrect" : [ 25.0, 69.0, 207.0, 262.0 ],
										"openrect" : [ 0.0, 0.0, 0.0, 0.0 ],
										"openinpresentation" : 0,
										"default_fontsize" : 12.0,
										"default_fontface" : 0,
										"default_fontname" : "Arial",
										"gridonopen" : 0,
										"gridsize" : [ 15.0, 15.0 ],
										"gridsnaponopen" : 0,
										"toolbarvisible" : 1,
										"boxanimatetime" : 200,
										"imprint" : 0,
										"enablehscroll" : 1,
										"enablevscroll" : 1,
										"devicewidth" : 0.0,
										"boxes" : [ 											{
												"box" : 												{
													"maxclass" : "outlet",
													"patching_rect" : [ 15.0, 225.0, 25.0, 25.0 ],
													"numinlets" : 1,
													"id" : "obj-12",
													"numoutlets" : 0,
													"comment" : "Generated Random Number"
												}

											}
, 											{
												"box" : 												{
													"maxclass" : "button",
													"outlettype" : [ "bang" ],
													"patching_rect" : [ 15.0, 75.0, 20.0, 20.0 ],
													"numinlets" : 1,
													"id" : "obj-11",
													"numoutlets" : 1
												}

											}
, 											{
												"box" : 												{
													"maxclass" : "newobj",
													"text" : "zmap 0 1000000",
													"outlettype" : [ "" ],
													"fontsize" : 12.0,
													"patching_rect" : [ 15.0, 165.0, 100.0, 20.0 ],
													"numinlets" : 5,
													"id" : "obj-9",
													"fontname" : "Arial",
													"numoutlets" : 1
												}

											}
, 											{
												"box" : 												{
													"maxclass" : "newobj",
													"text" : "random 1000001",
													"outlettype" : [ "int" ],
													"fontsize" : 12.0,
													"patching_rect" : [ 15.0, 105.0, 101.0, 20.0 ],
													"numinlets" : 2,
													"id" : "obj-8",
													"fontname" : "Arial",
													"numoutlets" : 1
												}

											}
, 											{
												"box" : 												{
													"maxclass" : "newobj",
													"text" : "+ 0.",
													"outlettype" : [ "float" ],
													"fontsize" : 12.0,
													"patching_rect" : [ 165.0, 135.0, 32.5, 20.0 ],
													"numinlets" : 2,
													"id" : "obj-7",
													"fontname" : "Arial",
													"numoutlets" : 1
												}

											}
, 											{
												"box" : 												{
													"maxclass" : "newobj",
													"text" : "- 0.",
													"outlettype" : [ "float" ],
													"fontsize" : 12.0,
													"patching_rect" : [ 120.0, 135.0, 32.5, 20.0 ],
													"numinlets" : 2,
													"id" : "obj-6",
													"fontname" : "Arial",
													"numoutlets" : 1
												}

											}
, 											{
												"box" : 												{
													"maxclass" : "newobj",
													"text" : "unpack 0. 0.",
													"outlettype" : [ "float", "float" ],
													"fontsize" : 12.0,
													"patching_rect" : [ 120.0, 105.0, 76.0, 20.0 ],
													"numinlets" : 1,
													"id" : "obj-5",
													"fontname" : "Arial",
													"numoutlets" : 2
												}

											}
, 											{
												"box" : 												{
													"maxclass" : "newobj",
													"text" : "pak 0. 0.",
													"outlettype" : [ "" ],
													"fontsize" : 12.0,
													"patching_rect" : [ 120.0, 75.0, 57.0, 20.0 ],
													"numinlets" : 2,
													"id" : "obj-4",
													"fontname" : "Arial",
													"numoutlets" : 1
												}

											}
, 											{
												"box" : 												{
													"maxclass" : "inlet",
													"outlettype" : [ "float" ],
													"patching_rect" : [ 150.0, 15.0, 25.0, 25.0 ],
													"numinlets" : 0,
													"id" : "obj-3",
													"numoutlets" : 1,
													"comment" : "Half Range"
												}

											}
, 											{
												"box" : 												{
													"maxclass" : "inlet",
													"outlettype" : [ "" ],
													"patching_rect" : [ 120.0, 15.0, 25.0, 25.0 ],
													"numinlets" : 0,
													"id" : "obj-2",
													"numoutlets" : 1,
													"comment" : "Origin"
												}

											}
, 											{
												"box" : 												{
													"maxclass" : "inlet",
													"outlettype" : [ "bang" ],
													"patching_rect" : [ 15.0, 15.0, 25.0, 25.0 ],
													"numinlets" : 0,
													"id" : "obj-1",
													"numoutlets" : 1,
													"comment" : "Trigger Random"
												}

											}
 ],
										"lines" : [ 											{
												"patchline" : 												{
													"source" : [ "obj-9", 0 ],
													"destination" : [ "obj-12", 0 ],
													"hidden" : 0,
													"midpoints" : [  ]
												}

											}
, 											{
												"patchline" : 												{
													"source" : [ "obj-11", 0 ],
													"destination" : [ "obj-8", 0 ],
													"hidden" : 0,
													"midpoints" : [  ]
												}

											}
, 											{
												"patchline" : 												{
													"source" : [ "obj-1", 0 ],
													"destination" : [ "obj-11", 0 ],
													"hidden" : 0,
													"midpoints" : [  ]
												}

											}
, 											{
												"patchline" : 												{
													"source" : [ "obj-7", 0 ],
													"destination" : [ "obj-9", 4 ],
													"hidden" : 0,
													"midpoints" : [ 174.5, 159.5, 105.5, 159.5 ]
												}

											}
, 											{
												"patchline" : 												{
													"source" : [ "obj-6", 0 ],
													"destination" : [ "obj-9", 3 ],
													"hidden" : 0,
													"midpoints" : [ 129.5, 159.5, 85.25, 159.5 ]
												}

											}
, 											{
												"patchline" : 												{
													"source" : [ "obj-8", 0 ],
													"destination" : [ "obj-9", 0 ],
													"hidden" : 0,
													"midpoints" : [  ]
												}

											}
, 											{
												"patchline" : 												{
													"source" : [ "obj-5", 1 ],
													"destination" : [ "obj-7", 1 ],
													"hidden" : 0,
													"midpoints" : [ 186.5, 129.5, 188.0, 129.5 ]
												}

											}
, 											{
												"patchline" : 												{
													"source" : [ "obj-5", 0 ],
													"destination" : [ "obj-7", 0 ],
													"hidden" : 0,
													"midpoints" : [ 129.5, 129.5, 174.5, 129.5 ]
												}

											}
, 											{
												"patchline" : 												{
													"source" : [ "obj-5", 1 ],
													"destination" : [ "obj-6", 1 ],
													"hidden" : 0,
													"midpoints" : [ 186.5, 129.5, 143.0, 129.5 ]
												}

											}
, 											{
												"patchline" : 												{
													"source" : [ "obj-5", 0 ],
													"destination" : [ "obj-6", 0 ],
													"hidden" : 0,
													"midpoints" : [  ]
												}

											}
, 											{
												"patchline" : 												{
													"source" : [ "obj-4", 0 ],
													"destination" : [ "obj-5", 0 ],
													"hidden" : 0,
													"midpoints" : [  ]
												}

											}
, 											{
												"patchline" : 												{
													"source" : [ "obj-3", 0 ],
													"destination" : [ "obj-4", 1 ],
													"hidden" : 0,
													"midpoints" : [ 159.5, 72.0, 167.5, 72.0 ]
												}

											}
, 											{
												"patchline" : 												{
													"source" : [ "obj-2", 0 ],
													"destination" : [ "obj-4", 0 ],
													"hidden" : 0,
													"midpoints" : [  ]
												}

											}
 ]
									}
,
									"saved_object_attributes" : 									{
										"fontface" : 0,
										"fontsize" : 12.0,
										"default_fontface" : 0,
										"default_fontname" : "Arial",
										"fontname" : "Arial",
										"default_fontsize" : 12.0,
										"globalpatchername" : ""
									}

								}

							}
, 							{
								"box" : 								{
									"maxclass" : "newobj",
									"text" : "p random",
									"outlettype" : [ "" ],
									"fontsize" : 12.0,
									"patching_rect" : [ 735.0, 495.0, 61.0, 20.0 ],
									"numinlets" : 3,
									"id" : "obj-62",
									"fontname" : "Arial",
									"numoutlets" : 1,
									"patcher" : 									{
										"fileversion" : 1,
										"rect" : [ 25.0, 69.0, 207.0, 262.0 ],
										"bglocked" : 0,
										"defrect" : [ 25.0, 69.0, 207.0, 262.0 ],
										"openrect" : [ 0.0, 0.0, 0.0, 0.0 ],
										"openinpresentation" : 0,
										"default_fontsize" : 12.0,
										"default_fontface" : 0,
										"default_fontname" : "Arial",
										"gridonopen" : 0,
										"gridsize" : [ 15.0, 15.0 ],
										"gridsnaponopen" : 0,
										"toolbarvisible" : 1,
										"boxanimatetime" : 200,
										"imprint" : 0,
										"enablehscroll" : 1,
										"enablevscroll" : 1,
										"devicewidth" : 0.0,
										"boxes" : [ 											{
												"box" : 												{
													"maxclass" : "outlet",
													"patching_rect" : [ 15.0, 225.0, 25.0, 25.0 ],
													"numinlets" : 1,
													"id" : "obj-12",
													"numoutlets" : 0,
													"comment" : "Generated Random Number"
												}

											}
, 											{
												"box" : 												{
													"maxclass" : "button",
													"outlettype" : [ "bang" ],
													"patching_rect" : [ 15.0, 75.0, 20.0, 20.0 ],
													"numinlets" : 1,
													"id" : "obj-11",
													"numoutlets" : 1
												}

											}
, 											{
												"box" : 												{
													"maxclass" : "newobj",
													"text" : "zmap 0 1000000",
													"outlettype" : [ "" ],
													"fontsize" : 12.0,
													"patching_rect" : [ 15.0, 165.0, 100.0, 20.0 ],
													"numinlets" : 5,
													"id" : "obj-9",
													"fontname" : "Arial",
													"numoutlets" : 1
												}

											}
, 											{
												"box" : 												{
													"maxclass" : "newobj",
													"text" : "random 1000001",
													"outlettype" : [ "int" ],
													"fontsize" : 12.0,
													"patching_rect" : [ 15.0, 105.0, 101.0, 20.0 ],
													"numinlets" : 2,
													"id" : "obj-8",
													"fontname" : "Arial",
													"numoutlets" : 1
												}

											}
, 											{
												"box" : 												{
													"maxclass" : "newobj",
													"text" : "+ 0.",
													"outlettype" : [ "float" ],
													"fontsize" : 12.0,
													"patching_rect" : [ 165.0, 135.0, 32.5, 20.0 ],
													"numinlets" : 2,
													"id" : "obj-7",
													"fontname" : "Arial",
													"numoutlets" : 1
												}

											}
, 											{
												"box" : 												{
													"maxclass" : "newobj",
													"text" : "- 0.",
													"outlettype" : [ "float" ],
													"fontsize" : 12.0,
													"patching_rect" : [ 120.0, 135.0, 32.5, 20.0 ],
													"numinlets" : 2,
													"id" : "obj-6",
													"fontname" : "Arial",
													"numoutlets" : 1
												}

											}
, 											{
												"box" : 												{
													"maxclass" : "newobj",
													"text" : "unpack 0. 0.",
													"outlettype" : [ "float", "float" ],
													"fontsize" : 12.0,
													"patching_rect" : [ 120.0, 105.0, 76.0, 20.0 ],
													"numinlets" : 1,
													"id" : "obj-5",
													"fontname" : "Arial",
													"numoutlets" : 2
												}

											}
, 											{
												"box" : 												{
													"maxclass" : "newobj",
													"text" : "pak 0. 0.",
													"outlettype" : [ "" ],
													"fontsize" : 12.0,
													"patching_rect" : [ 120.0, 75.0, 57.0, 20.0 ],
													"numinlets" : 2,
													"id" : "obj-4",
													"fontname" : "Arial",
													"numoutlets" : 1
												}

											}
, 											{
												"box" : 												{
													"maxclass" : "inlet",
													"outlettype" : [ "float" ],
													"patching_rect" : [ 150.0, 15.0, 25.0, 25.0 ],
													"numinlets" : 0,
													"id" : "obj-3",
													"numoutlets" : 1,
													"comment" : "Half Range"
												}

											}
, 											{
												"box" : 												{
													"maxclass" : "inlet",
													"outlettype" : [ "" ],
													"patching_rect" : [ 120.0, 15.0, 25.0, 25.0 ],
													"numinlets" : 0,
													"id" : "obj-2",
													"numoutlets" : 1,
													"comment" : "Origin"
												}

											}
, 											{
												"box" : 												{
													"maxclass" : "inlet",
													"outlettype" : [ "bang" ],
													"patching_rect" : [ 15.0, 15.0, 25.0, 25.0 ],
													"numinlets" : 0,
													"id" : "obj-1",
													"numoutlets" : 1,
													"comment" : "Trigger Random"
												}

											}
 ],
										"lines" : [ 											{
												"patchline" : 												{
													"source" : [ "obj-2", 0 ],
													"destination" : [ "obj-4", 0 ],
													"hidden" : 0,
													"midpoints" : [  ]
												}

											}
, 											{
												"patchline" : 												{
													"source" : [ "obj-3", 0 ],
													"destination" : [ "obj-4", 1 ],
													"hidden" : 0,
													"midpoints" : [ 159.5, 72.0, 167.5, 72.0 ]
												}

											}
, 											{
												"patchline" : 												{
													"source" : [ "obj-4", 0 ],
													"destination" : [ "obj-5", 0 ],
													"hidden" : 0,
													"midpoints" : [  ]
												}

											}
, 											{
												"patchline" : 												{
													"source" : [ "obj-5", 0 ],
													"destination" : [ "obj-6", 0 ],
													"hidden" : 0,
													"midpoints" : [  ]
												}

											}
, 											{
												"patchline" : 												{
													"source" : [ "obj-5", 1 ],
													"destination" : [ "obj-6", 1 ],
													"hidden" : 0,
													"midpoints" : [ 186.5, 129.5, 143.0, 129.5 ]
												}

											}
, 											{
												"patchline" : 												{
													"source" : [ "obj-5", 0 ],
													"destination" : [ "obj-7", 0 ],
													"hidden" : 0,
													"midpoints" : [ 129.5, 129.5, 174.5, 129.5 ]
												}

											}
, 											{
												"patchline" : 												{
													"source" : [ "obj-5", 1 ],
													"destination" : [ "obj-7", 1 ],
													"hidden" : 0,
													"midpoints" : [ 186.5, 129.5, 188.0, 129.5 ]
												}

											}
, 											{
												"patchline" : 												{
													"source" : [ "obj-8", 0 ],
													"destination" : [ "obj-9", 0 ],
													"hidden" : 0,
													"midpoints" : [  ]
												}

											}
, 											{
												"patchline" : 												{
													"source" : [ "obj-6", 0 ],
													"destination" : [ "obj-9", 3 ],
													"hidden" : 0,
													"midpoints" : [ 129.5, 159.5, 85.25, 159.5 ]
												}

											}
, 											{
												"patchline" : 												{
													"source" : [ "obj-7", 0 ],
													"destination" : [ "obj-9", 4 ],
													"hidden" : 0,
													"midpoints" : [ 174.5, 159.5, 105.5, 159.5 ]
												}

											}
, 											{
												"patchline" : 												{
													"source" : [ "obj-1", 0 ],
													"destination" : [ "obj-11", 0 ],
													"hidden" : 0,
													"midpoints" : [  ]
												}

											}
, 											{
												"patchline" : 												{
													"source" : [ "obj-11", 0 ],
													"destination" : [ "obj-8", 0 ],
													"hidden" : 0,
													"midpoints" : [  ]
												}

											}
, 											{
												"patchline" : 												{
													"source" : [ "obj-9", 0 ],
													"destination" : [ "obj-12", 0 ],
													"hidden" : 0,
													"midpoints" : [  ]
												}

											}
 ]
									}
,
									"saved_object_attributes" : 									{
										"fontface" : 0,
										"fontsize" : 12.0,
										"default_fontface" : 0,
										"default_fontname" : "Arial",
										"fontname" : "Arial",
										"default_fontsize" : 12.0,
										"globalpatchername" : ""
									}

								}

							}
, 							{
								"box" : 								{
									"maxclass" : "newobj",
									"text" : "sadam.standardMap~",
									"outlettype" : [ "signal", "signal", "signal" ],
									"fontsize" : 12.0,
									"patching_rect" : [ 675.0, 555.0, 127.0, 20.0 ],
									"numinlets" : 3,
									"id" : "obj-61",
									"fontname" : "Arial",
									"numoutlets" : 3
								}

							}
, 							{
								"box" : 								{
									"maxclass" : "comment",
									"text" : "Image density",
									"fontsize" : 12.0,
									"patching_rect" : [ 735.0, 360.0, 85.0, 20.0 ],
									"numinlets" : 1,
									"id" : "obj-46",
									"fontname" : "Arial",
									"numoutlets" : 0
								}

							}
, 							{
								"box" : 								{
									"maxclass" : "number",
									"outlettype" : [ "int", "bang" ],
									"fontsize" : 12.0,
									"minimum" : 0,
									"patching_rect" : [ 735.0, 375.0, 50.0, 20.0 ],
									"numinlets" : 1,
									"id" : "obj-44",
									"fontname" : "Arial",
									"numoutlets" : 2
								}

							}
, 							{
								"box" : 								{
									"maxclass" : "newobj",
									"text" : "metro",
									"outlettype" : [ "bang" ],
									"fontsize" : 12.0,
									"patching_rect" : [ 735.0, 405.0, 41.0, 20.0 ],
									"numinlets" : 2,
									"id" : "obj-42",
									"fontname" : "Arial",
									"numoutlets" : 1
								}

							}
, 							{
								"box" : 								{
									"maxclass" : "comment",
									"text" : "Trigger new trajectory",
									"fontsize" : 12.0,
									"patching_rect" : [ 750.0, 435.0, 126.0, 20.0 ],
									"numinlets" : 1,
									"id" : "obj-41",
									"fontname" : "Arial",
									"numoutlets" : 0
								}

							}
, 							{
								"box" : 								{
									"maxclass" : "button",
									"outlettype" : [ "bang" ],
									"patching_rect" : [ 735.0, 435.0, 20.0, 20.0 ],
									"numinlets" : 1,
									"id" : "obj-39",
									"numoutlets" : 1
								}

							}
, 							{
								"box" : 								{
									"maxclass" : "comment",
									"text" : "K",
									"fontsize" : 12.0,
									"patching_rect" : [ 675.0, 420.0, 19.0, 20.0 ],
									"numinlets" : 1,
									"id" : "obj-37",
									"fontname" : "Arial",
									"numoutlets" : 0
								}

							}
, 							{
								"box" : 								{
									"maxclass" : "flonum",
									"outlettype" : [ "float", "bang" ],
									"fontsize" : 12.0,
									"minimum" : 0.0,
									"patching_rect" : [ 675.0, 435.0, 50.0, 20.0 ],
									"numinlets" : 1,
									"id" : "obj-35",
									"fontname" : "Arial",
									"numoutlets" : 2
								}

							}
, 							{
								"box" : 								{
									"maxclass" : "comment",
									"text" : "Clear image",
									"fontsize" : 12.0,
									"patching_rect" : [ 135.0, 195.0, 75.0, 20.0 ],
									"numinlets" : 1,
									"id" : "obj-33",
									"fontname" : "Arial",
									"numoutlets" : 0
								}

							}
, 							{
								"box" : 								{
									"maxclass" : "comment",
									"text" : "Zoom Origin",
									"fontsize" : 12.0,
									"patching_rect" : [ 450.0, 315.0, 77.0, 20.0 ],
									"numinlets" : 1,
									"id" : "obj-31",
									"fontname" : "Arial",
									"numoutlets" : 0
								}

							}
, 							{
								"box" : 								{
									"maxclass" : "comment",
									"text" : "Zoom Factor",
									"fontsize" : 12.0,
									"patching_rect" : [ 375.0, 300.0, 79.0, 20.0 ],
									"numinlets" : 1,
									"id" : "obj-29",
									"fontname" : "Arial",
									"numoutlets" : 0
								}

							}
, 							{
								"box" : 								{
									"maxclass" : "message",
									"text" : "10 $1",
									"outlettype" : [ "" ],
									"fontsize" : 12.0,
									"patching_rect" : [ 375.0, 375.0, 41.0, 18.0 ],
									"numinlets" : 2,
									"id" : "obj-27",
									"fontname" : "Arial",
									"numoutlets" : 1
								}

							}
, 							{
								"box" : 								{
									"maxclass" : "newobj",
									"text" : "pow",
									"outlettype" : [ "float" ],
									"fontsize" : 12.0,
									"patching_rect" : [ 375.0, 405.0, 33.0, 20.0 ],
									"numinlets" : 2,
									"id" : "obj-25",
									"fontname" : "Arial",
									"numoutlets" : 1
								}

							}
, 							{
								"box" : 								{
									"maxclass" : "slider",
									"outlettype" : [ "" ],
									"size" : 10.0,
									"floatoutput" : 1,
									"min" : -5.0,
									"patching_rect" : [ 375.0, 315.0, 20.0, 57.0 ],
									"numinlets" : 1,
									"id" : "obj-24",
									"numoutlets" : 1
								}

							}
, 							{
								"box" : 								{
									"maxclass" : "flonum",
									"outlettype" : [ "float", "bang" ],
									"fontsize" : 12.0,
									"minimum" : 0.0,
									"patching_rect" : [ 375.0, 435.0, 68.0, 20.0 ],
									"numinlets" : 1,
									"id" : "obj-23",
									"fontname" : "Arial",
									"numoutlets" : 2
								}

							}
, 							{
								"box" : 								{
									"maxclass" : "newobj",
									"text" : "zmap 0 999 0 1",
									"outlettype" : [ "" ],
									"fontsize" : 12.0,
									"patching_rect" : [ 555.0, 435.0, 93.0, 20.0 ],
									"numinlets" : 5,
									"id" : "obj-21",
									"fontname" : "Arial",
									"numoutlets" : 1
								}

							}
, 							{
								"box" : 								{
									"maxclass" : "newobj",
									"text" : "zmap 0 999 0 1",
									"outlettype" : [ "" ],
									"fontsize" : 12.0,
									"patching_rect" : [ 450.0, 435.0, 93.0, 20.0 ],
									"numinlets" : 5,
									"id" : "obj-20",
									"fontname" : "Arial",
									"numoutlets" : 1
								}

							}
, 							{
								"box" : 								{
									"maxclass" : "pictslider",
									"outlettype" : [ "int", "int" ],
									"patching_rect" : [ 450.0, 330.0, 100.0, 100.0 ],
									"numinlets" : 2,
									"id" : "obj-19",
									"rightvalue" : 999,
									"numoutlets" : 2,
									"topvalue" : 999
								}

							}
, 							{
								"box" : 								{
									"maxclass" : "newobj",
									"text" : "p zoom",
									"outlettype" : [ "signal", "signal" ],
									"fontsize" : 12.0,
									"patching_rect" : [ 675.0, 585.0, 73.0, 20.0 ],
									"numinlets" : 5,
									"id" : "obj-18",
									"fontname" : "Arial",
									"numoutlets" : 2,
									"patcher" : 									{
										"fileversion" : 1,
										"rect" : [ 75.0, 119.0, 258.0, 315.0 ],
										"bglocked" : 0,
										"defrect" : [ 75.0, 119.0, 258.0, 315.0 ],
										"openrect" : [ 0.0, 0.0, 0.0, 0.0 ],
										"openinpresentation" : 0,
										"default_fontsize" : 12.0,
										"default_fontface" : 0,
										"default_fontname" : "Arial",
										"gridonopen" : 0,
										"gridsize" : [ 15.0, 15.0 ],
										"gridsnaponopen" : 0,
										"toolbarvisible" : 1,
										"boxanimatetime" : 200,
										"imprint" : 0,
										"enablehscroll" : 1,
										"enablevscroll" : 1,
										"devicewidth" : 0.0,
										"boxes" : [ 											{
												"box" : 												{
													"maxclass" : "comment",
													"text" : "Inverting Y",
													"fontsize" : 12.0,
													"patching_rect" : [ 135.0, 165.0, 68.0, 20.0 ],
													"numinlets" : 1,
													"id" : "obj-21",
													"fontname" : "Arial",
													"numoutlets" : 0
												}

											}
, 											{
												"box" : 												{
													"maxclass" : "newobj",
													"text" : "*~ -1",
													"outlettype" : [ "signal" ],
													"fontsize" : 12.0,
													"patching_rect" : [ 90.0, 165.0, 36.0, 20.0 ],
													"numinlets" : 2,
													"id" : "obj-20",
													"fontname" : "Arial",
													"numoutlets" : 1
												}

											}
, 											{
												"box" : 												{
													"maxclass" : "newobj",
													"text" : "+~ 120",
													"outlettype" : [ "signal" ],
													"fontsize" : 12.0,
													"patching_rect" : [ 90.0, 225.0, 48.0, 20.0 ],
													"numinlets" : 2,
													"id" : "obj-18",
													"fontname" : "Arial",
													"numoutlets" : 1
												}

											}
, 											{
												"box" : 												{
													"maxclass" : "outlet",
													"patching_rect" : [ 90.0, 285.0, 25.0, 25.0 ],
													"numinlets" : 1,
													"id" : "obj-19",
													"numoutlets" : 0,
													"comment" : "(signal) Scaled Y"
												}

											}
, 											{
												"box" : 												{
													"maxclass" : "comment",
													"text" : "Scaling to 320x240",
													"fontsize" : 12.0,
													"patching_rect" : [ 135.0, 195.0, 113.0, 20.0 ],
													"numinlets" : 1,
													"id" : "obj-17",
													"fontname" : "Arial",
													"numoutlets" : 0
												}

											}
, 											{
												"box" : 												{
													"maxclass" : "newobj",
													"text" : "*~ 120",
													"outlettype" : [ "signal" ],
													"fontsize" : 12.0,
													"patching_rect" : [ 90.0, 195.0, 46.0, 20.0 ],
													"numinlets" : 2,
													"id" : "obj-8",
													"fontname" : "Arial",
													"numoutlets" : 1
												}

											}
, 											{
												"box" : 												{
													"maxclass" : "newobj",
													"text" : "*~ 160",
													"outlettype" : [ "signal" ],
													"fontsize" : 12.0,
													"patching_rect" : [ 15.0, 195.0, 46.0, 20.0 ],
													"numinlets" : 2,
													"id" : "obj-7",
													"fontname" : "Arial",
													"numoutlets" : 1
												}

											}
, 											{
												"box" : 												{
													"maxclass" : "newobj",
													"text" : "clip~ -1 1",
													"outlettype" : [ "signal" ],
													"fontsize" : 12.0,
													"patching_rect" : [ 90.0, 135.0, 60.0, 20.0 ],
													"numinlets" : 3,
													"id" : "obj-6",
													"fontname" : "Arial",
													"numoutlets" : 1
												}

											}
, 											{
												"box" : 												{
													"maxclass" : "newobj",
													"text" : "clip~ -1 1",
													"outlettype" : [ "signal" ],
													"fontsize" : 12.0,
													"patching_rect" : [ 15.0, 135.0, 60.0, 20.0 ],
													"numinlets" : 3,
													"id" : "obj-5",
													"fontname" : "Arial",
													"numoutlets" : 1
												}

											}
, 											{
												"box" : 												{
													"maxclass" : "newobj",
													"text" : "*~",
													"outlettype" : [ "signal" ],
													"fontsize" : 12.0,
													"patching_rect" : [ 90.0, 105.0, 32.5, 20.0 ],
													"numinlets" : 2,
													"id" : "obj-4",
													"fontname" : "Arial",
													"numoutlets" : 1
												}

											}
, 											{
												"box" : 												{
													"maxclass" : "newobj",
													"text" : "-~",
													"outlettype" : [ "signal" ],
													"fontsize" : 12.0,
													"patching_rect" : [ 90.0, 75.0, 32.5, 20.0 ],
													"numinlets" : 2,
													"id" : "obj-3",
													"fontname" : "Arial",
													"numoutlets" : 1
												}

											}
, 											{
												"box" : 												{
													"maxclass" : "inlet",
													"outlettype" : [ "" ],
													"patching_rect" : [ 150.0, 15.0, 25.0, 25.0 ],
													"numinlets" : 0,
													"id" : "obj-2",
													"numoutlets" : 1,
													"comment" : "(int/float) Y Origin"
												}

											}
, 											{
												"box" : 												{
													"maxclass" : "inlet",
													"outlettype" : [ "signal" ],
													"patching_rect" : [ 90.0, 15.0, 25.0, 25.0 ],
													"numinlets" : 0,
													"id" : "obj-1",
													"numoutlets" : 1,
													"comment" : "(signal) Original Y"
												}

											}
, 											{
												"box" : 												{
													"maxclass" : "newobj",
													"text" : "+~ 160",
													"outlettype" : [ "signal" ],
													"fontsize" : 12.0,
													"patching_rect" : [ 15.0, 225.0, 48.0, 20.0 ],
													"numinlets" : 2,
													"id" : "obj-14",
													"fontname" : "Arial",
													"numoutlets" : 1
												}

											}
, 											{
												"box" : 												{
													"maxclass" : "newobj",
													"text" : "*~",
													"outlettype" : [ "signal" ],
													"fontsize" : 12.0,
													"patching_rect" : [ 15.0, 105.0, 32.5, 20.0 ],
													"numinlets" : 2,
													"id" : "obj-15",
													"fontname" : "Arial",
													"numoutlets" : 1
												}

											}
, 											{
												"box" : 												{
													"maxclass" : "newobj",
													"text" : "-~",
													"outlettype" : [ "signal" ],
													"fontsize" : 12.0,
													"patching_rect" : [ 15.0, 75.0, 32.5, 20.0 ],
													"numinlets" : 2,
													"id" : "obj-16",
													"fontname" : "Arial",
													"numoutlets" : 1
												}

											}
, 											{
												"box" : 												{
													"maxclass" : "inlet",
													"outlettype" : [ "float" ],
													"patching_rect" : [ 180.0, 15.0, 25.0, 25.0 ],
													"numinlets" : 0,
													"id" : "obj-13",
													"numoutlets" : 1,
													"comment" : "(int/float) Zoom Factor"
												}

											}
, 											{
												"box" : 												{
													"maxclass" : "inlet",
													"outlettype" : [ "" ],
													"patching_rect" : [ 120.0, 15.0, 25.0, 25.0 ],
													"numinlets" : 0,
													"id" : "obj-12",
													"numoutlets" : 1,
													"comment" : "(int/float) X Origin"
												}

											}
, 											{
												"box" : 												{
													"maxclass" : "outlet",
													"patching_rect" : [ 15.0, 285.0, 25.0, 25.0 ],
													"numinlets" : 1,
													"id" : "obj-11",
													"numoutlets" : 0,
													"comment" : "(signal) Scaled X"
												}

											}
, 											{
												"box" : 												{
													"maxclass" : "inlet",
													"outlettype" : [ "signal" ],
													"patching_rect" : [ 15.0, 15.0, 25.0, 25.0 ],
													"numinlets" : 0,
													"id" : "obj-10",
													"numoutlets" : 1,
													"comment" : "(signal) Original X"
												}

											}
 ],
										"lines" : [ 											{
												"patchline" : 												{
													"source" : [ "obj-10", 0 ],
													"destination" : [ "obj-16", 0 ],
													"hidden" : 0,
													"midpoints" : [  ]
												}

											}
, 											{
												"patchline" : 												{
													"source" : [ "obj-16", 0 ],
													"destination" : [ "obj-15", 0 ],
													"hidden" : 0,
													"midpoints" : [  ]
												}

											}
, 											{
												"patchline" : 												{
													"source" : [ "obj-12", 0 ],
													"destination" : [ "obj-16", 1 ],
													"hidden" : 0,
													"midpoints" : [ 129.5, 72.0, 38.0, 72.0 ]
												}

											}
, 											{
												"patchline" : 												{
													"source" : [ "obj-1", 0 ],
													"destination" : [ "obj-3", 0 ],
													"hidden" : 0,
													"midpoints" : [  ]
												}

											}
, 											{
												"patchline" : 												{
													"source" : [ "obj-2", 0 ],
													"destination" : [ "obj-3", 1 ],
													"hidden" : 0,
													"midpoints" : [ 159.5, 72.0, 113.0, 72.0 ]
												}

											}
, 											{
												"patchline" : 												{
													"source" : [ "obj-3", 0 ],
													"destination" : [ "obj-4", 0 ],
													"hidden" : 0,
													"midpoints" : [  ]
												}

											}
, 											{
												"patchline" : 												{
													"source" : [ "obj-13", 0 ],
													"destination" : [ "obj-4", 1 ],
													"hidden" : 0,
													"midpoints" : [ 189.5, 102.0, 113.0, 102.0 ]
												}

											}
, 											{
												"patchline" : 												{
													"source" : [ "obj-13", 0 ],
													"destination" : [ "obj-15", 1 ],
													"hidden" : 0,
													"midpoints" : [ 189.5, 102.0, 38.0, 102.0 ]
												}

											}
, 											{
												"patchline" : 												{
													"source" : [ "obj-4", 0 ],
													"destination" : [ "obj-6", 0 ],
													"hidden" : 0,
													"midpoints" : [  ]
												}

											}
, 											{
												"patchline" : 												{
													"source" : [ "obj-15", 0 ],
													"destination" : [ "obj-5", 0 ],
													"hidden" : 0,
													"midpoints" : [  ]
												}

											}
, 											{
												"patchline" : 												{
													"source" : [ "obj-5", 0 ],
													"destination" : [ "obj-7", 0 ],
													"hidden" : 0,
													"midpoints" : [  ]
												}

											}
, 											{
												"patchline" : 												{
													"source" : [ "obj-14", 0 ],
													"destination" : [ "obj-11", 0 ],
													"hidden" : 0,
													"midpoints" : [  ]
												}

											}
, 											{
												"patchline" : 												{
													"source" : [ "obj-7", 0 ],
													"destination" : [ "obj-14", 0 ],
													"hidden" : 0,
													"midpoints" : [  ]
												}

											}
, 											{
												"patchline" : 												{
													"source" : [ "obj-8", 0 ],
													"destination" : [ "obj-18", 0 ],
													"hidden" : 0,
													"midpoints" : [  ]
												}

											}
, 											{
												"patchline" : 												{
													"source" : [ "obj-18", 0 ],
													"destination" : [ "obj-19", 0 ],
													"hidden" : 0,
													"midpoints" : [  ]
												}

											}
, 											{
												"patchline" : 												{
													"source" : [ "obj-6", 0 ],
													"destination" : [ "obj-20", 0 ],
													"hidden" : 0,
													"midpoints" : [  ]
												}

											}
, 											{
												"patchline" : 												{
													"source" : [ "obj-20", 0 ],
													"destination" : [ "obj-8", 0 ],
													"hidden" : 0,
													"midpoints" : [  ]
												}

											}
 ]
									}
,
									"saved_object_attributes" : 									{
										"fontface" : 0,
										"fontsize" : 12.0,
										"default_fontface" : 0,
										"default_fontname" : "Arial",
										"fontname" : "Arial",
										"default_fontsize" : 12.0,
										"globalpatchername" : ""
									}

								}

							}
, 							{
								"box" : 								{
									"maxclass" : "newobj",
									"text" : "t startwindow",
									"outlettype" : [ "startwindow" ],
									"fontsize" : 12.0,
									"patching_rect" : [ 60.0, 540.0, 81.0, 20.0 ],
									"numinlets" : 1,
									"id" : "obj-17",
									"fontname" : "Arial",
									"numoutlets" : 1
								}

							}
, 							{
								"box" : 								{
									"maxclass" : "newobj",
									"text" : "t stop",
									"outlettype" : [ "stop" ],
									"fontsize" : 12.0,
									"patching_rect" : [ 15.0, 540.0, 40.0, 20.0 ],
									"numinlets" : 1,
									"id" : "obj-16",
									"fontname" : "Arial",
									"numoutlets" : 1
								}

							}
, 							{
								"box" : 								{
									"maxclass" : "newobj",
									"text" : "route 0 1",
									"outlettype" : [ "", "", "" ],
									"fontsize" : 12.0,
									"patching_rect" : [ 15.0, 510.0, 58.0, 20.0 ],
									"numinlets" : 1,
									"id" : "obj-15",
									"fontname" : "Arial",
									"numoutlets" : 3
								}

							}
, 							{
								"box" : 								{
									"maxclass" : "newobj",
									"text" : "dac~",
									"fontsize" : 12.0,
									"patching_rect" : [ 15.0, 570.0, 37.0, 20.0 ],
									"numinlets" : 2,
									"id" : "obj-14",
									"fontname" : "Arial",
									"numoutlets" : 0
								}

							}
, 							{
								"box" : 								{
									"maxclass" : "comment",
									"text" : "On/Off",
									"fontsize" : 12.0,
									"patching_rect" : [ 15.0, 150.0, 46.0, 20.0 ],
									"numinlets" : 1,
									"id" : "obj-13",
									"fontname" : "Arial",
									"numoutlets" : 0
								}

							}
, 							{
								"box" : 								{
									"maxclass" : "comment",
									"text" : "Refresh rate",
									"fontsize" : 12.0,
									"patching_rect" : [ 90.0, 120.0, 77.0, 20.0 ],
									"numinlets" : 1,
									"id" : "obj-11",
									"fontname" : "Arial",
									"numoutlets" : 0
								}

							}
, 							{
								"box" : 								{
									"maxclass" : "number",
									"outlettype" : [ "int", "bang" ],
									"fontsize" : 12.0,
									"minimum" : 0,
									"patching_rect" : [ 90.0, 135.0, 50.0, 20.0 ],
									"numinlets" : 1,
									"id" : "obj-9",
									"fontname" : "Arial",
									"numoutlets" : 2
								}

							}
, 							{
								"box" : 								{
									"maxclass" : "newobj",
									"text" : "metro",
									"outlettype" : [ "bang" ],
									"fontsize" : 12.0,
									"patching_rect" : [ 90.0, 165.0, 41.0, 20.0 ],
									"numinlets" : 2,
									"id" : "obj-7",
									"fontname" : "Arial",
									"numoutlets" : 1
								}

							}
, 							{
								"box" : 								{
									"maxclass" : "message",
									"text" : "clear",
									"outlettype" : [ "" ],
									"fontsize" : 12.0,
									"patching_rect" : [ 90.0, 195.0, 37.0, 18.0 ],
									"numinlets" : 2,
									"id" : "obj-6",
									"fontname" : "Arial",
									"numoutlets" : 1
								}

							}
, 							{
								"box" : 								{
									"maxclass" : "jit.pwindow",
									"outlettype" : [ "", "" ],
									"presentation_rect" : [ 0.0, 0.0, 320.0, 240.0 ],
									"depthbuffer" : 0,
									"patching_rect" : [ 30.0, 255.0, 320.0, 240.0 ],
									"numinlets" : 1,
									"id" : "obj-59",
									"numoutlets" : 2
								}

							}
, 							{
								"box" : 								{
									"maxclass" : "newobj",
									"text" : "jit.matrix image 1 char 320 240",
									"outlettype" : [ "jit_matrix", "" ],
									"fontsize" : 12.0,
									"patching_rect" : [ 30.0, 225.0, 175.0, 20.0 ],
									"numinlets" : 1,
									"id" : "obj-4",
									"fontname" : "Arial",
									"numoutlets" : 2
								}

							}
, 							{
								"box" : 								{
									"maxclass" : "toggle",
									"outlettype" : [ "int" ],
									"patching_rect" : [ 15.0, 165.0, 20.0, 20.0 ],
									"numinlets" : 1,
									"id" : "obj-3",
									"numoutlets" : 1
								}

							}
, 							{
								"box" : 								{
									"maxclass" : "newobj",
									"text" : "metro 40",
									"outlettype" : [ "bang" ],
									"fontsize" : 12.0,
									"patching_rect" : [ 30.0, 195.0, 58.0, 20.0 ],
									"numinlets" : 2,
									"id" : "obj-1",
									"fontname" : "Arial",
									"numoutlets" : 1
								}

							}
, 							{
								"box" : 								{
									"maxclass" : "panel",
									"bgcolor" : [ 0.917647, 0.937255, 0.670588, 1.0 ],
									"patching_rect" : [ 360.0, 255.0, 297.0, 206.0 ],
									"numinlets" : 1,
									"id" : "obj-38",
									"rounded" : 15,
									"numoutlets" : 0
								}

							}
, 							{
								"box" : 								{
									"maxclass" : "panel",
									"bgcolor" : [ 0.811765, 0.372549, 0.372549, 1.0 ],
									"patching_rect" : [ 660.0, 255.0, 226.0, 206.0 ],
									"numinlets" : 1,
									"id" : "obj-40",
									"rounded" : 15,
									"numoutlets" : 0
								}

							}
 ],
						"lines" : [ 							{
								"patchline" : 								{
									"source" : [ "obj-61", 2 ],
									"destination" : [ "obj-8", 0 ],
									"hidden" : 0,
									"midpoints" : [ 792.5, 579.5, 639.5, 579.5 ]
								}

							}
, 							{
								"patchline" : 								{
									"source" : [ "obj-61", 1 ],
									"destination" : [ "obj-18", 1 ],
									"hidden" : 0,
									"midpoints" : [ 738.5, 579.5, 698.0, 579.5 ]
								}

							}
, 							{
								"patchline" : 								{
									"source" : [ "obj-61", 0 ],
									"destination" : [ "obj-18", 0 ],
									"hidden" : 0,
									"midpoints" : [  ]
								}

							}
, 							{
								"patchline" : 								{
									"source" : [ "obj-35", 0 ],
									"destination" : [ "obj-61", 0 ],
									"hidden" : 0,
									"midpoints" : [  ]
								}

							}
, 							{
								"patchline" : 								{
									"source" : [ "obj-65", 0 ],
									"destination" : [ "obj-61", 0 ],
									"hidden" : 0,
									"midpoints" : [ 744.5, 549.5, 684.5, 549.5 ]
								}

							}
, 							{
								"patchline" : 								{
									"source" : [ "obj-17", 0 ],
									"destination" : [ "obj-14", 1 ],
									"hidden" : 0,
									"midpoints" : [ 69.5, 564.5, 42.5, 564.5 ]
								}

							}
, 							{
								"patchline" : 								{
									"source" : [ "obj-15", 1 ],
									"destination" : [ "obj-17", 0 ],
									"hidden" : 0,
									"midpoints" : [ 44.0, 534.5, 69.5, 534.5 ]
								}

							}
, 							{
								"patchline" : 								{
									"source" : [ "obj-18", 1 ],
									"destination" : [ "obj-22", 2 ],
									"hidden" : 0,
									"midpoints" : [ 738.5, 609.5, 732.5, 609.5 ]
								}

							}
, 							{
								"patchline" : 								{
									"source" : [ "obj-18", 0 ],
									"destination" : [ "obj-22", 1 ],
									"hidden" : 0,
									"midpoints" : [ 684.5, 609.5, 686.0, 609.5 ]
								}

							}
, 							{
								"patchline" : 								{
									"source" : [ "obj-8", 0 ],
									"destination" : [ "obj-22", 0 ],
									"hidden" : 0,
									"midpoints" : [  ]
								}

							}
, 							{
								"patchline" : 								{
									"source" : [ "obj-23", 0 ],
									"destination" : [ "obj-18", 4 ],
									"hidden" : 0,
									"midpoints" : [ 384.5, 579.5, 738.5, 579.5 ]
								}

							}
, 							{
								"patchline" : 								{
									"source" : [ "obj-3", 0 ],
									"destination" : [ "obj-1", 0 ],
									"hidden" : 0,
									"midpoints" : [ 24.5, 189.5, 39.5, 189.5 ]
								}

							}
, 							{
								"patchline" : 								{
									"source" : [ "obj-1", 0 ],
									"destination" : [ "obj-4", 0 ],
									"hidden" : 0,
									"midpoints" : [  ]
								}

							}
, 							{
								"patchline" : 								{
									"source" : [ "obj-4", 0 ],
									"destination" : [ "obj-59", 0 ],
									"hidden" : 0,
									"midpoints" : [  ]
								}

							}
, 							{
								"patchline" : 								{
									"source" : [ "obj-7", 0 ],
									"destination" : [ "obj-6", 0 ],
									"hidden" : 0,
									"midpoints" : [  ]
								}

							}
, 							{
								"patchline" : 								{
									"source" : [ "obj-6", 0 ],
									"destination" : [ "obj-4", 0 ],
									"hidden" : 0,
									"midpoints" : [ 99.5, 218.5, 39.5, 218.5 ]
								}

							}
, 							{
								"patchline" : 								{
									"source" : [ "obj-9", 0 ],
									"destination" : [ "obj-7", 0 ],
									"hidden" : 0,
									"midpoints" : [  ]
								}

							}
, 							{
								"patchline" : 								{
									"source" : [ "obj-9", 0 ],
									"destination" : [ "obj-7", 1 ],
									"hidden" : 0,
									"midpoints" : [ 99.5, 159.5, 121.5, 159.5 ]
								}

							}
, 							{
								"patchline" : 								{
									"source" : [ "obj-15", 0 ],
									"destination" : [ "obj-16", 0 ],
									"hidden" : 0,
									"midpoints" : [  ]
								}

							}
, 							{
								"patchline" : 								{
									"source" : [ "obj-16", 0 ],
									"destination" : [ "obj-14", 0 ],
									"hidden" : 0,
									"midpoints" : [  ]
								}

							}
, 							{
								"patchline" : 								{
									"source" : [ "obj-3", 0 ],
									"destination" : [ "obj-15", 0 ],
									"hidden" : 0,
									"midpoints" : [  ]
								}

							}
, 							{
								"patchline" : 								{
									"source" : [ "obj-24", 0 ],
									"destination" : [ "obj-27", 0 ],
									"hidden" : 0,
									"midpoints" : [  ]
								}

							}
, 							{
								"patchline" : 								{
									"source" : [ "obj-27", 0 ],
									"destination" : [ "obj-25", 0 ],
									"hidden" : 0,
									"midpoints" : [  ]
								}

							}
, 							{
								"patchline" : 								{
									"source" : [ "obj-25", 0 ],
									"destination" : [ "obj-23", 0 ],
									"hidden" : 0,
									"midpoints" : [  ]
								}

							}
, 							{
								"patchline" : 								{
									"source" : [ "obj-42", 0 ],
									"destination" : [ "obj-39", 0 ],
									"hidden" : 0,
									"midpoints" : [  ]
								}

							}
, 							{
								"patchline" : 								{
									"source" : [ "obj-44", 0 ],
									"destination" : [ "obj-42", 0 ],
									"hidden" : 0,
									"midpoints" : [  ]
								}

							}
, 							{
								"patchline" : 								{
									"source" : [ "obj-44", 0 ],
									"destination" : [ "obj-42", 1 ],
									"hidden" : 0,
									"midpoints" : [ 744.5, 399.5, 766.5, 399.5 ]
								}

							}
, 							{
								"patchline" : 								{
									"source" : [ "obj-39", 0 ],
									"destination" : [ "obj-62", 0 ],
									"hidden" : 0,
									"midpoints" : [  ]
								}

							}
, 							{
								"patchline" : 								{
									"source" : [ "obj-39", 0 ],
									"destination" : [ "obj-63", 0 ],
									"hidden" : 0,
									"midpoints" : [ 744.5, 459.5, 819.5, 459.5 ]
								}

							}
, 							{
								"patchline" : 								{
									"source" : [ "obj-64", 0 ],
									"destination" : [ "obj-63", 2 ],
									"hidden" : 0,
									"midpoints" : [ 399.5, 489.5, 861.5, 489.5 ]
								}

							}
, 							{
								"patchline" : 								{
									"source" : [ "obj-64", 0 ],
									"destination" : [ "obj-62", 2 ],
									"hidden" : 0,
									"midpoints" : [ 399.5, 489.5, 786.5, 489.5 ]
								}

							}
, 							{
								"patchline" : 								{
									"source" : [ "obj-62", 0 ],
									"destination" : [ "obj-65", 0 ],
									"hidden" : 0,
									"midpoints" : [  ]
								}

							}
, 							{
								"patchline" : 								{
									"source" : [ "obj-63", 0 ],
									"destination" : [ "obj-65", 1 ],
									"hidden" : 0,
									"midpoints" : [ 819.5, 519.5, 788.5, 519.5 ]
								}

							}
, 							{
								"patchline" : 								{
									"source" : [ "obj-23", 0 ],
									"destination" : [ "obj-64", 0 ],
									"hidden" : 0,
									"midpoints" : [ 384.5, 459.5, 399.5, 459.5 ]
								}

							}
, 							{
								"patchline" : 								{
									"source" : [ "obj-30", 0 ],
									"destination" : [ "obj-10", 0 ],
									"hidden" : 1,
									"midpoints" : [  ]
								}

							}
, 							{
								"patchline" : 								{
									"source" : [ "obj-30", 0 ],
									"destination" : [ "obj-36", 0 ],
									"hidden" : 1,
									"midpoints" : [ 459.5, 294.5, 504.5, 294.5 ]
								}

							}
, 							{
								"patchline" : 								{
									"source" : [ "obj-36", 0 ],
									"destination" : [ "obj-19", 0 ],
									"hidden" : 1,
									"midpoints" : [ 504.5, 323.5, 459.5, 323.5 ]
								}

							}
, 							{
								"patchline" : 								{
									"source" : [ "obj-10", 0 ],
									"destination" : [ "obj-24", 0 ],
									"hidden" : 1,
									"midpoints" : [ 459.5, 320.5, 384.5, 320.5 ]
								}

							}
, 							{
								"patchline" : 								{
									"source" : [ "obj-47", 0 ],
									"destination" : [ "obj-9", 0 ],
									"hidden" : 1,
									"midpoints" : [  ]
								}

							}
, 							{
								"patchline" : 								{
									"source" : [ "obj-47", 0 ],
									"destination" : [ "obj-24", 0 ],
									"hidden" : 1,
									"midpoints" : [  ]
								}

							}
, 							{
								"patchline" : 								{
									"source" : [ "obj-47", 0 ],
									"destination" : [ "obj-23", 0 ],
									"hidden" : 1,
									"midpoints" : [  ]
								}

							}
, 							{
								"patchline" : 								{
									"source" : [ "obj-47", 0 ],
									"destination" : [ "obj-19", 0 ],
									"hidden" : 1,
									"midpoints" : [  ]
								}

							}
, 							{
								"patchline" : 								{
									"source" : [ "obj-47", 0 ],
									"destination" : [ "obj-44", 0 ],
									"hidden" : 1,
									"midpoints" : [  ]
								}

							}
, 							{
								"patchline" : 								{
									"source" : [ "obj-47", 0 ],
									"destination" : [ "obj-35", 0 ],
									"hidden" : 1,
									"midpoints" : [  ]
								}

							}
, 							{
								"patchline" : 								{
									"source" : [ "obj-20", 0 ],
									"destination" : [ "obj-18", 2 ],
									"hidden" : 0,
									"midpoints" : [ 459.5, 579.5, 711.5, 579.5 ]
								}

							}
, 							{
								"patchline" : 								{
									"source" : [ "obj-20", 0 ],
									"destination" : [ "obj-62", 1 ],
									"hidden" : 0,
									"midpoints" : [ 459.5, 474.5, 765.5, 474.5 ]
								}

							}
, 							{
								"patchline" : 								{
									"source" : [ "obj-19", 0 ],
									"destination" : [ "obj-20", 0 ],
									"hidden" : 0,
									"midpoints" : [  ]
								}

							}
, 							{
								"patchline" : 								{
									"source" : [ "obj-21", 0 ],
									"destination" : [ "obj-18", 3 ],
									"hidden" : 0,
									"midpoints" : [ 564.5, 579.5, 725.0, 579.5 ]
								}

							}
, 							{
								"patchline" : 								{
									"source" : [ "obj-21", 0 ],
									"destination" : [ "obj-63", 1 ],
									"hidden" : 0,
									"midpoints" : [ 564.5, 474.5, 840.5, 474.5 ]
								}

							}
, 							{
								"patchline" : 								{
									"source" : [ "obj-19", 1 ],
									"destination" : [ "obj-21", 0 ],
									"hidden" : 0,
									"midpoints" : [ 540.5, 432.0, 564.5, 432.0 ]
								}

							}
 ]
					}
,
					"saved_object_attributes" : 					{
						"fontface" : 0,
						"fontsize" : 12.0,
						"default_fontface" : 0,
						"default_fontname" : "Arial",
						"fontname" : "Arial",
						"default_fontsize" : 12.0,
						"globalpatchername" : ""
					}

				}

			}
, 			{
				"box" : 				{
					"maxclass" : "newobj",
					"text" : "+ 1",
					"outlettype" : [ "int" ],
					"fontsize" : 11.595187,
					"patching_rect" : [ 15.0, 330.0, 32.5, 20.0 ],
					"numinlets" : 2,
					"id" : "obj-47",
					"fontname" : "Arial",
					"numoutlets" : 1
				}

			}
, 			{
				"box" : 				{
					"maxclass" : "comment",
					"text" : "Toggle to reset initial phase point with K",
					"linecount" : 2,
					"fontsize" : 11.595187,
					"patching_rect" : [ 15.0, 270.0, 120.0, 33.0 ],
					"numinlets" : 1,
					"id" : "obj-45",
					"fontname" : "Arial",
					"numoutlets" : 0
				}

			}
, 			{
				"box" : 				{
					"maxclass" : "toggle",
					"outlettype" : [ "int" ],
					"patching_rect" : [ 15.0, 300.0, 20.0, 20.0 ],
					"numinlets" : 1,
					"id" : "obj-33",
					"numoutlets" : 1
				}

			}
, 			{
				"box" : 				{
					"maxclass" : "newobj",
					"text" : "gate 2 1",
					"outlettype" : [ "", "" ],
					"fontsize" : 11.595187,
					"patching_rect" : [ 15.0, 360.0, 52.0, 20.0 ],
					"numinlets" : 2,
					"id" : "obj-20",
					"fontname" : "Arial",
					"numoutlets" : 2
				}

			}
, 			{
				"box" : 				{
					"maxclass" : "comment",
					"text" : "The moment (P) is not scaled, therefore it is not a good candidate as a source signal.",
					"fontsize" : 11.595187,
					"patching_rect" : [ 120.0, 555.0, 447.0, 20.0 ],
					"numinlets" : 1,
					"id" : "obj-11",
					"fontname" : "Arial",
					"numoutlets" : 0
				}

			}
, 			{
				"box" : 				{
					"maxclass" : "comment",
					"text" : "Gain",
					"fontsize" : 11.595187,
					"patching_rect" : [ 75.0, 570.0, 35.0, 20.0 ],
					"numinlets" : 1,
					"id" : "obj-46",
					"fontname" : "Arial",
					"numoutlets" : 0
				}

			}
, 			{
				"box" : 				{
					"maxclass" : "flonum",
					"outlettype" : [ "float", "bang" ],
					"fontsize" : 11.595187,
					"minimum" : 0.0,
					"patching_rect" : [ 30.0, 570.0, 50.0, 20.0 ],
					"numinlets" : 1,
					"id" : "obj-44",
					"fontname" : "Arial",
					"numoutlets" : 2
				}

			}
, 			{
				"box" : 				{
					"maxclass" : "number~",
					"outlettype" : [ "signal", "float" ],
					"fontsize" : 11.595187,
					"sig" : 0.0,
					"patching_rect" : [ 120.0, 525.0, 56.0, 20.0 ],
					"numinlets" : 2,
					"id" : "obj-40",
					"fontname" : "Arial",
					"mode" : 2,
					"numoutlets" : 2
				}

			}
, 			{
				"box" : 				{
					"maxclass" : "newobj",
					"text" : "*~ 0.2",
					"outlettype" : [ "signal" ],
					"fontsize" : 11.595187,
					"patching_rect" : [ 15.0, 600.0, 41.0, 20.0 ],
					"numinlets" : 2,
					"id" : "obj-37",
					"fontname" : "Arial",
					"numoutlets" : 1
				}

			}
, 			{
				"box" : 				{
					"maxclass" : "number~",
					"outlettype" : [ "signal", "float" ],
					"fontsize" : 11.595187,
					"sig" : 0.0,
					"patching_rect" : [ 60.0, 525.0, 56.0, 20.0 ],
					"numinlets" : 2,
					"id" : "obj-35",
					"fontname" : "Arial",
					"mode" : 2,
					"numoutlets" : 2
				}

			}
, 			{
				"box" : 				{
					"maxclass" : "comment",
					"text" : "Phase point velocity",
					"fontsize" : 11.595187,
					"patching_rect" : [ 135.0, 510.0, 114.0, 20.0 ],
					"numinlets" : 1,
					"id" : "obj-18",
					"fontname" : "Arial",
					"numoutlets" : 0
				}

			}
, 			{
				"box" : 				{
					"maxclass" : "comment",
					"text" : "X",
					"fontsize" : 11.595187,
					"patching_rect" : [ 30.0, 510.0, 19.0, 20.0 ],
					"numinlets" : 1,
					"id" : "obj-15",
					"fontname" : "Arial",
					"numoutlets" : 0
				}

			}
, 			{
				"box" : 				{
					"maxclass" : "comment",
					"text" : "P",
					"fontsize" : 11.595187,
					"patching_rect" : [ 75.0, 510.0, 19.0, 20.0 ],
					"numinlets" : 1,
					"id" : "obj-13",
					"fontname" : "Arial",
					"numoutlets" : 0
				}

			}
, 			{
				"box" : 				{
					"maxclass" : "comment",
					"text" : "Above K=1 it gets quite noisy for almost the entire phase space",
					"linecount" : 4,
					"fontsize" : 11.595187,
					"patching_rect" : [ 30.0, 195.0, 107.0, 60.0 ],
					"numinlets" : 1,
					"id" : "obj-9",
					"fontname" : "Arial",
					"numoutlets" : 0
				}

			}
, 			{
				"box" : 				{
					"maxclass" : "comment",
					"text" : "Press to set new initial phase point randomly",
					"linecount" : 3,
					"fontsize" : 11.595187,
					"patching_rect" : [ 45.0, 390.0, 97.0, 46.0 ],
					"numinlets" : 1,
					"id" : "obj-25",
					"fontname" : "Arial",
					"numoutlets" : 0
				}

			}
, 			{
				"box" : 				{
					"maxclass" : "button",
					"outlettype" : [ "bang" ],
					"patching_rect" : [ 30.0, 390.0, 20.0, 20.0 ],
					"numinlets" : 1,
					"id" : "obj-27",
					"numoutlets" : 1
				}

			}
, 			{
				"box" : 				{
					"maxclass" : "newobj",
					"text" : "sadam.standardMap~",
					"outlettype" : [ "signal", "signal", "signal" ],
					"fontsize" : 11.595187,
					"patching_rect" : [ 15.0, 480.0, 123.0, 20.0 ],
					"numinlets" : 3,
					"id" : "obj-21",
					"fontname" : "Arial",
					"numoutlets" : 3
				}

			}
, 			{
				"box" : 				{
					"maxclass" : "comment",
					"text" : "Press to set new initial phase point",
					"fontsize" : 11.595187,
					"patching_rect" : [ 225.0, 195.0, 189.0, 20.0 ],
					"numinlets" : 1,
					"id" : "obj-19",
					"fontname" : "Arial",
					"numoutlets" : 0
				}

			}
, 			{
				"box" : 				{
					"maxclass" : "comment",
					"text" : "Values scaled to [-1; 1]",
					"fontsize" : 11.595187,
					"patching_rect" : [ 450.0, 360.0, 128.0, 20.0 ],
					"numinlets" : 1,
					"id" : "obj-14",
					"fontname" : "Arial",
					"numoutlets" : 0
				}

			}
, 			{
				"box" : 				{
					"maxclass" : "comment",
					"text" : "Horizontal: X0",
					"fontsize" : 11.595187,
					"patching_rect" : [ 360.0, 330.0, 83.0, 20.0 ],
					"numinlets" : 1,
					"id" : "obj-12",
					"fontname" : "Arial",
					"numoutlets" : 0
				}

			}
, 			{
				"box" : 				{
					"maxclass" : "comment",
					"text" : "Vertical: P0",
					"fontsize" : 11.595187,
					"patching_rect" : [ 180.0, 255.0, 69.0, 20.0 ],
					"numinlets" : 1,
					"id" : "obj-10",
					"fontname" : "Arial",
					"numoutlets" : 0
				}

			}
, 			{
				"box" : 				{
					"maxclass" : "comment",
					"text" : "K, X0, P0",
					"fontsize" : 11.595187,
					"patching_rect" : [ 225.0, 390.0, 59.0, 20.0 ],
					"numinlets" : 1,
					"id" : "obj-3",
					"fontname" : "Arial",
					"numoutlets" : 0
				}

			}
, 			{
				"box" : 				{
					"maxclass" : "comment",
					"text" : "K",
					"fontsize" : 11.595187,
					"patching_rect" : [ 135.0, 195.0, 19.0, 20.0 ],
					"numinlets" : 1,
					"id" : "obj-43",
					"fontname" : "Arial",
					"numoutlets" : 0
				}

			}
, 			{
				"box" : 				{
					"maxclass" : "flonum",
					"outlettype" : [ "float", "bang" ],
					"fontsize" : 11.595187,
					"minimum" : 0.0,
					"patching_rect" : [ 135.0, 210.0, 50.0, 20.0 ],
					"numinlets" : 1,
					"id" : "obj-41",
					"fontname" : "Arial",
					"numoutlets" : 2
				}

			}
, 			{
				"box" : 				{
					"maxclass" : "button",
					"outlettype" : [ "bang" ],
					"patching_rect" : [ 210.0, 195.0, 20.0, 20.0 ],
					"numinlets" : 1,
					"id" : "obj-38",
					"numoutlets" : 1
				}

			}
, 			{
				"box" : 				{
					"maxclass" : "newobj",
					"text" : "t b b",
					"outlettype" : [ "bang", "bang" ],
					"fontsize" : 11.595187,
					"patching_rect" : [ 210.0, 225.0, 33.0, 20.0 ],
					"numinlets" : 1,
					"id" : "obj-36",
					"fontname" : "Arial",
					"numoutlets" : 2
				}

			}
, 			{
				"box" : 				{
					"maxclass" : "newobj",
					"text" : "pack 0. 0. 0.",
					"outlettype" : [ "" ],
					"fontsize" : 11.595187,
					"patching_rect" : [ 150.0, 390.0, 74.0, 20.0 ],
					"numinlets" : 3,
					"id" : "obj-32",
					"fontname" : "Arial",
					"numoutlets" : 1
				}

			}
, 			{
				"box" : 				{
					"maxclass" : "newobj",
					"text" : "zmap 0 127 -1 1",
					"outlettype" : [ "" ],
					"fontsize" : 11.595187,
					"patching_rect" : [ 360.0, 360.0, 94.0, 20.0 ],
					"numinlets" : 5,
					"id" : "obj-30",
					"fontname" : "Arial",
					"numoutlets" : 1
				}

			}
, 			{
				"box" : 				{
					"maxclass" : "newobj",
					"text" : "zmap 0 127 -1 1",
					"outlettype" : [ "" ],
					"fontsize" : 11.595187,
					"patching_rect" : [ 255.0, 360.0, 94.0, 20.0 ],
					"numinlets" : 5,
					"id" : "obj-28",
					"fontname" : "Arial",
					"numoutlets" : 1
				}

			}
, 			{
				"box" : 				{
					"maxclass" : "pictslider",
					"outlettype" : [ "int", "int" ],
					"patching_rect" : [ 255.0, 255.0, 100.0, 100.0 ],
					"numinlets" : 2,
					"id" : "obj-26",
					"numoutlets" : 2
				}

			}
, 			{
				"box" : 				{
					"maxclass" : "newobj",
					"text" : "autohelp",
					"fontsize" : 11.595187,
					"patching_rect" : [ 420.0, 630.0, 55.0, 20.0 ],
					"hidden" : 1,
					"numinlets" : 1,
					"id" : "obj-4",
					"fontname" : "Arial",
					"numoutlets" : 0
				}

			}
, 			{
				"box" : 				{
					"maxclass" : "ezdac~",
					"varname" : "autohelp_dac",
					"patching_rect" : [ 60.0, 633.0, 45.0, 45.0 ],
					"numinlets" : 2,
					"id" : "obj-2",
					"local" : 1,
					"numoutlets" : 0
				}

			}
, 			{
				"box" : 				{
					"maxclass" : "comment",
					"varname" : "autohelp_dac_text",
					"text" : "start audio",
					"linecount" : 2,
					"fontsize" : 11.595187,
					"patching_rect" : [ 19.0, 639.0, 38.0, 33.0 ],
					"numinlets" : 1,
					"id" : "obj-34",
					"fontname" : "Arial",
					"numoutlets" : 0
				}

			}
, 			{
				"box" : 				{
					"maxclass" : "panel",
					"varname" : "startwinwdow_panel",
					"bgcolor" : [ 1.0, 1.0, 1.0, 1.0 ],
					"bordercolor" : [ 0.392157, 0.792157, 0.117647, 1.0 ],
					"patching_rect" : [ 12.0, 628.0, 100.0, 55.0 ],
					"numinlets" : 1,
					"id" : "obj-39",
					"border" : 2,
					"numoutlets" : 0
				}

			}
, 			{
				"box" : 				{
					"maxclass" : "comment",
					"varname" : "autohelp_top_title",
					"text" : "sadam.standardMap~",
					"fontface" : 3,
					"fontsize" : 20.871338,
					"patching_rect" : [ 10.0, 8.0, 485.0, 30.0 ],
					"numinlets" : 1,
					"id" : "obj-5",
					"frgb" : [ 0.2, 0.2, 0.2, 1.0 ],
					"fontname" : "Arial",
					"textcolor" : [ 0.2, 0.2, 0.2, 1.0 ],
					"numoutlets" : 0
				}

			}
, 			{
				"box" : 				{
					"maxclass" : "comment",
					"varname" : "autohelp_top_digest",
					"text" : "A chaotic oscillator based on Chirikov's Standard Map.",
					"fontsize" : 12.754705,
					"patching_rect" : [ 10.0, 36.0, 485.0, 21.0 ],
					"numinlets" : 1,
					"id" : "obj-6",
					"frgb" : [ 0.2, 0.2, 0.2, 1.0 ],
					"fontname" : "Arial",
					"textcolor" : [ 0.2, 0.2, 0.2, 1.0 ],
					"numoutlets" : 0
				}

			}
, 			{
				"box" : 				{
					"maxclass" : "comment",
					"varname" : "autohelp_top_description",
					"text" : "sadam.standardMap~ will generate a signal based on the Standard Map, a one-parameter chaotic model widely used in condensed matter physics. As input it takes one parameter, the so-called 'kicking strength' (K). The initial phase (X0) and moment (P0) of the oscillator can be set manually or randomly. The object outputs the current phase (X) and moment (P) of the oscillator (the phase is scaled to fit in the [-1;1] region). The third outlet gives the current velocity of the phase point representing the current state of the oscillator. For further info about the Standard Map see http://www.scholarpedia.org/article/Chirikov_standard_map.",
					"linecount" : 7,
					"fontsize" : 11.595187,
					"patching_rect" : [ 10.0, 57.0, 489.0, 100.0 ],
					"numinlets" : 1,
					"id" : "obj-7",
					"fontname" : "Arial",
					"numoutlets" : 0
				}

			}
, 			{
				"box" : 				{
					"maxclass" : "textbutton",
					"varname" : "autohelp_top_ref",
					"outlettype" : [ "", "", "int" ],
					"fontface" : 3,
					"fontsize" : 12.754705,
					"spacing_y" : 0.0,
					"bgcolor" : [ 0.0, 0.0, 0.0, 0.0 ],
					"textoncolor" : [ 0.27, 0.35, 0.47, 1.0 ],
					"presentation_rect" : [ 0.0, 0.0, 233.766708, 14.666666 ],
					"bordercolor" : [ 0.0, 0.0, 0.0, 0.0 ],
					"fontlink" : 1,
					"textovercolor" : [ 0.4, 0.5, 0.65, 1.0 ],
					"bgovercolor" : [ 0.0, 0.0, 0.0, 0.0 ],
					"patching_rect" : [ 266.233276, 22.0, 233.766708, 14.666666 ],
					"numinlets" : 1,
					"id" : "obj-8",
					"fontname" : "Arial",
					"underline" : 1,
					"bgoveroncolor" : [ 0.0, 0.0, 0.0, 0.0 ],
					"textcolor" : [ 0.374, 0.47, 0.614, 1.0 ],
					"numoutlets" : 3,
					"spacing_x" : 0.0,
					"text" : "open sadam.standardMap~ reference",
					"bgoncolor" : [ 0.0, 0.0, 0.0, 0.0 ]
				}

			}
, 			{
				"box" : 				{
					"maxclass" : "comment",
					"varname" : "autohelp_see_title",
					"text" : "See Also:",
					"fontface" : 1,
					"fontsize" : 11.595187,
					"patching_rect" : [ 425.0, 634.0, 100.0, 20.0 ],
					"numinlets" : 1,
					"id" : "obj-22",
					"fontname" : "Arial",
					"numoutlets" : 0
				}

			}
, 			{
				"box" : 				{
					"maxclass" : "umenu",
					"varname" : "autohelp_see_menu",
					"outlettype" : [ "int", "", "" ],
					"fontsize" : 11.595187,
					"items" : [ "(Objects:)", ",", "cycle~", ",", "phasor~", ",", "rand~", ",", "sadam.rand~", ",", "<separator>" ],
					"types" : [  ],
					"patching_rect" : [ 425.0, 654.0, 130.0, 20.0 ],
					"numinlets" : 1,
					"id" : "obj-23",
					"fontname" : "Arial",
					"numoutlets" : 3
				}

			}
, 			{
				"box" : 				{
					"maxclass" : "panel",
					"varname" : "autohelp_top_panel",
					"background" : 1,
					"grad1" : [ 0.88, 0.98, 0.78, 1.0 ],
					"patching_rect" : [ 5.0, 5.0, 495.0, 52.0 ],
					"numinlets" : 1,
					"id" : "obj-16",
					"mode" : 1,
					"grad2" : [ 0.9, 0.9, 0.9, 1.0 ],
					"numoutlets" : 0
				}

			}
, 			{
				"box" : 				{
					"maxclass" : "panel",
					"varname" : "autohelp_see_panel",
					"background" : 1,
					"bgcolor" : [ 0.85, 0.85, 0.85, 0.75 ],
					"bordercolor" : [ 0.5, 0.5, 0.5, 0.75 ],
					"patching_rect" : [ 420.0, 630.0, 140.0, 50.0 ],
					"numinlets" : 1,
					"id" : "obj-24",
					"border" : 2,
					"numoutlets" : 0
				}

			}
 ],
		"lines" : [ 			{
				"patchline" : 				{
					"source" : [ "obj-49", 0 ],
					"destination" : [ "obj-50", 0 ],
					"hidden" : 1,
					"midpoints" : [  ]
				}

			}
, 			{
				"patchline" : 				{
					"source" : [ "obj-42", 0 ],
					"destination" : [ "obj-29", 0 ],
					"hidden" : 0,
					"midpoints" : [  ]
				}

			}
, 			{
				"patchline" : 				{
					"source" : [ "obj-29", 0 ],
					"destination" : [ "obj-21", 0 ],
					"hidden" : 0,
					"midpoints" : [ 204.5, 473.5, 24.5, 473.5 ]
				}

			}
, 			{
				"patchline" : 				{
					"source" : [ "obj-21", 1 ],
					"destination" : [ "obj-35", 0 ],
					"hidden" : 0,
					"midpoints" : [ 76.5, 504.5, 69.5, 504.5 ]
				}

			}
, 			{
				"patchline" : 				{
					"source" : [ "obj-21", 0 ],
					"destination" : [ "obj-37", 0 ],
					"hidden" : 0,
					"midpoints" : [  ]
				}

			}
, 			{
				"patchline" : 				{
					"source" : [ "obj-28", 0 ],
					"destination" : [ "obj-32", 1 ],
					"hidden" : 0,
					"midpoints" : [ 264.5, 384.5, 187.0, 384.5 ]
				}

			}
, 			{
				"patchline" : 				{
					"source" : [ "obj-30", 0 ],
					"destination" : [ "obj-32", 2 ],
					"hidden" : 0,
					"midpoints" : [ 369.5, 384.5, 214.5, 384.5 ]
				}

			}
, 			{
				"patchline" : 				{
					"source" : [ "obj-47", 0 ],
					"destination" : [ "obj-20", 0 ],
					"hidden" : 0,
					"midpoints" : [  ]
				}

			}
, 			{
				"patchline" : 				{
					"source" : [ "obj-33", 0 ],
					"destination" : [ "obj-47", 0 ],
					"hidden" : 0,
					"midpoints" : [  ]
				}

			}
, 			{
				"patchline" : 				{
					"source" : [ "obj-20", 1 ],
					"destination" : [ "obj-32", 0 ],
					"hidden" : 0,
					"midpoints" : [ 57.5, 384.5, 159.5, 384.5 ]
				}

			}
, 			{
				"patchline" : 				{
					"source" : [ "obj-20", 0 ],
					"destination" : [ "obj-21", 0 ],
					"hidden" : 0,
					"midpoints" : [  ]
				}

			}
, 			{
				"patchline" : 				{
					"source" : [ "obj-41", 0 ],
					"destination" : [ "obj-20", 1 ],
					"hidden" : 0,
					"midpoints" : [ 144.5, 354.5, 57.5, 354.5 ]
				}

			}
, 			{
				"patchline" : 				{
					"source" : [ "obj-27", 0 ],
					"destination" : [ "obj-21", 0 ],
					"hidden" : 0,
					"midpoints" : [ 39.5, 414.5, 24.5, 414.5 ]
				}

			}
, 			{
				"patchline" : 				{
					"source" : [ "obj-32", 0 ],
					"destination" : [ "obj-21", 0 ],
					"hidden" : 0,
					"midpoints" : [ 159.5, 444.5, 24.5, 444.5 ]
				}

			}
, 			{
				"patchline" : 				{
					"source" : [ "obj-36", 0 ],
					"destination" : [ "obj-32", 0 ],
					"hidden" : 0,
					"midpoints" : [ 219.5, 249.5, 159.5, 249.5 ]
				}

			}
, 			{
				"patchline" : 				{
					"source" : [ "obj-26", 0 ],
					"destination" : [ "obj-28", 0 ],
					"hidden" : 0,
					"midpoints" : [  ]
				}

			}
, 			{
				"patchline" : 				{
					"source" : [ "obj-26", 1 ],
					"destination" : [ "obj-30", 0 ],
					"hidden" : 0,
					"midpoints" : [ 345.5, 357.0, 369.5, 357.0 ]
				}

			}
, 			{
				"patchline" : 				{
					"source" : [ "obj-36", 1 ],
					"destination" : [ "obj-26", 0 ],
					"hidden" : 0,
					"midpoints" : [ 233.5, 249.5, 264.5, 249.5 ]
				}

			}
, 			{
				"patchline" : 				{
					"source" : [ "obj-38", 0 ],
					"destination" : [ "obj-36", 0 ],
					"hidden" : 0,
					"midpoints" : [  ]
				}

			}
, 			{
				"patchline" : 				{
					"source" : [ "obj-21", 2 ],
					"destination" : [ "obj-40", 0 ],
					"hidden" : 0,
					"midpoints" : [  ]
				}

			}
, 			{
				"patchline" : 				{
					"source" : [ "obj-44", 0 ],
					"destination" : [ "obj-37", 1 ],
					"hidden" : 0,
					"midpoints" : [ 39.5, 594.5, 46.5, 594.5 ]
				}

			}
, 			{
				"patchline" : 				{
					"source" : [ "obj-37", 0 ],
					"destination" : [ "obj-2", 0 ],
					"hidden" : 0,
					"midpoints" : [ 24.5, 626.0, 69.5, 626.0 ]
				}

			}
, 			{
				"patchline" : 				{
					"source" : [ "obj-37", 0 ],
					"destination" : [ "obj-2", 1 ],
					"hidden" : 0,
					"midpoints" : [ 24.5, 626.0, 95.5, 626.0 ]
				}

			}
, 			{
				"patchline" : 				{
					"source" : [ "obj-50", 1 ],
					"destination" : [ "obj-42", 0 ],
					"hidden" : 1,
					"midpoints" : [ 507.5, 479.0, 443.0, 479.0, 443.0, 410.0, 204.5, 410.0 ]
				}

			}
 ]
	}

}
