{
	"patcher" : 	{
		"fileversion" : 1,
		"appversion" : 		{
			"major" : 5,
			"minor" : 1,
			"revision" : 9
		}
,
		"rect" : [ 25.0, 69.0, 763.0, 836.0 ],
		"bglocked" : 0,
		"defrect" : [ 25.0, 69.0, 763.0, 836.0 ],
		"openrect" : [ 0.0, 0.0, 0.0, 0.0 ],
		"openinpresentation" : 0,
		"default_fontsize" : 12.0,
		"default_fontface" : 0,
		"default_fontname" : "Arial",
		"gridonopen" : 0,
		"gridsize" : [ 15.0, 15.0 ],
		"gridsnaponopen" : 0,
		"toolbarvisible" : 1,
		"boxanimatetime" : 200,
		"imprint" : 0,
		"enablehscroll" : 1,
		"enablevscroll" : 1,
		"devicewidth" : 0.0,
		"boxes" : [ 			{
				"box" : 				{
					"maxclass" : "newobj",
					"text" : "p \"Some More Clients...\"",
					"patching_rect" : [ 270.0, 780.0, 141.0, 20.0 ],
					"id" : "obj-8",
					"fontname" : "Arial",
					"numinlets" : 0,
					"fontsize" : 12.0,
					"numoutlets" : 0,
					"patcher" : 					{
						"fileversion" : 1,
						"appversion" : 						{
							"major" : 5,
							"minor" : 1,
							"revision" : 9
						}
,
						"rect" : [ 789.0, 332.0, 739.0, 515.0 ],
						"bglocked" : 0,
						"defrect" : [ 789.0, 332.0, 739.0, 515.0 ],
						"openrect" : [ 0.0, 0.0, 0.0, 0.0 ],
						"openinpresentation" : 0,
						"default_fontsize" : 12.0,
						"default_fontface" : 0,
						"default_fontname" : "Arial",
						"gridonopen" : 0,
						"gridsize" : [ 15.0, 15.0 ],
						"gridsnaponopen" : 0,
						"toolbarvisible" : 1,
						"boxanimatetime" : 200,
						"imprint" : 0,
						"enablehscroll" : 1,
						"enablevscroll" : 1,
						"devicewidth" : 0.0,
						"boxes" : [ 							{
								"box" : 								{
									"maxclass" : "comment",
									"text" : "Connect/Disconnect to/from the Server.",
									"linecount" : 2,
									"patching_rect" : [ 570.0, 367.0, 121.0, 34.0 ],
									"id" : "obj-39",
									"fontname" : "Arial",
									"numinlets" : 1,
									"fontsize" : 12.0,
									"numoutlets" : 0,
									"presentation_rect" : [ 572.0, 337.0, 0.0, 0.0 ]
								}

							}
, 							{
								"box" : 								{
									"maxclass" : "comment",
									"text" : "Send some data",
									"linecount" : 3,
									"patching_rect" : [ 510.0, 360.0, 43.0, 48.0 ],
									"id" : "obj-40",
									"fontname" : "Arial",
									"numinlets" : 1,
									"fontsize" : 12.0,
									"numoutlets" : 0,
									"presentation_rect" : [ 512.0, 330.0, 0.0, 0.0 ]
								}

							}
, 							{
								"box" : 								{
									"maxclass" : "newobj",
									"text" : "print \"Client M\"",
									"patching_rect" : [ 510.0, 465.0, 90.0, 20.0 ],
									"id" : "obj-41",
									"fontname" : "Arial",
									"numinlets" : 1,
									"fontsize" : 12.0,
									"numoutlets" : 0
								}

							}
, 							{
								"box" : 								{
									"maxclass" : "number",
									"minimum" : 0,
									"outlettype" : [ "int", "bang" ],
									"maximum" : 255,
									"patching_rect" : [ 510.0, 403.0, 50.0, 20.0 ],
									"id" : "obj-42",
									"fontname" : "Arial",
									"numinlets" : 1,
									"fontsize" : 12.0,
									"numoutlets" : 2,
									"presentation_rect" : [ 512.0, 373.0, 0.0, 0.0 ]
								}

							}
, 							{
								"box" : 								{
									"maxclass" : "message",
									"text" : "disconnect",
									"outlettype" : [ "" ],
									"patching_rect" : [ 630.0, 403.0, 68.0, 18.0 ],
									"id" : "obj-43",
									"fontname" : "Arial",
									"numinlets" : 2,
									"fontsize" : 12.0,
									"numoutlets" : 1,
									"presentation_rect" : [ 632.0, 373.0, 0.0, 0.0 ]
								}

							}
, 							{
								"box" : 								{
									"maxclass" : "message",
									"text" : "connect",
									"outlettype" : [ "" ],
									"patching_rect" : [ 570.0, 403.0, 53.0, 18.0 ],
									"id" : "obj-44",
									"fontname" : "Arial",
									"numinlets" : 2,
									"fontsize" : 12.0,
									"numoutlets" : 1,
									"presentation_rect" : [ 572.0, 373.0, 0.0, 0.0 ]
								}

							}
, 							{
								"box" : 								{
									"maxclass" : "newobj",
									"text" : "sadam.tcpClient localhost 6543",
									"outlettype" : [ "list", "int" ],
									"patching_rect" : [ 510.0, 433.0, 177.0, 20.0 ],
									"id" : "obj-45",
									"fontname" : "Arial",
									"numinlets" : 1,
									"fontsize" : 12.0,
									"numoutlets" : 2,
									"presentation_rect" : [ 512.0, 403.0, 0.0, 0.0 ],
									"saved_object_attributes" : 									{
										"keepalive" : 1,
										"keepalive_probes" : 3,
										"keepalive_time" : 60,
										"keepalive_interval" : 10
									}

								}

							}
, 							{
								"box" : 								{
									"maxclass" : "comment",
									"text" : "Connect/Disconnect to/from the Server.",
									"linecount" : 2,
									"patching_rect" : [ 330.0, 367.0, 121.0, 34.0 ],
									"id" : "obj-46",
									"fontname" : "Arial",
									"numinlets" : 1,
									"fontsize" : 12.0,
									"numoutlets" : 0,
									"presentation_rect" : [ 332.0, 337.0, 0.0, 0.0 ]
								}

							}
, 							{
								"box" : 								{
									"maxclass" : "comment",
									"text" : "Send some data",
									"linecount" : 3,
									"patching_rect" : [ 270.0, 360.0, 43.0, 48.0 ],
									"id" : "obj-47",
									"fontname" : "Arial",
									"numinlets" : 1,
									"fontsize" : 12.0,
									"numoutlets" : 0,
									"presentation_rect" : [ 272.0, 330.0, 0.0, 0.0 ]
								}

							}
, 							{
								"box" : 								{
									"maxclass" : "newobj",
									"text" : "print \"Client L\"",
									"patching_rect" : [ 270.0, 465.0, 86.0, 20.0 ],
									"id" : "obj-48",
									"fontname" : "Arial",
									"numinlets" : 1,
									"fontsize" : 12.0,
									"numoutlets" : 0
								}

							}
, 							{
								"box" : 								{
									"maxclass" : "number",
									"minimum" : 0,
									"outlettype" : [ "int", "bang" ],
									"maximum" : 255,
									"patching_rect" : [ 270.0, 403.0, 50.0, 20.0 ],
									"id" : "obj-49",
									"fontname" : "Arial",
									"numinlets" : 1,
									"fontsize" : 12.0,
									"numoutlets" : 2,
									"presentation_rect" : [ 272.0, 373.0, 0.0, 0.0 ]
								}

							}
, 							{
								"box" : 								{
									"maxclass" : "message",
									"text" : "disconnect",
									"outlettype" : [ "" ],
									"patching_rect" : [ 390.0, 403.0, 68.0, 18.0 ],
									"id" : "obj-50",
									"fontname" : "Arial",
									"numinlets" : 2,
									"fontsize" : 12.0,
									"numoutlets" : 1,
									"presentation_rect" : [ 392.0, 373.0, 0.0, 0.0 ]
								}

							}
, 							{
								"box" : 								{
									"maxclass" : "message",
									"text" : "connect",
									"outlettype" : [ "" ],
									"patching_rect" : [ 330.0, 403.0, 53.0, 18.0 ],
									"id" : "obj-51",
									"fontname" : "Arial",
									"numinlets" : 2,
									"fontsize" : 12.0,
									"numoutlets" : 1,
									"presentation_rect" : [ 332.0, 373.0, 0.0, 0.0 ]
								}

							}
, 							{
								"box" : 								{
									"maxclass" : "newobj",
									"text" : "sadam.tcpClient localhost 6543",
									"outlettype" : [ "list", "int" ],
									"patching_rect" : [ 270.0, 433.0, 177.0, 20.0 ],
									"id" : "obj-52",
									"fontname" : "Arial",
									"numinlets" : 1,
									"fontsize" : 12.0,
									"numoutlets" : 2,
									"presentation_rect" : [ 272.0, 403.0, 0.0, 0.0 ],
									"saved_object_attributes" : 									{
										"keepalive" : 1,
										"keepalive_probes" : 3,
										"keepalive_time" : 60,
										"keepalive_interval" : 10
									}

								}

							}
, 							{
								"box" : 								{
									"maxclass" : "comment",
									"text" : "Connect/Disconnect to/from the Server.",
									"linecount" : 2,
									"patching_rect" : [ 90.0, 367.0, 121.0, 34.0 ],
									"id" : "obj-53",
									"fontname" : "Arial",
									"numinlets" : 1,
									"fontsize" : 12.0,
									"numoutlets" : 0,
									"presentation_rect" : [ 92.0, 337.0, 0.0, 0.0 ]
								}

							}
, 							{
								"box" : 								{
									"maxclass" : "comment",
									"text" : "Send some data",
									"linecount" : 3,
									"patching_rect" : [ 30.0, 360.0, 43.0, 48.0 ],
									"id" : "obj-55",
									"fontname" : "Arial",
									"numinlets" : 1,
									"fontsize" : 12.0,
									"numoutlets" : 0,
									"presentation_rect" : [ 32.0, 330.0, 0.0, 0.0 ]
								}

							}
, 							{
								"box" : 								{
									"maxclass" : "newobj",
									"text" : "print \"Client K\"",
									"patching_rect" : [ 30.0, 465.0, 88.0, 20.0 ],
									"id" : "obj-58",
									"fontname" : "Arial",
									"numinlets" : 1,
									"fontsize" : 12.0,
									"numoutlets" : 0
								}

							}
, 							{
								"box" : 								{
									"maxclass" : "number",
									"minimum" : 0,
									"outlettype" : [ "int", "bang" ],
									"maximum" : 255,
									"patching_rect" : [ 30.0, 403.0, 50.0, 20.0 ],
									"id" : "obj-59",
									"fontname" : "Arial",
									"numinlets" : 1,
									"fontsize" : 12.0,
									"numoutlets" : 2,
									"presentation_rect" : [ 32.0, 373.0, 0.0, 0.0 ]
								}

							}
, 							{
								"box" : 								{
									"maxclass" : "message",
									"text" : "disconnect",
									"outlettype" : [ "" ],
									"patching_rect" : [ 150.0, 403.0, 68.0, 18.0 ],
									"id" : "obj-60",
									"fontname" : "Arial",
									"numinlets" : 2,
									"fontsize" : 12.0,
									"numoutlets" : 1,
									"presentation_rect" : [ 152.0, 373.0, 0.0, 0.0 ]
								}

							}
, 							{
								"box" : 								{
									"maxclass" : "message",
									"text" : "connect",
									"outlettype" : [ "" ],
									"patching_rect" : [ 90.0, 403.0, 53.0, 18.0 ],
									"id" : "obj-61",
									"fontname" : "Arial",
									"numinlets" : 2,
									"fontsize" : 12.0,
									"numoutlets" : 1,
									"presentation_rect" : [ 92.0, 373.0, 0.0, 0.0 ]
								}

							}
, 							{
								"box" : 								{
									"maxclass" : "newobj",
									"text" : "sadam.tcpClient localhost 6543",
									"outlettype" : [ "list", "int" ],
									"patching_rect" : [ 30.0, 433.0, 177.0, 20.0 ],
									"id" : "obj-62",
									"fontname" : "Arial",
									"numinlets" : 1,
									"fontsize" : 12.0,
									"numoutlets" : 2,
									"presentation_rect" : [ 32.0, 403.0, 0.0, 0.0 ],
									"saved_object_attributes" : 									{
										"keepalive" : 1,
										"keepalive_probes" : 3,
										"keepalive_time" : 60,
										"keepalive_interval" : 10
									}

								}

							}
, 							{
								"box" : 								{
									"maxclass" : "comment",
									"text" : "Connect/Disconnect to/from the Server.",
									"linecount" : 2,
									"patching_rect" : [ 570.0, 202.0, 121.0, 34.0 ],
									"id" : "obj-1",
									"fontname" : "Arial",
									"numinlets" : 1,
									"fontsize" : 12.0,
									"numoutlets" : 0,
									"presentation_rect" : [ 568.0, 210.0, 0.0, 0.0 ]
								}

							}
, 							{
								"box" : 								{
									"maxclass" : "comment",
									"text" : "Send some data",
									"linecount" : 3,
									"patching_rect" : [ 510.0, 195.0, 43.0, 48.0 ],
									"id" : "obj-2",
									"fontname" : "Arial",
									"numinlets" : 1,
									"fontsize" : 12.0,
									"numoutlets" : 0,
									"presentation_rect" : [ 508.0, 203.0, 0.0, 0.0 ]
								}

							}
, 							{
								"box" : 								{
									"maxclass" : "newobj",
									"text" : "print \"Client J\"",
									"patching_rect" : [ 510.0, 300.0, 86.0, 20.0 ],
									"id" : "obj-3",
									"fontname" : "Arial",
									"numinlets" : 1,
									"fontsize" : 12.0,
									"numoutlets" : 0
								}

							}
, 							{
								"box" : 								{
									"maxclass" : "number",
									"minimum" : 0,
									"outlettype" : [ "int", "bang" ],
									"maximum" : 255,
									"patching_rect" : [ 510.0, 238.0, 50.0, 20.0 ],
									"id" : "obj-4",
									"fontname" : "Arial",
									"numinlets" : 1,
									"fontsize" : 12.0,
									"numoutlets" : 2,
									"presentation_rect" : [ 508.0, 246.0, 0.0, 0.0 ]
								}

							}
, 							{
								"box" : 								{
									"maxclass" : "message",
									"text" : "disconnect",
									"outlettype" : [ "" ],
									"patching_rect" : [ 630.0, 238.0, 68.0, 18.0 ],
									"id" : "obj-5",
									"fontname" : "Arial",
									"numinlets" : 2,
									"fontsize" : 12.0,
									"numoutlets" : 1,
									"presentation_rect" : [ 628.0, 246.0, 0.0, 0.0 ]
								}

							}
, 							{
								"box" : 								{
									"maxclass" : "message",
									"text" : "connect",
									"outlettype" : [ "" ],
									"patching_rect" : [ 570.0, 238.0, 53.0, 18.0 ],
									"id" : "obj-6",
									"fontname" : "Arial",
									"numinlets" : 2,
									"fontsize" : 12.0,
									"numoutlets" : 1,
									"presentation_rect" : [ 568.0, 246.0, 0.0, 0.0 ]
								}

							}
, 							{
								"box" : 								{
									"maxclass" : "newobj",
									"text" : "sadam.tcpClient localhost 6543",
									"outlettype" : [ "list", "int" ],
									"patching_rect" : [ 510.0, 268.0, 177.0, 20.0 ],
									"id" : "obj-8",
									"fontname" : "Arial",
									"numinlets" : 1,
									"fontsize" : 12.0,
									"numoutlets" : 2,
									"presentation_rect" : [ 508.0, 276.0, 0.0, 0.0 ],
									"saved_object_attributes" : 									{
										"keepalive" : 1,
										"keepalive_probes" : 3,
										"keepalive_time" : 60,
										"keepalive_interval" : 10
									}

								}

							}
, 							{
								"box" : 								{
									"maxclass" : "comment",
									"text" : "Connect/Disconnect to/from the Server.",
									"linecount" : 2,
									"patching_rect" : [ 330.0, 202.0, 121.0, 34.0 ],
									"id" : "obj-11",
									"fontname" : "Arial",
									"numinlets" : 1,
									"fontsize" : 12.0,
									"numoutlets" : 0,
									"presentation_rect" : [ 328.0, 210.0, 0.0, 0.0 ]
								}

							}
, 							{
								"box" : 								{
									"maxclass" : "comment",
									"text" : "Send some data",
									"linecount" : 3,
									"patching_rect" : [ 270.0, 195.0, 43.0, 48.0 ],
									"id" : "obj-12",
									"fontname" : "Arial",
									"numinlets" : 1,
									"fontsize" : 12.0,
									"numoutlets" : 0,
									"presentation_rect" : [ 268.0, 203.0, 0.0, 0.0 ]
								}

							}
, 							{
								"box" : 								{
									"maxclass" : "newobj",
									"text" : "print \"Client H\"",
									"patching_rect" : [ 270.0, 300.0, 88.0, 20.0 ],
									"id" : "obj-14",
									"fontname" : "Arial",
									"numinlets" : 1,
									"fontsize" : 12.0,
									"numoutlets" : 0
								}

							}
, 							{
								"box" : 								{
									"maxclass" : "number",
									"minimum" : 0,
									"outlettype" : [ "int", "bang" ],
									"maximum" : 255,
									"patching_rect" : [ 270.0, 238.0, 50.0, 20.0 ],
									"id" : "obj-16",
									"fontname" : "Arial",
									"numinlets" : 1,
									"fontsize" : 12.0,
									"numoutlets" : 2,
									"presentation_rect" : [ 268.0, 246.0, 0.0, 0.0 ]
								}

							}
, 							{
								"box" : 								{
									"maxclass" : "message",
									"text" : "disconnect",
									"outlettype" : [ "" ],
									"patching_rect" : [ 390.0, 238.0, 68.0, 18.0 ],
									"id" : "obj-19",
									"fontname" : "Arial",
									"numinlets" : 2,
									"fontsize" : 12.0,
									"numoutlets" : 1,
									"presentation_rect" : [ 388.0, 246.0, 0.0, 0.0 ]
								}

							}
, 							{
								"box" : 								{
									"maxclass" : "message",
									"text" : "connect",
									"outlettype" : [ "" ],
									"patching_rect" : [ 330.0, 238.0, 53.0, 18.0 ],
									"id" : "obj-21",
									"fontname" : "Arial",
									"numinlets" : 2,
									"fontsize" : 12.0,
									"numoutlets" : 1,
									"presentation_rect" : [ 328.0, 246.0, 0.0, 0.0 ]
								}

							}
, 							{
								"box" : 								{
									"maxclass" : "newobj",
									"text" : "sadam.tcpClient localhost 6543",
									"outlettype" : [ "list", "int" ],
									"patching_rect" : [ 270.0, 268.0, 177.0, 20.0 ],
									"id" : "obj-22",
									"fontname" : "Arial",
									"numinlets" : 1,
									"fontsize" : 12.0,
									"numoutlets" : 2,
									"presentation_rect" : [ 268.0, 276.0, 0.0, 0.0 ],
									"saved_object_attributes" : 									{
										"keepalive" : 1,
										"keepalive_probes" : 3,
										"keepalive_time" : 60,
										"keepalive_interval" : 10
									}

								}

							}
, 							{
								"box" : 								{
									"maxclass" : "comment",
									"text" : "Connect/Disconnect to/from the Server.",
									"linecount" : 2,
									"patching_rect" : [ 90.0, 202.0, 121.0, 34.0 ],
									"id" : "obj-25",
									"fontname" : "Arial",
									"numinlets" : 1,
									"fontsize" : 12.0,
									"numoutlets" : 0,
									"presentation_rect" : [ 88.0, 210.0, 0.0, 0.0 ]
								}

							}
, 							{
								"box" : 								{
									"maxclass" : "comment",
									"text" : "Send some data",
									"linecount" : 3,
									"patching_rect" : [ 30.0, 195.0, 43.0, 48.0 ],
									"id" : "obj-26",
									"fontname" : "Arial",
									"numinlets" : 1,
									"fontsize" : 12.0,
									"numoutlets" : 0,
									"presentation_rect" : [ 28.0, 203.0, 0.0, 0.0 ]
								}

							}
, 							{
								"box" : 								{
									"maxclass" : "newobj",
									"text" : "print \"Client G\"",
									"patching_rect" : [ 30.0, 300.0, 89.0, 20.0 ],
									"id" : "obj-27",
									"fontname" : "Arial",
									"numinlets" : 1,
									"fontsize" : 12.0,
									"numoutlets" : 0
								}

							}
, 							{
								"box" : 								{
									"maxclass" : "number",
									"minimum" : 0,
									"outlettype" : [ "int", "bang" ],
									"maximum" : 255,
									"patching_rect" : [ 30.0, 238.0, 50.0, 20.0 ],
									"id" : "obj-35",
									"fontname" : "Arial",
									"numinlets" : 1,
									"fontsize" : 12.0,
									"numoutlets" : 2,
									"presentation_rect" : [ 28.0, 246.0, 0.0, 0.0 ]
								}

							}
, 							{
								"box" : 								{
									"maxclass" : "message",
									"text" : "disconnect",
									"outlettype" : [ "" ],
									"patching_rect" : [ 150.0, 238.0, 68.0, 18.0 ],
									"id" : "obj-36",
									"fontname" : "Arial",
									"numinlets" : 2,
									"fontsize" : 12.0,
									"numoutlets" : 1,
									"presentation_rect" : [ 148.0, 246.0, 0.0, 0.0 ]
								}

							}
, 							{
								"box" : 								{
									"maxclass" : "message",
									"text" : "connect",
									"outlettype" : [ "" ],
									"patching_rect" : [ 90.0, 238.0, 53.0, 18.0 ],
									"id" : "obj-37",
									"fontname" : "Arial",
									"numinlets" : 2,
									"fontsize" : 12.0,
									"numoutlets" : 1,
									"presentation_rect" : [ 88.0, 246.0, 0.0, 0.0 ]
								}

							}
, 							{
								"box" : 								{
									"maxclass" : "newobj",
									"text" : "sadam.tcpClient localhost 6543",
									"outlettype" : [ "list", "int" ],
									"patching_rect" : [ 30.0, 268.0, 177.0, 20.0 ],
									"id" : "obj-38",
									"fontname" : "Arial",
									"numinlets" : 1,
									"fontsize" : 12.0,
									"numoutlets" : 2,
									"presentation_rect" : [ 28.0, 276.0, 0.0, 0.0 ],
									"saved_object_attributes" : 									{
										"keepalive" : 1,
										"keepalive_probes" : 3,
										"keepalive_time" : 60,
										"keepalive_interval" : 10
									}

								}

							}
, 							{
								"box" : 								{
									"maxclass" : "comment",
									"text" : "Connect/Disconnect to/from the Server.",
									"linecount" : 2,
									"patching_rect" : [ 570.0, 37.0, 121.0, 34.0 ],
									"id" : "obj-28",
									"fontname" : "Arial",
									"numinlets" : 1,
									"fontsize" : 12.0,
									"numoutlets" : 0
								}

							}
, 							{
								"box" : 								{
									"maxclass" : "comment",
									"text" : "Send some data",
									"linecount" : 3,
									"patching_rect" : [ 510.0, 30.0, 43.0, 48.0 ],
									"id" : "obj-29",
									"fontname" : "Arial",
									"numinlets" : 1,
									"fontsize" : 12.0,
									"numoutlets" : 0
								}

							}
, 							{
								"box" : 								{
									"maxclass" : "newobj",
									"text" : "print \"Client F\"",
									"patching_rect" : [ 510.0, 135.0, 87.0, 20.0 ],
									"id" : "obj-30",
									"fontname" : "Arial",
									"numinlets" : 1,
									"fontsize" : 12.0,
									"numoutlets" : 0
								}

							}
, 							{
								"box" : 								{
									"maxclass" : "number",
									"minimum" : 0,
									"outlettype" : [ "int", "bang" ],
									"maximum" : 255,
									"patching_rect" : [ 510.0, 73.0, 50.0, 20.0 ],
									"id" : "obj-31",
									"fontname" : "Arial",
									"numinlets" : 1,
									"fontsize" : 12.0,
									"numoutlets" : 2
								}

							}
, 							{
								"box" : 								{
									"maxclass" : "message",
									"text" : "disconnect",
									"outlettype" : [ "" ],
									"patching_rect" : [ 630.0, 73.0, 68.0, 18.0 ],
									"id" : "obj-32",
									"fontname" : "Arial",
									"numinlets" : 2,
									"fontsize" : 12.0,
									"numoutlets" : 1
								}

							}
, 							{
								"box" : 								{
									"maxclass" : "message",
									"text" : "connect",
									"outlettype" : [ "" ],
									"patching_rect" : [ 570.0, 73.0, 53.0, 18.0 ],
									"id" : "obj-33",
									"fontname" : "Arial",
									"numinlets" : 2,
									"fontsize" : 12.0,
									"numoutlets" : 1
								}

							}
, 							{
								"box" : 								{
									"maxclass" : "newobj",
									"text" : "sadam.tcpClient localhost 6543",
									"outlettype" : [ "list", "int" ],
									"patching_rect" : [ 510.0, 103.0, 177.0, 20.0 ],
									"id" : "obj-34",
									"fontname" : "Arial",
									"numinlets" : 1,
									"fontsize" : 12.0,
									"numoutlets" : 2,
									"saved_object_attributes" : 									{
										"keepalive" : 1,
										"keepalive_probes" : 3,
										"keepalive_time" : 60,
										"keepalive_interval" : 10
									}

								}

							}
, 							{
								"box" : 								{
									"maxclass" : "comment",
									"text" : "Connect/Disconnect to/from the Server.",
									"linecount" : 2,
									"patching_rect" : [ 330.0, 37.0, 121.0, 34.0 ],
									"id" : "obj-13",
									"fontname" : "Arial",
									"numinlets" : 1,
									"fontsize" : 12.0,
									"numoutlets" : 0
								}

							}
, 							{
								"box" : 								{
									"maxclass" : "comment",
									"text" : "Send some data",
									"linecount" : 3,
									"patching_rect" : [ 270.0, 30.0, 43.0, 48.0 ],
									"id" : "obj-15",
									"fontname" : "Arial",
									"numinlets" : 1,
									"fontsize" : 12.0,
									"numoutlets" : 0
								}

							}
, 							{
								"box" : 								{
									"maxclass" : "newobj",
									"text" : "print \"Client E\"",
									"patching_rect" : [ 270.0, 135.0, 88.0, 20.0 ],
									"id" : "obj-17",
									"fontname" : "Arial",
									"numinlets" : 1,
									"fontsize" : 12.0,
									"numoutlets" : 0
								}

							}
, 							{
								"box" : 								{
									"maxclass" : "number",
									"minimum" : 0,
									"outlettype" : [ "int", "bang" ],
									"maximum" : 255,
									"patching_rect" : [ 270.0, 73.0, 50.0, 20.0 ],
									"id" : "obj-18",
									"fontname" : "Arial",
									"numinlets" : 1,
									"fontsize" : 12.0,
									"numoutlets" : 2
								}

							}
, 							{
								"box" : 								{
									"maxclass" : "message",
									"text" : "disconnect",
									"outlettype" : [ "" ],
									"patching_rect" : [ 390.0, 73.0, 68.0, 18.0 ],
									"id" : "obj-20",
									"fontname" : "Arial",
									"numinlets" : 2,
									"fontsize" : 12.0,
									"numoutlets" : 1
								}

							}
, 							{
								"box" : 								{
									"maxclass" : "message",
									"text" : "connect",
									"outlettype" : [ "" ],
									"patching_rect" : [ 330.0, 73.0, 53.0, 18.0 ],
									"id" : "obj-23",
									"fontname" : "Arial",
									"numinlets" : 2,
									"fontsize" : 12.0,
									"numoutlets" : 1
								}

							}
, 							{
								"box" : 								{
									"maxclass" : "newobj",
									"text" : "sadam.tcpClient localhost 6543",
									"outlettype" : [ "list", "int" ],
									"patching_rect" : [ 270.0, 103.0, 177.0, 20.0 ],
									"id" : "obj-24",
									"fontname" : "Arial",
									"numinlets" : 1,
									"fontsize" : 12.0,
									"numoutlets" : 2,
									"saved_object_attributes" : 									{
										"keepalive" : 1,
										"keepalive_probes" : 3,
										"keepalive_time" : 60,
										"keepalive_interval" : 10
									}

								}

							}
, 							{
								"box" : 								{
									"maxclass" : "comment",
									"text" : "Connect/Disconnect to/from the Server.",
									"linecount" : 2,
									"patching_rect" : [ 90.0, 37.0, 121.0, 34.0 ],
									"id" : "obj-10",
									"fontname" : "Arial",
									"numinlets" : 1,
									"fontsize" : 12.0,
									"numoutlets" : 0
								}

							}
, 							{
								"box" : 								{
									"maxclass" : "comment",
									"text" : "Send some data",
									"linecount" : 3,
									"patching_rect" : [ 30.0, 30.0, 43.0, 48.0 ],
									"id" : "obj-7",
									"fontname" : "Arial",
									"numinlets" : 1,
									"fontsize" : 12.0,
									"numoutlets" : 0
								}

							}
, 							{
								"box" : 								{
									"maxclass" : "newobj",
									"text" : "print \"Client D\"",
									"patching_rect" : [ 30.0, 135.0, 88.0, 20.0 ],
									"id" : "obj-9",
									"fontname" : "Arial",
									"numinlets" : 1,
									"fontsize" : 12.0,
									"numoutlets" : 0
								}

							}
, 							{
								"box" : 								{
									"maxclass" : "number",
									"minimum" : 0,
									"outlettype" : [ "int", "bang" ],
									"maximum" : 255,
									"patching_rect" : [ 30.0, 73.0, 50.0, 20.0 ],
									"id" : "obj-82",
									"fontname" : "Arial",
									"numinlets" : 1,
									"fontsize" : 12.0,
									"numoutlets" : 2
								}

							}
, 							{
								"box" : 								{
									"maxclass" : "message",
									"text" : "disconnect",
									"outlettype" : [ "" ],
									"patching_rect" : [ 150.0, 73.0, 68.0, 18.0 ],
									"id" : "obj-57",
									"fontname" : "Arial",
									"numinlets" : 2,
									"fontsize" : 12.0,
									"numoutlets" : 1
								}

							}
, 							{
								"box" : 								{
									"maxclass" : "message",
									"text" : "connect",
									"outlettype" : [ "" ],
									"patching_rect" : [ 90.0, 73.0, 53.0, 18.0 ],
									"id" : "obj-56",
									"fontname" : "Arial",
									"numinlets" : 2,
									"fontsize" : 12.0,
									"numoutlets" : 1
								}

							}
, 							{
								"box" : 								{
									"maxclass" : "newobj",
									"text" : "sadam.tcpClient localhost 6543",
									"outlettype" : [ "list", "int" ],
									"patching_rect" : [ 30.0, 103.0, 177.0, 20.0 ],
									"id" : "obj-54",
									"fontname" : "Arial",
									"numinlets" : 1,
									"fontsize" : 12.0,
									"numoutlets" : 2,
									"saved_object_attributes" : 									{
										"keepalive" : 1,
										"keepalive_probes" : 3,
										"keepalive_time" : 60,
										"keepalive_interval" : 10
									}

								}

							}
 ],
						"lines" : [ 							{
								"patchline" : 								{
									"source" : [ "obj-45", 0 ],
									"destination" : [ "obj-41", 0 ],
									"hidden" : 0,
									"midpoints" : [  ]
								}

							}
, 							{
								"patchline" : 								{
									"source" : [ "obj-52", 0 ],
									"destination" : [ "obj-48", 0 ],
									"hidden" : 0,
									"midpoints" : [  ]
								}

							}
, 							{
								"patchline" : 								{
									"source" : [ "obj-62", 0 ],
									"destination" : [ "obj-58", 0 ],
									"hidden" : 0,
									"midpoints" : [  ]
								}

							}
, 							{
								"patchline" : 								{
									"source" : [ "obj-8", 0 ],
									"destination" : [ "obj-3", 0 ],
									"hidden" : 0,
									"midpoints" : [  ]
								}

							}
, 							{
								"patchline" : 								{
									"source" : [ "obj-22", 0 ],
									"destination" : [ "obj-14", 0 ],
									"hidden" : 0,
									"midpoints" : [  ]
								}

							}
, 							{
								"patchline" : 								{
									"source" : [ "obj-38", 0 ],
									"destination" : [ "obj-27", 0 ],
									"hidden" : 0,
									"midpoints" : [  ]
								}

							}
, 							{
								"patchline" : 								{
									"source" : [ "obj-34", 0 ],
									"destination" : [ "obj-30", 0 ],
									"hidden" : 0,
									"midpoints" : [  ]
								}

							}
, 							{
								"patchline" : 								{
									"source" : [ "obj-24", 0 ],
									"destination" : [ "obj-17", 0 ],
									"hidden" : 0,
									"midpoints" : [  ]
								}

							}
, 							{
								"patchline" : 								{
									"source" : [ "obj-54", 0 ],
									"destination" : [ "obj-9", 0 ],
									"hidden" : 0,
									"midpoints" : [  ]
								}

							}
, 							{
								"patchline" : 								{
									"source" : [ "obj-42", 0 ],
									"destination" : [ "obj-45", 0 ],
									"hidden" : 0,
									"midpoints" : [  ]
								}

							}
, 							{
								"patchline" : 								{
									"source" : [ "obj-43", 0 ],
									"destination" : [ "obj-45", 0 ],
									"hidden" : 0,
									"midpoints" : [ 639.5, 426.5, 519.5, 426.5 ]
								}

							}
, 							{
								"patchline" : 								{
									"source" : [ "obj-44", 0 ],
									"destination" : [ "obj-45", 0 ],
									"hidden" : 0,
									"midpoints" : [ 579.5, 426.5, 519.5, 426.5 ]
								}

							}
, 							{
								"patchline" : 								{
									"source" : [ "obj-51", 0 ],
									"destination" : [ "obj-52", 0 ],
									"hidden" : 0,
									"midpoints" : [ 339.5, 426.5, 279.5, 426.5 ]
								}

							}
, 							{
								"patchline" : 								{
									"source" : [ "obj-50", 0 ],
									"destination" : [ "obj-52", 0 ],
									"hidden" : 0,
									"midpoints" : [ 399.5, 426.5, 279.5, 426.5 ]
								}

							}
, 							{
								"patchline" : 								{
									"source" : [ "obj-49", 0 ],
									"destination" : [ "obj-52", 0 ],
									"hidden" : 0,
									"midpoints" : [  ]
								}

							}
, 							{
								"patchline" : 								{
									"source" : [ "obj-59", 0 ],
									"destination" : [ "obj-62", 0 ],
									"hidden" : 0,
									"midpoints" : [  ]
								}

							}
, 							{
								"patchline" : 								{
									"source" : [ "obj-60", 0 ],
									"destination" : [ "obj-62", 0 ],
									"hidden" : 0,
									"midpoints" : [ 159.5, 426.5, 39.5, 426.5 ]
								}

							}
, 							{
								"patchline" : 								{
									"source" : [ "obj-61", 0 ],
									"destination" : [ "obj-62", 0 ],
									"hidden" : 0,
									"midpoints" : [ 99.5, 426.5, 39.5, 426.5 ]
								}

							}
, 							{
								"patchline" : 								{
									"source" : [ "obj-37", 0 ],
									"destination" : [ "obj-38", 0 ],
									"hidden" : 0,
									"midpoints" : [ 99.5, 261.5, 39.5, 261.5 ]
								}

							}
, 							{
								"patchline" : 								{
									"source" : [ "obj-36", 0 ],
									"destination" : [ "obj-38", 0 ],
									"hidden" : 0,
									"midpoints" : [ 159.5, 261.5, 39.5, 261.5 ]
								}

							}
, 							{
								"patchline" : 								{
									"source" : [ "obj-35", 0 ],
									"destination" : [ "obj-38", 0 ],
									"hidden" : 0,
									"midpoints" : [  ]
								}

							}
, 							{
								"patchline" : 								{
									"source" : [ "obj-16", 0 ],
									"destination" : [ "obj-22", 0 ],
									"hidden" : 0,
									"midpoints" : [  ]
								}

							}
, 							{
								"patchline" : 								{
									"source" : [ "obj-19", 0 ],
									"destination" : [ "obj-22", 0 ],
									"hidden" : 0,
									"midpoints" : [ 399.5, 261.5, 279.5, 261.5 ]
								}

							}
, 							{
								"patchline" : 								{
									"source" : [ "obj-21", 0 ],
									"destination" : [ "obj-22", 0 ],
									"hidden" : 0,
									"midpoints" : [ 339.5, 261.5, 279.5, 261.5 ]
								}

							}
, 							{
								"patchline" : 								{
									"source" : [ "obj-6", 0 ],
									"destination" : [ "obj-8", 0 ],
									"hidden" : 0,
									"midpoints" : [ 579.5, 261.5, 519.5, 261.5 ]
								}

							}
, 							{
								"patchline" : 								{
									"source" : [ "obj-5", 0 ],
									"destination" : [ "obj-8", 0 ],
									"hidden" : 0,
									"midpoints" : [ 639.5, 261.5, 519.5, 261.5 ]
								}

							}
, 							{
								"patchline" : 								{
									"source" : [ "obj-4", 0 ],
									"destination" : [ "obj-8", 0 ],
									"hidden" : 0,
									"midpoints" : [  ]
								}

							}
, 							{
								"patchline" : 								{
									"source" : [ "obj-31", 0 ],
									"destination" : [ "obj-34", 0 ],
									"hidden" : 0,
									"midpoints" : [  ]
								}

							}
, 							{
								"patchline" : 								{
									"source" : [ "obj-32", 0 ],
									"destination" : [ "obj-34", 0 ],
									"hidden" : 0,
									"midpoints" : [ 639.5, 96.5, 519.5, 96.5 ]
								}

							}
, 							{
								"patchline" : 								{
									"source" : [ "obj-33", 0 ],
									"destination" : [ "obj-34", 0 ],
									"hidden" : 0,
									"midpoints" : [ 579.5, 96.5, 519.5, 96.5 ]
								}

							}
, 							{
								"patchline" : 								{
									"source" : [ "obj-23", 0 ],
									"destination" : [ "obj-24", 0 ],
									"hidden" : 0,
									"midpoints" : [ 339.5, 96.5, 279.5, 96.5 ]
								}

							}
, 							{
								"patchline" : 								{
									"source" : [ "obj-20", 0 ],
									"destination" : [ "obj-24", 0 ],
									"hidden" : 0,
									"midpoints" : [ 399.5, 96.5, 279.5, 96.5 ]
								}

							}
, 							{
								"patchline" : 								{
									"source" : [ "obj-18", 0 ],
									"destination" : [ "obj-24", 0 ],
									"hidden" : 0,
									"midpoints" : [  ]
								}

							}
, 							{
								"patchline" : 								{
									"source" : [ "obj-82", 0 ],
									"destination" : [ "obj-54", 0 ],
									"hidden" : 0,
									"midpoints" : [  ]
								}

							}
, 							{
								"patchline" : 								{
									"source" : [ "obj-57", 0 ],
									"destination" : [ "obj-54", 0 ],
									"hidden" : 0,
									"midpoints" : [ 159.5, 96.5, 39.5, 96.5 ]
								}

							}
, 							{
								"patchline" : 								{
									"source" : [ "obj-56", 0 ],
									"destination" : [ "obj-54", 0 ],
									"hidden" : 0,
									"midpoints" : [ 99.5, 96.5, 39.5, 96.5 ]
								}

							}
 ]
					}
,
					"saved_object_attributes" : 					{
						"default_fontname" : "Arial",
						"default_fontsize" : 12.0,
						"fontname" : "Arial",
						"globalpatchername" : "",
						"fontface" : 0,
						"fontsize" : 12.0,
						"default_fontface" : 0
					}

				}

			}
, 			{
				"box" : 				{
					"maxclass" : "comment",
					"text" : "Connect/Disconnect to/from the Server.",
					"linecount" : 2,
					"patching_rect" : [ 570.0, 637.0, 121.0, 34.0 ],
					"id" : "obj-28",
					"fontname" : "Arial",
					"numinlets" : 1,
					"fontsize" : 12.0,
					"numoutlets" : 0
				}

			}
, 			{
				"box" : 				{
					"maxclass" : "comment",
					"text" : "Send some data",
					"linecount" : 3,
					"patching_rect" : [ 510.0, 630.0, 43.0, 48.0 ],
					"id" : "obj-29",
					"fontname" : "Arial",
					"numinlets" : 1,
					"fontsize" : 12.0,
					"numoutlets" : 0
				}

			}
, 			{
				"box" : 				{
					"maxclass" : "newobj",
					"text" : "print \"Client C\"",
					"patching_rect" : [ 510.0, 735.0, 88.0, 20.0 ],
					"id" : "obj-30",
					"fontname" : "Arial",
					"numinlets" : 1,
					"fontsize" : 12.0,
					"numoutlets" : 0
				}

			}
, 			{
				"box" : 				{
					"maxclass" : "number",
					"minimum" : 0,
					"outlettype" : [ "int", "bang" ],
					"maximum" : 255,
					"patching_rect" : [ 510.0, 673.0, 50.0, 20.0 ],
					"id" : "obj-31",
					"fontname" : "Arial",
					"numinlets" : 1,
					"fontsize" : 12.0,
					"numoutlets" : 2
				}

			}
, 			{
				"box" : 				{
					"maxclass" : "message",
					"text" : "disconnect",
					"outlettype" : [ "" ],
					"patching_rect" : [ 630.0, 673.0, 68.0, 18.0 ],
					"id" : "obj-32",
					"fontname" : "Arial",
					"numinlets" : 2,
					"fontsize" : 12.0,
					"numoutlets" : 1
				}

			}
, 			{
				"box" : 				{
					"maxclass" : "message",
					"text" : "connect",
					"outlettype" : [ "" ],
					"patching_rect" : [ 570.0, 673.0, 53.0, 18.0 ],
					"id" : "obj-33",
					"fontname" : "Arial",
					"numinlets" : 2,
					"fontsize" : 12.0,
					"numoutlets" : 1
				}

			}
, 			{
				"box" : 				{
					"maxclass" : "newobj",
					"text" : "sadam.tcpClient localhost 6543",
					"outlettype" : [ "list", "int" ],
					"patching_rect" : [ 510.0, 703.0, 177.0, 20.0 ],
					"id" : "obj-34",
					"fontname" : "Arial",
					"numinlets" : 1,
					"fontsize" : 12.0,
					"numoutlets" : 2,
					"saved_object_attributes" : 					{
						"keepalive" : 1,
						"keepalive_probes" : 3,
						"keepalive_time" : 60,
						"keepalive_interval" : 10
					}

				}

			}
, 			{
				"box" : 				{
					"maxclass" : "comment",
					"text" : "Connect/Disconnect to/from the Server.",
					"linecount" : 2,
					"patching_rect" : [ 345.0, 637.0, 121.0, 34.0 ],
					"id" : "obj-13",
					"fontname" : "Arial",
					"numinlets" : 1,
					"fontsize" : 12.0,
					"numoutlets" : 0
				}

			}
, 			{
				"box" : 				{
					"maxclass" : "comment",
					"text" : "Send some data",
					"linecount" : 3,
					"patching_rect" : [ 285.0, 630.0, 43.0, 48.0 ],
					"id" : "obj-15",
					"fontname" : "Arial",
					"numinlets" : 1,
					"fontsize" : 12.0,
					"numoutlets" : 0
				}

			}
, 			{
				"box" : 				{
					"maxclass" : "newobj",
					"text" : "print \"Client B\"",
					"patching_rect" : [ 285.0, 735.0, 88.0, 20.0 ],
					"id" : "obj-17",
					"fontname" : "Arial",
					"numinlets" : 1,
					"fontsize" : 12.0,
					"numoutlets" : 0
				}

			}
, 			{
				"box" : 				{
					"maxclass" : "number",
					"minimum" : 0,
					"outlettype" : [ "int", "bang" ],
					"maximum" : 255,
					"patching_rect" : [ 285.0, 673.0, 50.0, 20.0 ],
					"id" : "obj-18",
					"fontname" : "Arial",
					"numinlets" : 1,
					"fontsize" : 12.0,
					"numoutlets" : 2
				}

			}
, 			{
				"box" : 				{
					"maxclass" : "message",
					"text" : "disconnect",
					"outlettype" : [ "" ],
					"patching_rect" : [ 405.0, 673.0, 68.0, 18.0 ],
					"id" : "obj-20",
					"fontname" : "Arial",
					"numinlets" : 2,
					"fontsize" : 12.0,
					"numoutlets" : 1
				}

			}
, 			{
				"box" : 				{
					"maxclass" : "message",
					"text" : "connect",
					"outlettype" : [ "" ],
					"patching_rect" : [ 345.0, 673.0, 53.0, 18.0 ],
					"id" : "obj-23",
					"fontname" : "Arial",
					"numinlets" : 2,
					"fontsize" : 12.0,
					"numoutlets" : 1
				}

			}
, 			{
				"box" : 				{
					"maxclass" : "newobj",
					"text" : "sadam.tcpClient localhost 6543",
					"outlettype" : [ "list", "int" ],
					"patching_rect" : [ 285.0, 703.0, 177.0, 20.0 ],
					"id" : "obj-24",
					"fontname" : "Arial",
					"numinlets" : 1,
					"fontsize" : 12.0,
					"numoutlets" : 2,
					"saved_object_attributes" : 					{
						"keepalive" : 1,
						"keepalive_probes" : 3,
						"keepalive_time" : 60,
						"keepalive_interval" : 10
					}

				}

			}
, 			{
				"box" : 				{
					"maxclass" : "comment",
					"text" : "Connect/Disconnect to/from the Server.",
					"linecount" : 2,
					"patching_rect" : [ 120.0, 637.0, 121.0, 34.0 ],
					"id" : "obj-10",
					"fontname" : "Arial",
					"numinlets" : 1,
					"fontsize" : 12.0,
					"numoutlets" : 0
				}

			}
, 			{
				"box" : 				{
					"maxclass" : "comment",
					"text" : "Send some data",
					"linecount" : 3,
					"patching_rect" : [ 60.0, 630.0, 43.0, 48.0 ],
					"id" : "obj-7",
					"fontname" : "Arial",
					"numinlets" : 1,
					"fontsize" : 12.0,
					"numoutlets" : 0
				}

			}
, 			{
				"box" : 				{
					"maxclass" : "newobj",
					"text" : "loadmess refer %0serverColl",
					"outlettype" : [ "" ],
					"patching_rect" : [ 450.0, 135.0, 165.0, 20.0 ],
					"id" : "obj-38",
					"fontname" : "Arial",
					"numinlets" : 1,
					"fontsize" : 12.0,
					"numoutlets" : 1
				}

			}
, 			{
				"box" : 				{
					"maxclass" : "newobj",
					"text" : "print \"Client A\"",
					"patching_rect" : [ 60.0, 735.0, 87.0, 20.0 ],
					"id" : "obj-9",
					"fontname" : "Arial",
					"numinlets" : 1,
					"fontsize" : 12.0,
					"numoutlets" : 0
				}

			}
, 			{
				"box" : 				{
					"maxclass" : "comment",
					"text" : "This is the data arriving from the connected clients.",
					"patching_rect" : [ 195.0, 571.0, 281.0, 20.0 ],
					"id" : "obj-115",
					"fontname" : "Arial",
					"numinlets" : 1,
					"fontsize" : 12.0,
					"numoutlets" : 0
				}

			}
, 			{
				"box" : 				{
					"maxclass" : "comment",
					"text" : "This is how you should format your messages when communicating with clients.",
					"linecount" : 3,
					"patching_rect" : [ 270.0, 283.0, 173.0, 48.0 ],
					"id" : "obj-113",
					"fontname" : "Arial",
					"numinlets" : 1,
					"fontsize" : 12.0,
					"numoutlets" : 0
				}

			}
, 			{
				"box" : 				{
					"maxclass" : "comment",
					"text" : "Send some data",
					"linecount" : 3,
					"patching_rect" : [ 255.0, 133.0, 43.0, 48.0 ],
					"id" : "obj-107",
					"fontname" : "Arial",
					"numinlets" : 1,
					"fontsize" : 12.0,
					"numoutlets" : 0
				}

			}
, 			{
				"box" : 				{
					"maxclass" : "message",
					"text" : "127.0.0.1 59060 13",
					"outlettype" : [ "" ],
					"patching_rect" : [ 270.0, 268.0, 175.0, 18.0 ],
					"id" : "obj-105",
					"fontname" : "Arial",
					"numinlets" : 2,
					"fontsize" : 12.0,
					"numoutlets" : 1
				}

			}
, 			{
				"box" : 				{
					"maxclass" : "comment",
					"text" : "<== An example of keeping track of your clients.",
					"patching_rect" : [ 390.0, 433.0, 266.0, 20.0 ],
					"id" : "obj-103",
					"fontname" : "Arial",
					"numinlets" : 1,
					"fontsize" : 12.0,
					"numoutlets" : 0
				}

			}
, 			{
				"box" : 				{
					"maxclass" : "comment",
					"text" : "Select the client to send data to!",
					"patching_rect" : [ 510.0, 298.0, 181.0, 20.0 ],
					"id" : "obj-101",
					"fontname" : "Arial",
					"numinlets" : 1,
					"fontsize" : 12.0,
					"numoutlets" : 0
				}

			}
, 			{
				"box" : 				{
					"maxclass" : "number",
					"minimum" : 0,
					"outlettype" : [ "int", "bang" ],
					"maximum" : 255,
					"patching_rect" : [ 255.0, 178.0, 50.0, 20.0 ],
					"id" : "obj-93",
					"fontname" : "Arial",
					"numinlets" : 1,
					"fontsize" : 12.0,
					"numoutlets" : 2
				}

			}
, 			{
				"box" : 				{
					"maxclass" : "newobj",
					"text" : "zl rot 2",
					"outlettype" : [ "", "" ],
					"patching_rect" : [ 255.0, 238.0, 47.0, 20.0 ],
					"id" : "obj-92",
					"fontname" : "Arial",
					"numinlets" : 2,
					"fontsize" : 12.0,
					"numoutlets" : 2
				}

			}
, 			{
				"box" : 				{
					"maxclass" : "newobj",
					"text" : "zl join",
					"outlettype" : [ "", "" ],
					"patching_rect" : [ 255.0, 208.0, 41.0, 20.0 ],
					"id" : "obj-91",
					"fontname" : "Arial",
					"numinlets" : 2,
					"fontsize" : 12.0,
					"numoutlets" : 2
				}

			}
, 			{
				"box" : 				{
					"maxclass" : "newobj",
					"text" : "zl ecils 2",
					"outlettype" : [ "", "" ],
					"patching_rect" : [ 315.0, 178.0, 57.0, 20.0 ],
					"id" : "obj-88",
					"fontname" : "Arial",
					"numinlets" : 2,
					"fontsize" : 12.0,
					"numoutlets" : 2
				}

			}
, 			{
				"box" : 				{
					"maxclass" : "number",
					"minimum" : 0,
					"outlettype" : [ "int", "bang" ],
					"maximum" : 255,
					"patching_rect" : [ 60.0, 673.0, 50.0, 20.0 ],
					"id" : "obj-82",
					"fontname" : "Arial",
					"numinlets" : 1,
					"fontsize" : 12.0,
					"numoutlets" : 2
				}

			}
, 			{
				"box" : 				{
					"maxclass" : "newobj",
					"text" : "print \"Received Data\"",
					"patching_rect" : [ 195.0, 553.0, 124.0, 20.0 ],
					"id" : "obj-80",
					"fontname" : "Arial",
					"numinlets" : 1,
					"fontsize" : 12.0,
					"numoutlets" : 0
				}

			}
, 			{
				"box" : 				{
					"maxclass" : "newobj",
					"text" : "sprintf %s:%ld has sent:",
					"outlettype" : [ "" ],
					"patching_rect" : [ 210.0, 463.0, 139.0, 20.0 ],
					"id" : "obj-44",
					"fontname" : "Arial",
					"numinlets" : 2,
					"fontsize" : 12.0,
					"numoutlets" : 1
				}

			}
, 			{
				"box" : 				{
					"maxclass" : "newobj",
					"text" : "zl rot 3",
					"outlettype" : [ "", "" ],
					"patching_rect" : [ 195.0, 523.0, 47.0, 20.0 ],
					"id" : "obj-37",
					"fontname" : "Arial",
					"numinlets" : 2,
					"fontsize" : 12.0,
					"numoutlets" : 2
				}

			}
, 			{
				"box" : 				{
					"maxclass" : "newobj",
					"text" : "zl join",
					"outlettype" : [ "", "" ],
					"patching_rect" : [ 195.0, 493.0, 41.0, 20.0 ],
					"id" : "obj-36",
					"fontname" : "Arial",
					"numinlets" : 2,
					"fontsize" : 12.0,
					"numoutlets" : 2
				}

			}
, 			{
				"box" : 				{
					"maxclass" : "comment",
					"text" : "Client Port",
					"patching_rect" : [ 618.0, 160.0, 67.0, 20.0 ],
					"id" : "obj-78",
					"fontname" : "Arial",
					"numinlets" : 1,
					"fontsize" : 12.0,
					"numoutlets" : 0
				}

			}
, 			{
				"box" : 				{
					"maxclass" : "comment",
					"text" : "Client Address",
					"patching_rect" : [ 533.0, 160.0, 88.0, 20.0 ],
					"id" : "obj-77",
					"fontname" : "Arial",
					"numinlets" : 1,
					"fontsize" : 12.0,
					"numoutlets" : 0
				}

			}
, 			{
				"box" : 				{
					"maxclass" : "comment",
					"text" : "ID in [coll]",
					"patching_rect" : [ 457.0, 160.0, 63.0, 20.0 ],
					"id" : "obj-75",
					"fontname" : "Arial",
					"numinlets" : 1,
					"fontsize" : 12.0,
					"numoutlets" : 0
				}

			}
, 			{
				"box" : 				{
					"maxclass" : "newobj",
					"text" : "coll %0serverColl 1",
					"outlettype" : [ "", "", "", "" ],
					"patching_rect" : [ 555.0, 330.0, 113.0, 20.0 ],
					"id" : "obj-64",
					"fontname" : "Arial",
					"numinlets" : 1,
					"fontsize" : 12.0,
					"numoutlets" : 4,
					"saved_object_attributes" : 					{
						"embed" : 0
					}

				}

			}
, 			{
				"box" : 				{
					"maxclass" : "newobj",
					"text" : "p serverCollManager",
					"patching_rect" : [ 270.0, 433.0, 122.0, 20.0 ],
					"id" : "obj-72",
					"fontname" : "Arial",
					"numinlets" : 1,
					"fontsize" : 12.0,
					"numoutlets" : 0,
					"patcher" : 					{
						"fileversion" : 1,
						"appversion" : 						{
							"major" : 5,
							"minor" : 1,
							"revision" : 9
						}
,
						"rect" : [ 349.0, 153.0, 399.0, 415.0 ],
						"bglocked" : 0,
						"defrect" : [ 349.0, 153.0, 399.0, 415.0 ],
						"openrect" : [ 0.0, 0.0, 0.0, 0.0 ],
						"openinpresentation" : 0,
						"default_fontsize" : 12.0,
						"default_fontface" : 0,
						"default_fontname" : "Arial",
						"gridonopen" : 0,
						"gridsize" : [ 15.0, 15.0 ],
						"gridsnaponopen" : 0,
						"toolbarvisible" : 1,
						"boxanimatetime" : 200,
						"imprint" : 0,
						"enablehscroll" : 1,
						"enablevscroll" : 1,
						"devicewidth" : 0.0,
						"boxes" : [ 							{
								"box" : 								{
									"maxclass" : "comment",
									"text" : "Clear the entire coll when the Server has been stopped.",
									"linecount" : 4,
									"patching_rect" : [ 270.0, 195.0, 102.0, 62.0 ],
									"id" : "obj-29",
									"fontname" : "Arial",
									"numinlets" : 1,
									"fontsize" : 12.0,
									"numoutlets" : 0
								}

							}
, 							{
								"box" : 								{
									"maxclass" : "comment",
									"text" : "Remove disconnected client's data (host, port) from the coll.",
									"linecount" : 3,
									"patching_rect" : [ 150.0, 345.0, 138.0, 48.0 ],
									"id" : "obj-28",
									"fontname" : "Arial",
									"numinlets" : 1,
									"fontsize" : 12.0,
									"numoutlets" : 0
								}

							}
, 							{
								"box" : 								{
									"maxclass" : "comment",
									"text" : "Insert connected client's data (host, port) into the coll.",
									"linecount" : 3,
									"patching_rect" : [ 15.0, 315.0, 110.0, 48.0 ],
									"id" : "obj-26",
									"fontname" : "Arial",
									"numinlets" : 1,
									"fontsize" : 12.0,
									"numoutlets" : 0
								}

							}
, 							{
								"box" : 								{
									"maxclass" : "newobj",
									"text" : "prepend delete",
									"outlettype" : [ "" ],
									"patching_rect" : [ 150.0, 285.0, 91.0, 20.0 ],
									"id" : "obj-24",
									"fontname" : "Arial",
									"numinlets" : 1,
									"fontsize" : 12.0,
									"numoutlets" : 1
								}

							}
, 							{
								"box" : 								{
									"maxclass" : "newobj",
									"text" : "coll %0serverColl 1",
									"outlettype" : [ "", "", "", "" ],
									"patching_rect" : [ 150.0, 315.0, 113.0, 20.0 ],
									"id" : "obj-23",
									"fontname" : "Arial",
									"numinlets" : 1,
									"fontsize" : 12.0,
									"numoutlets" : 4,
									"saved_object_attributes" : 									{
										"embed" : 0
									}

								}

							}
, 							{
								"box" : 								{
									"maxclass" : "newobj",
									"text" : "sel 1",
									"outlettype" : [ "bang", "" ],
									"patching_rect" : [ 150.0, 225.0, 36.0, 20.0 ],
									"id" : "obj-22",
									"fontname" : "Arial",
									"numinlets" : 2,
									"fontsize" : 12.0,
									"numoutlets" : 2
								}

							}
, 							{
								"box" : 								{
									"maxclass" : "newobj",
									"text" : "zl compare",
									"outlettype" : [ "", "" ],
									"patching_rect" : [ 150.0, 195.0, 69.0, 20.0 ],
									"id" : "obj-21",
									"fontname" : "Arial",
									"numinlets" : 2,
									"fontsize" : 12.0,
									"numoutlets" : 2
								}

							}
, 							{
								"box" : 								{
									"maxclass" : "newobj",
									"text" : "i",
									"outlettype" : [ "int" ],
									"patching_rect" : [ 150.0, 255.0, 32.5, 20.0 ],
									"id" : "obj-19",
									"fontname" : "Arial",
									"numinlets" : 2,
									"fontsize" : 12.0,
									"numoutlets" : 1
								}

							}
, 							{
								"box" : 								{
									"maxclass" : "newobj",
									"text" : "coll %0serverColl 1",
									"outlettype" : [ "", "", "", "" ],
									"patching_rect" : [ 150.0, 165.0, 113.0, 20.0 ],
									"id" : "obj-18",
									"fontname" : "Arial",
									"numinlets" : 1,
									"fontsize" : 12.0,
									"numoutlets" : 4,
									"saved_object_attributes" : 									{
										"embed" : 0
									}

								}

							}
, 							{
								"box" : 								{
									"maxclass" : "newobj",
									"text" : "t dump l",
									"outlettype" : [ "dump", "" ],
									"patching_rect" : [ 150.0, 135.0, 53.0, 20.0 ],
									"id" : "obj-17",
									"fontname" : "Arial",
									"numinlets" : 1,
									"fontsize" : 12.0,
									"numoutlets" : 2
								}

							}
, 							{
								"box" : 								{
									"maxclass" : "newobj",
									"text" : "coll %0serverColl 1",
									"outlettype" : [ "", "", "", "" ],
									"patching_rect" : [ 15.0, 285.0, 113.0, 20.0 ],
									"id" : "obj-16",
									"fontname" : "Arial",
									"numinlets" : 1,
									"fontsize" : 12.0,
									"numoutlets" : 4,
									"saved_object_attributes" : 									{
										"embed" : 0
									}

								}

							}
, 							{
								"box" : 								{
									"maxclass" : "newobj",
									"text" : "prepend insert",
									"outlettype" : [ "" ],
									"patching_rect" : [ 15.0, 255.0, 87.0, 20.0 ],
									"id" : "obj-15",
									"fontname" : "Arial",
									"numinlets" : 1,
									"fontsize" : 12.0,
									"numoutlets" : 1
								}

							}
, 							{
								"box" : 								{
									"maxclass" : "newobj",
									"text" : "zl rot 1",
									"outlettype" : [ "", "" ],
									"patching_rect" : [ 15.0, 225.0, 47.0, 20.0 ],
									"id" : "obj-14",
									"fontname" : "Arial",
									"numinlets" : 2,
									"fontsize" : 12.0,
									"numoutlets" : 2
								}

							}
, 							{
								"box" : 								{
									"maxclass" : "newobj",
									"text" : "zl join",
									"outlettype" : [ "", "" ],
									"patching_rect" : [ 15.0, 195.0, 41.0, 20.0 ],
									"id" : "obj-11",
									"fontname" : "Arial",
									"numinlets" : 2,
									"fontsize" : 12.0,
									"numoutlets" : 2
								}

							}
, 							{
								"box" : 								{
									"maxclass" : "newobj",
									"text" : "deferlow",
									"outlettype" : [ "" ],
									"patching_rect" : [ 15.0, 75.0, 56.0, 20.0 ],
									"id" : "obj-7",
									"fontname" : "Arial",
									"numinlets" : 1,
									"fontsize" : 12.0,
									"numoutlets" : 1
								}

							}
, 							{
								"box" : 								{
									"maxclass" : "newobj",
									"text" : "t l length",
									"outlettype" : [ "", "length" ],
									"patching_rect" : [ 15.0, 135.0, 56.0, 20.0 ],
									"id" : "obj-5",
									"fontname" : "Arial",
									"numinlets" : 1,
									"fontsize" : 12.0,
									"numoutlets" : 2
								}

							}
, 							{
								"box" : 								{
									"maxclass" : "newobj",
									"text" : "coll %0serverColl 1",
									"outlettype" : [ "", "", "", "" ],
									"patching_rect" : [ 30.0, 165.0, 113.0, 20.0 ],
									"id" : "obj-4",
									"fontname" : "Arial",
									"numinlets" : 1,
									"fontsize" : 12.0,
									"numoutlets" : 4,
									"saved_object_attributes" : 									{
										"embed" : 0
									}

								}

							}
, 							{
								"box" : 								{
									"maxclass" : "newobj",
									"text" : "coll %0serverColl 1",
									"outlettype" : [ "", "", "", "" ],
									"patching_rect" : [ 270.0, 165.0, 113.0, 20.0 ],
									"id" : "obj-2",
									"fontname" : "Arial",
									"numinlets" : 1,
									"fontsize" : 12.0,
									"numoutlets" : 4,
									"saved_object_attributes" : 									{
										"embed" : 0
									}

								}

							}
, 							{
								"box" : 								{
									"maxclass" : "newobj",
									"text" : "t clear",
									"outlettype" : [ "clear" ],
									"patching_rect" : [ 270.0, 135.0, 43.0, 20.0 ],
									"id" : "obj-1",
									"fontname" : "Arial",
									"numinlets" : 1,
									"fontsize" : 12.0,
									"numoutlets" : 1
								}

							}
, 							{
								"box" : 								{
									"maxclass" : "newobj",
									"text" : "route connected disconnected stopped",
									"outlettype" : [ "", "", "", "" ],
									"patching_rect" : [ 15.0, 105.0, 217.0, 20.0 ],
									"id" : "obj-53",
									"fontname" : "Arial",
									"numinlets" : 1,
									"fontsize" : 12.0,
									"numoutlets" : 4
								}

							}
, 							{
								"box" : 								{
									"maxclass" : "inlet",
									"outlettype" : [ "int" ],
									"patching_rect" : [ 15.0, 15.0, 25.0, 25.0 ],
									"id" : "obj-71",
									"numinlets" : 0,
									"numoutlets" : 1,
									"comment" : "Server Status Messages"
								}

							}
 ],
						"lines" : [ 							{
								"patchline" : 								{
									"source" : [ "obj-53", 0 ],
									"destination" : [ "obj-5", 0 ],
									"hidden" : 0,
									"midpoints" : [  ]
								}

							}
, 							{
								"patchline" : 								{
									"source" : [ "obj-5", 0 ],
									"destination" : [ "obj-11", 0 ],
									"hidden" : 0,
									"midpoints" : [  ]
								}

							}
, 							{
								"patchline" : 								{
									"source" : [ "obj-5", 1 ],
									"destination" : [ "obj-4", 0 ],
									"hidden" : 0,
									"midpoints" : [ 61.5, 159.5, 39.5, 159.5 ]
								}

							}
, 							{
								"patchline" : 								{
									"source" : [ "obj-53", 1 ],
									"destination" : [ "obj-17", 0 ],
									"hidden" : 0,
									"midpoints" : [ 90.5, 129.5, 159.5, 129.5 ]
								}

							}
, 							{
								"patchline" : 								{
									"source" : [ "obj-17", 0 ],
									"destination" : [ "obj-18", 0 ],
									"hidden" : 0,
									"midpoints" : [  ]
								}

							}
, 							{
								"patchline" : 								{
									"source" : [ "obj-17", 1 ],
									"destination" : [ "obj-21", 1 ],
									"hidden" : 0,
									"midpoints" : [ 193.5, 159.5, 209.5, 159.5 ]
								}

							}
, 							{
								"patchline" : 								{
									"source" : [ "obj-53", 2 ],
									"destination" : [ "obj-1", 0 ],
									"hidden" : 0,
									"midpoints" : [ 156.5, 129.5, 279.5, 129.5 ]
								}

							}
, 							{
								"patchline" : 								{
									"source" : [ "obj-1", 0 ],
									"destination" : [ "obj-2", 0 ],
									"hidden" : 0,
									"midpoints" : [  ]
								}

							}
, 							{
								"patchline" : 								{
									"source" : [ "obj-7", 0 ],
									"destination" : [ "obj-53", 0 ],
									"hidden" : 0,
									"midpoints" : [  ]
								}

							}
, 							{
								"patchline" : 								{
									"source" : [ "obj-71", 0 ],
									"destination" : [ "obj-7", 0 ],
									"hidden" : 0,
									"midpoints" : [  ]
								}

							}
, 							{
								"patchline" : 								{
									"source" : [ "obj-4", 0 ],
									"destination" : [ "obj-11", 1 ],
									"hidden" : 0,
									"midpoints" : [ 39.5, 189.5, 46.5, 189.5 ]
								}

							}
, 							{
								"patchline" : 								{
									"source" : [ "obj-11", 0 ],
									"destination" : [ "obj-14", 0 ],
									"hidden" : 0,
									"midpoints" : [  ]
								}

							}
, 							{
								"patchline" : 								{
									"source" : [ "obj-14", 0 ],
									"destination" : [ "obj-15", 0 ],
									"hidden" : 0,
									"midpoints" : [  ]
								}

							}
, 							{
								"patchline" : 								{
									"source" : [ "obj-15", 0 ],
									"destination" : [ "obj-16", 0 ],
									"hidden" : 0,
									"midpoints" : [  ]
								}

							}
, 							{
								"patchline" : 								{
									"source" : [ "obj-18", 1 ],
									"destination" : [ "obj-19", 1 ],
									"hidden" : 0,
									"midpoints" : [ 190.833328, 189.5, 173.0, 189.5 ]
								}

							}
, 							{
								"patchline" : 								{
									"source" : [ "obj-18", 0 ],
									"destination" : [ "obj-21", 0 ],
									"hidden" : 0,
									"midpoints" : [  ]
								}

							}
, 							{
								"patchline" : 								{
									"source" : [ "obj-21", 0 ],
									"destination" : [ "obj-22", 0 ],
									"hidden" : 0,
									"midpoints" : [  ]
								}

							}
, 							{
								"patchline" : 								{
									"source" : [ "obj-22", 0 ],
									"destination" : [ "obj-19", 0 ],
									"hidden" : 0,
									"midpoints" : [  ]
								}

							}
, 							{
								"patchline" : 								{
									"source" : [ "obj-19", 0 ],
									"destination" : [ "obj-24", 0 ],
									"hidden" : 0,
									"midpoints" : [  ]
								}

							}
, 							{
								"patchline" : 								{
									"source" : [ "obj-24", 0 ],
									"destination" : [ "obj-23", 0 ],
									"hidden" : 0,
									"midpoints" : [  ]
								}

							}
 ]
					}
,
					"saved_object_attributes" : 					{
						"default_fontname" : "Arial",
						"default_fontsize" : 12.0,
						"fontname" : "Arial",
						"globalpatchername" : "",
						"fontface" : 0,
						"fontsize" : 12.0,
						"default_fontface" : 0
					}

				}

			}
, 			{
				"box" : 				{
					"maxclass" : "message",
					"text" : "disconnect",
					"outlettype" : [ "" ],
					"patching_rect" : [ 180.0, 673.0, 68.0, 18.0 ],
					"id" : "obj-57",
					"fontname" : "Arial",
					"numinlets" : 2,
					"fontsize" : 12.0,
					"numoutlets" : 1
				}

			}
, 			{
				"box" : 				{
					"maxclass" : "message",
					"text" : "connect",
					"outlettype" : [ "" ],
					"patching_rect" : [ 120.0, 673.0, 53.0, 18.0 ],
					"id" : "obj-56",
					"fontname" : "Arial",
					"numinlets" : 2,
					"fontsize" : 12.0,
					"numoutlets" : 1
				}

			}
, 			{
				"box" : 				{
					"maxclass" : "newobj",
					"text" : "sadam.tcpClient localhost 6543",
					"outlettype" : [ "list", "int" ],
					"patching_rect" : [ 60.0, 703.0, 177.0, 20.0 ],
					"id" : "obj-54",
					"fontname" : "Arial",
					"numinlets" : 1,
					"fontsize" : 12.0,
					"numoutlets" : 2,
					"saved_object_attributes" : 					{
						"keepalive" : 1,
						"keepalive_probes" : 3,
						"keepalive_time" : 60,
						"keepalive_interval" : 10
					}

				}

			}
, 			{
				"box" : 				{
					"maxclass" : "jit.cellblock",
					"outlettype" : [ "list", "", "", "" ],
					"border" : 0,
					"outmode" : 1,
					"cols" : 3,
					"rowhead" : 1,
					"selsync" : 0,
					"patching_rect" : [ 450.0, 180.0, 280.0, 120.0 ],
					"id" : "obj-40",
					"fontname" : "Arial",
					"hscroll" : 0,
					"readonly" : 1,
					"rows" : 3,
					"hsync" : 0,
					"numinlets" : 2,
					"selmode" : 3,
					"fontsize" : 12.0,
					"colwidth" : 85,
					"vsync" : 0,
					"numoutlets" : 4
				}

			}
, 			{
				"box" : 				{
					"maxclass" : "newobj",
					"text" : "print \"Server Status\"",
					"patching_rect" : [ 345.0, 553.0, 118.0, 20.0 ],
					"id" : "obj-27",
					"fontname" : "Arial",
					"numinlets" : 1,
					"fontsize" : 12.0,
					"numoutlets" : 0
				}

			}
, 			{
				"box" : 				{
					"maxclass" : "newobj",
					"text" : "route 0",
					"outlettype" : [ "", "" ],
					"patching_rect" : [ 210.0, 433.0, 48.0, 20.0 ],
					"id" : "obj-25",
					"fontname" : "Arial",
					"numinlets" : 1,
					"fontsize" : 12.0,
					"numoutlets" : 2
				}

			}
, 			{
				"box" : 				{
					"maxclass" : "comment",
					"text" : "List the currently connected clients.",
					"linecount" : 2,
					"patching_rect" : [ 30.0, 343.0, 107.0, 34.0 ],
					"id" : "obj-22",
					"fontname" : "Arial",
					"numinlets" : 1,
					"fontsize" : 12.0,
					"numoutlets" : 0
				}

			}
, 			{
				"box" : 				{
					"maxclass" : "comment",
					"text" : "Start/Stop the Server.",
					"linecount" : 2,
					"patching_rect" : [ 30.0, 305.0, 69.0, 34.0 ],
					"id" : "obj-21",
					"fontname" : "Arial",
					"numinlets" : 1,
					"fontsize" : 12.0,
					"numoutlets" : 0
				}

			}
, 			{
				"box" : 				{
					"maxclass" : "newobj",
					"text" : "loadmess 6543",
					"outlettype" : [ "" ],
					"patching_rect" : [ 135.0, 223.0, 92.0, 20.0 ],
					"id" : "obj-19",
					"fontname" : "Arial",
					"numinlets" : 1,
					"fontsize" : 12.0,
					"numoutlets" : 1,
					"hidden" : 1
				}

			}
, 			{
				"box" : 				{
					"maxclass" : "comment",
					"text" : "Set port to listen on and Start the server.",
					"linecount" : 3,
					"patching_rect" : [ 30.0, 253.0, 101.0, 48.0 ],
					"id" : "obj-16",
					"fontname" : "Arial",
					"numinlets" : 1,
					"fontsize" : 12.0,
					"numoutlets" : 0
				}

			}
, 			{
				"box" : 				{
					"maxclass" : "number",
					"minimum" : 0,
					"outlettype" : [ "int", "bang" ],
					"maximum" : 65535,
					"patching_rect" : [ 135.0, 253.0, 50.0, 20.0 ],
					"id" : "obj-14",
					"fontname" : "Arial",
					"numinlets" : 1,
					"fontsize" : 12.0,
					"numoutlets" : 2
				}

			}
, 			{
				"box" : 				{
					"maxclass" : "message",
					"text" : "stop",
					"outlettype" : [ "" ],
					"patching_rect" : [ 150.0, 313.0, 33.0, 18.0 ],
					"id" : "obj-11",
					"fontname" : "Arial",
					"numinlets" : 2,
					"fontsize" : 12.0,
					"numoutlets" : 1
				}

			}
, 			{
				"box" : 				{
					"maxclass" : "message",
					"text" : "start",
					"outlettype" : [ "" ],
					"patching_rect" : [ 105.0, 313.0, 34.0, 18.0 ],
					"id" : "obj-5",
					"fontname" : "Arial",
					"numinlets" : 2,
					"fontsize" : 12.0,
					"numoutlets" : 1
				}

			}
, 			{
				"box" : 				{
					"maxclass" : "message",
					"text" : "getClients",
					"outlettype" : [ "" ],
					"patching_rect" : [ 135.0, 343.0, 64.0, 18.0 ],
					"id" : "obj-4",
					"fontname" : "Arial",
					"numinlets" : 2,
					"fontsize" : 12.0,
					"numoutlets" : 1
				}

			}
, 			{
				"box" : 				{
					"maxclass" : "comment",
					"text" : "WARNING: if connections are still open while you quit Max, Max might hang for a couple of minutes. This is normal behaviour. Just be patient and wait...",
					"linecount" : 3,
					"patching_rect" : [ 330.0, 360.0, 282.0, 48.0 ],
					"id" : "obj-26",
					"fontname" : "Arial",
					"numinlets" : 1,
					"fontsize" : 12.0,
					"numoutlets" : 0
				}

			}
, 			{
				"box" : 				{
					"maxclass" : "newobj",
					"text" : "autohelp",
					"patching_rect" : [ 615.0, 780.0, 57.0, 20.0 ],
					"id" : "obj-45",
					"fontname" : "Arial",
					"numinlets" : 1,
					"fontsize" : 12.0,
					"numoutlets" : 0,
					"hidden" : 1
				}

			}
, 			{
				"box" : 				{
					"maxclass" : "newobj",
					"text" : "sadam.tcpServer",
					"outlettype" : [ "list", "int" ],
					"patching_rect" : [ 195.0, 388.0, 101.0, 20.0 ],
					"id" : "obj-1",
					"fontname" : "Arial",
					"numinlets" : 1,
					"fontsize" : 12.0,
					"numoutlets" : 2,
					"saved_object_attributes" : 					{
						"keepalive" : 1,
						"keepalive_probes" : 3,
						"keepalive_time" : 60,
						"keepalive_interval" : 10
					}

				}

			}
, 			{
				"box" : 				{
					"maxclass" : "comment",
					"varname" : "autohelp_top_title",
					"text" : "sadam.tcpServer",
					"frgb" : [ 0.93, 0.93, 0.97, 1.0 ],
					"patching_rect" : [ 10.0, 8.0, 485.0, 30.0 ],
					"id" : "obj-46",
					"fontname" : "Arial",
					"textcolor" : [ 0.93, 0.93, 0.97, 1.0 ],
					"numinlets" : 1,
					"fontface" : 3,
					"fontsize" : 20.871338,
					"numoutlets" : 0
				}

			}
, 			{
				"box" : 				{
					"maxclass" : "comment",
					"varname" : "autohelp_top_digest",
					"text" : "Bidirectional TCP server",
					"frgb" : [ 0.93, 0.93, 0.97, 1.0 ],
					"patching_rect" : [ 10.0, 36.0, 485.0, 21.0 ],
					"id" : "obj-47",
					"fontname" : "Arial",
					"textcolor" : [ 0.93, 0.93, 0.97, 1.0 ],
					"numinlets" : 1,
					"fontsize" : 12.754705,
					"numoutlets" : 0
				}

			}
, 			{
				"box" : 				{
					"maxclass" : "comment",
					"varname" : "autohelp_top_description",
					"text" : "sadam.tcpServer will listen for incoming TCP connections on a specified port and will send and receive arbitrary information through this connection. It communicates via pure binary data, representing each byte as a number between 0 and 255.",
					"linecount" : 3,
					"patching_rect" : [ 10.0, 57.0, 497.0, 46.0 ],
					"id" : "obj-48",
					"fontname" : "Arial",
					"numinlets" : 1,
					"fontsize" : 11.595187,
					"numoutlets" : 0
				}

			}
, 			{
				"box" : 				{
					"maxclass" : "textbutton",
					"varname" : "autohelp_top_ref",
					"outlettype" : [ "", "", "int" ],
					"spacing_x" : 0.0,
					"bgoncolor" : [ 0.0, 0.0, 0.0, 0.0 ],
					"patching_rect" : [ 294.208649, 22.0, 205.791351, 14.666666 ],
					"text" : "open sadam.tcpServer reference",
					"spacing_y" : 0.0,
					"textoncolor" : [ 0.27, 0.35, 0.47, 1.0 ],
					"id" : "obj-49",
					"fontname" : "Arial",
					"underline" : 1,
					"textcolor" : [ 0.27, 0.35, 0.47, 1.0 ],
					"fontlink" : 1,
					"bordercolor" : [ 0.0, 0.0, 0.0, 0.0 ],
					"textovercolor" : [ 0.4, 0.5, 0.65, 1.0 ],
					"numinlets" : 1,
					"bgovercolor" : [ 0.0, 0.0, 0.0, 0.0 ],
					"fontface" : 3,
					"bgcolor" : [ 0.0, 0.0, 0.0, 0.0 ],
					"fontsize" : 12.754705,
					"numoutlets" : 3,
					"bgoveroncolor" : [ 0.0, 0.0, 0.0, 0.0 ],
					"presentation_rect" : [ 0.0, 0.0, 205.791351, 14.666666 ]
				}

			}
, 			{
				"box" : 				{
					"maxclass" : "panel",
					"varname" : "autohelp_top_panel",
					"mode" : 1,
					"patching_rect" : [ 5.0, 5.0, 495.0, 52.0 ],
					"id" : "obj-50",
					"background" : 1,
					"numinlets" : 1,
					"grad1" : [ 0.27, 0.35, 0.47, 1.0 ],
					"numoutlets" : 0,
					"grad2" : [ 0.85, 0.85, 0.85, 1.0 ]
				}

			}
, 			{
				"box" : 				{
					"maxclass" : "message",
					"text" : "port $1",
					"outlettype" : [ "" ],
					"patching_rect" : [ 135.0, 283.0, 50.0, 18.0 ],
					"id" : "obj-12",
					"fontname" : "Arial",
					"numinlets" : 2,
					"fontsize" : 12.0,
					"numoutlets" : 1
				}

			}
 ],
		"lines" : [ 			{
				"patchline" : 				{
					"source" : [ "obj-34", 0 ],
					"destination" : [ "obj-30", 0 ],
					"hidden" : 0,
					"midpoints" : [  ]
				}

			}
, 			{
				"patchline" : 				{
					"source" : [ "obj-24", 0 ],
					"destination" : [ "obj-17", 0 ],
					"hidden" : 0,
					"midpoints" : [  ]
				}

			}
, 			{
				"patchline" : 				{
					"source" : [ "obj-38", 0 ],
					"destination" : [ "obj-40", 0 ],
					"hidden" : 0,
					"midpoints" : [  ]
				}

			}
, 			{
				"patchline" : 				{
					"source" : [ "obj-54", 0 ],
					"destination" : [ "obj-9", 0 ],
					"hidden" : 0,
					"midpoints" : [  ]
				}

			}
, 			{
				"patchline" : 				{
					"source" : [ "obj-14", 0 ],
					"destination" : [ "obj-12", 0 ],
					"hidden" : 0,
					"midpoints" : [  ]
				}

			}
, 			{
				"patchline" : 				{
					"source" : [ "obj-19", 0 ],
					"destination" : [ "obj-14", 0 ],
					"hidden" : 1,
					"midpoints" : [  ]
				}

			}
, 			{
				"patchline" : 				{
					"source" : [ "obj-12", 0 ],
					"destination" : [ "obj-1", 0 ],
					"hidden" : 0,
					"midpoints" : [ 144.5, 306.5, 204.5, 306.5 ]
				}

			}
, 			{
				"patchline" : 				{
					"source" : [ "obj-5", 0 ],
					"destination" : [ "obj-1", 0 ],
					"hidden" : 0,
					"midpoints" : [ 114.5, 336.5, 204.5, 336.5 ]
				}

			}
, 			{
				"patchline" : 				{
					"source" : [ "obj-11", 0 ],
					"destination" : [ "obj-1", 0 ],
					"hidden" : 0,
					"midpoints" : [ 159.5, 336.5, 204.5, 336.5 ]
				}

			}
, 			{
				"patchline" : 				{
					"source" : [ "obj-4", 0 ],
					"destination" : [ "obj-1", 0 ],
					"hidden" : 0,
					"midpoints" : [ 144.5, 366.5, 204.5, 366.5 ]
				}

			}
, 			{
				"patchline" : 				{
					"source" : [ "obj-1", 1 ],
					"destination" : [ "obj-25", 0 ],
					"hidden" : 0,
					"midpoints" : [ 286.5, 427.5, 219.5, 427.5 ]
				}

			}
, 			{
				"patchline" : 				{
					"source" : [ "obj-25", 1 ],
					"destination" : [ "obj-27", 0 ],
					"hidden" : 0,
					"midpoints" : [ 248.5, 457.5, 354.5, 457.5 ]
				}

			}
, 			{
				"patchline" : 				{
					"source" : [ "obj-56", 0 ],
					"destination" : [ "obj-54", 0 ],
					"hidden" : 0,
					"midpoints" : [ 129.5, 696.5, 69.5, 696.5 ]
				}

			}
, 			{
				"patchline" : 				{
					"source" : [ "obj-57", 0 ],
					"destination" : [ "obj-54", 0 ],
					"hidden" : 0,
					"midpoints" : [ 189.5, 696.5, 69.5, 696.5 ]
				}

			}
, 			{
				"patchline" : 				{
					"source" : [ "obj-1", 1 ],
					"destination" : [ "obj-72", 0 ],
					"hidden" : 0,
					"midpoints" : [ 286.5, 427.5, 279.5, 427.5 ]
				}

			}
, 			{
				"patchline" : 				{
					"source" : [ "obj-44", 0 ],
					"destination" : [ "obj-36", 1 ],
					"hidden" : 0,
					"midpoints" : [ 219.5, 487.5, 226.5, 487.5 ]
				}

			}
, 			{
				"patchline" : 				{
					"source" : [ "obj-36", 0 ],
					"destination" : [ "obj-37", 0 ],
					"hidden" : 0,
					"midpoints" : [  ]
				}

			}
, 			{
				"patchline" : 				{
					"source" : [ "obj-1", 0 ],
					"destination" : [ "obj-36", 0 ],
					"hidden" : 0,
					"midpoints" : [  ]
				}

			}
, 			{
				"patchline" : 				{
					"source" : [ "obj-25", 0 ],
					"destination" : [ "obj-44", 0 ],
					"hidden" : 0,
					"midpoints" : [  ]
				}

			}
, 			{
				"patchline" : 				{
					"source" : [ "obj-37", 0 ],
					"destination" : [ "obj-80", 0 ],
					"hidden" : 0,
					"midpoints" : [  ]
				}

			}
, 			{
				"patchline" : 				{
					"source" : [ "obj-82", 0 ],
					"destination" : [ "obj-54", 0 ],
					"hidden" : 0,
					"midpoints" : [  ]
				}

			}
, 			{
				"patchline" : 				{
					"source" : [ "obj-91", 0 ],
					"destination" : [ "obj-92", 0 ],
					"hidden" : 0,
					"midpoints" : [  ]
				}

			}
, 			{
				"patchline" : 				{
					"source" : [ "obj-93", 0 ],
					"destination" : [ "obj-91", 0 ],
					"hidden" : 0,
					"midpoints" : [  ]
				}

			}
, 			{
				"patchline" : 				{
					"source" : [ "obj-92", 0 ],
					"destination" : [ "obj-105", 1 ],
					"hidden" : 0,
					"midpoints" : [ 264.5, 262.5, 435.5, 262.5 ]
				}

			}
, 			{
				"patchline" : 				{
					"source" : [ "obj-92", 0 ],
					"destination" : [ "obj-1", 0 ],
					"hidden" : 0,
					"midpoints" : [ 264.5, 367.5, 204.5, 367.5 ]
				}

			}
, 			{
				"patchline" : 				{
					"source" : [ "obj-40", 0 ],
					"destination" : [ "obj-88", 0 ],
					"hidden" : 0,
					"midpoints" : [ 459.5, 321.0, 743.5, 321.0, 743.5, 156.0, 324.5, 156.0 ]
				}

			}
, 			{
				"patchline" : 				{
					"source" : [ "obj-88", 1 ],
					"destination" : [ "obj-91", 1 ],
					"hidden" : 0,
					"midpoints" : [ 362.5, 202.5, 286.5, 202.5 ]
				}

			}
, 			{
				"patchline" : 				{
					"source" : [ "obj-18", 0 ],
					"destination" : [ "obj-24", 0 ],
					"hidden" : 0,
					"midpoints" : [  ]
				}

			}
, 			{
				"patchline" : 				{
					"source" : [ "obj-20", 0 ],
					"destination" : [ "obj-24", 0 ],
					"hidden" : 0,
					"midpoints" : [ 414.5, 696.5, 294.5, 696.5 ]
				}

			}
, 			{
				"patchline" : 				{
					"source" : [ "obj-23", 0 ],
					"destination" : [ "obj-24", 0 ],
					"hidden" : 0,
					"midpoints" : [ 354.5, 696.5, 294.5, 696.5 ]
				}

			}
, 			{
				"patchline" : 				{
					"source" : [ "obj-33", 0 ],
					"destination" : [ "obj-34", 0 ],
					"hidden" : 0,
					"midpoints" : [ 579.5, 696.5, 519.5, 696.5 ]
				}

			}
, 			{
				"patchline" : 				{
					"source" : [ "obj-32", 0 ],
					"destination" : [ "obj-34", 0 ],
					"hidden" : 0,
					"midpoints" : [ 639.5, 696.5, 519.5, 696.5 ]
				}

			}
, 			{
				"patchline" : 				{
					"source" : [ "obj-31", 0 ],
					"destination" : [ "obj-34", 0 ],
					"hidden" : 0,
					"midpoints" : [  ]
				}

			}
 ]
	}

}
